<svg width="30" height="30" viewBox="0 0 30 30" fill="none" xmlns="http://www.w3.org/2000/svg">
<path fill-rule="evenodd" clip-rule="evenodd" d="M25.2165 4.19483C27.9684 6.86402 29.5829 10.4932 29.7231 14.3245C29.7958 16.286 29.4794 18.2423 28.7924 20.0808C28.1051 21.9194 27.0605 23.6036 25.7189 25.0363C24.3773 26.4691 22.7653 27.6218 20.9757 28.4282C19.1864 29.2346 17.2548 29.6787 15.2929 29.7346H14.8676C12.6374 29.7352 10.4355 29.2343 8.42471 28.269L0.642731 30.0001H0.620026C0.603912 29.9999 0.587799 29.9965 0.572906 29.9896C0.558258 29.9829 0.545074 29.973 0.534332 29.9608C0.52359 29.9484 0.515533 29.934 0.510895 29.9185C0.506256 29.9028 0.504791 29.8864 0.506989 29.8704L1.82193 22.0024C0.583649 19.7369 -0.0435486 17.1882 0.00234983 14.6068C0.0480041 12.0255 0.765045 9.50055 2.08267 7.2804C3.40054 5.06025 5.27359 3.22144 7.51773 1.94495C9.76187 0.6684 12.2995 -0.0018881 14.8813 3.99465e-06H14.9538C18.7875 0.0227091 22.4643 1.52558 25.2165 4.19483ZM14.8676 27.1486H15.2189L15.2326 27.1533C18.4535 27.0527 21.506 25.6909 23.7326 23.3612C25.9589 21.0316 27.1811 17.9205 27.1357 14.6984C27.09 11.4763 25.7807 8.40088 23.4892 6.13495C21.1979 3.86908 18.1083 2.594 14.8859 2.58448H14.5285C12.3942 2.64515 10.3124 3.26075 8.48843 4.37067C6.66422 5.48059 5.1608 7.04651 4.12589 8.91419C3.09122 10.7819 2.5607 12.887 2.58682 15.0219C2.61295 17.157 3.19498 19.2484 4.27505 21.0902L4.50137 21.4731L3.52725 26.8124L8.8046 25.5654L9.20279 25.7736C10.9535 26.6794 12.8964 27.1511 14.8676 27.1486ZM9.16592 7.8089C9.33365 7.73407 9.5148 7.69367 9.69839 7.69007V7.68555H9.73013C9.97891 7.69312 10.2277 7.70063 10.445 7.7157C10.7089 7.73529 11.0104 7.75641 11.2636 8.39722C11.4442 8.83106 11.7433 9.63977 11.9804 10.2808C12.1527 10.7472 12.2924 11.1248 12.3297 11.2048C12.3857 11.3046 12.4157 11.4164 12.4176 11.5308C12.4184 11.5804 12.414 11.6297 12.4042 11.678C12.3915 11.7408 12.37 11.8019 12.3402 11.8593C12.2387 12.0778 12.1066 12.2808 11.9482 12.4623C11.8871 12.5295 11.8253 12.6001 11.7636 12.6707C11.6298 12.8236 11.4955 12.977 11.3676 13.0988C11.1806 13.2766 10.9757 13.4727 11.1806 13.8527C11.7113 14.8315 12.3842 15.7263 13.1772 16.5079C14.0258 17.3389 15.0226 18.0038 16.1159 18.4681C16.2423 18.5344 16.382 18.572 16.5246 18.5783C16.602 18.5768 16.6781 18.5593 16.7482 18.5266C16.7731 18.5149 16.797 18.5015 16.8197 18.4864C16.8612 18.4589 16.8988 18.426 16.9315 18.3882C17.164 18.153 17.8561 17.3372 18.1574 16.9617C18.2045 16.8848 18.2697 16.8203 18.3471 16.7741C18.4247 16.7277 18.5121 16.7011 18.6022 16.6964C18.6745 16.7018 18.7458 16.7139 18.8153 16.7325C18.8791 16.7497 18.9416 16.7723 19.0019 16.8004C19.2072 16.8826 19.9494 17.2685 20.5851 17.6032C20.9997 17.8215 21.3688 18.0179 21.5141 18.0941L21.664 18.1721C21.9486 18.319 22.1388 18.4173 22.215 18.5465C22.3041 18.6973 22.2814 19.4512 21.9438 20.3137C21.6061 21.1762 20.0573 21.9694 19.3712 22.0115C19.3048 22.0155 19.2394 22.0211 19.1723 22.0267C19.0341 22.0385 18.8891 22.0507 18.7155 22.0507C18.0898 22.0507 17.1247 21.8879 14.9232 20.9395C11.4648 19.454 9.26114 15.9579 8.8024 15.23C8.76431 15.1696 8.73819 15.1282 8.72452 15.1086L8.72305 15.1066C8.53824 14.8441 7.26212 13.0319 7.31924 11.2003C7.37271 9.47913 8.24625 8.60285 8.64761 8.2005L8.72134 8.12586C8.80533 8.03601 8.90079 7.95807 9.00504 7.89392C9.05655 7.86213 9.11026 7.83368 9.16592 7.8089Z" fill="#25D366"/>
</svg>
