<svg width="23" height="24" fill="none" xmlns="http://www.w3.org/2000/svg"><path fill-rule="evenodd" clip-rule="evenodd" d="M8.491 7.233c-1.099 1.084-1.859 2.865-1.859 5.662 0 2.174 1.106 4.197 2.498 5.87 1.383 1.664 2.975 2.893 3.781 3.465.023.016.042.02.058.02a.103.103 0 00.06-.025c.804-.619 2.41-1.946 3.806-3.65 1.414-1.726 2.515-3.718 2.515-5.68 0-2.529-.75-4.327-1.872-5.488-1.122-1.162-2.693-1.766-4.487-1.766-1.836 0-3.398.504-4.5 1.592zM7.367 6.094c1.489-1.47 3.507-2.053 5.624-2.053 2.16 0 4.17.734 5.638 2.254 1.469 1.52 2.321 3.75 2.321 6.6 0 2.522-1.388 4.876-2.877 6.693-1.506 1.838-3.217 3.25-4.067 3.905a1.69 1.69 0 01-2.02.042c-.863-.612-2.579-1.933-4.087-3.746-1.499-1.803-2.867-4.182-2.867-6.894 0-3.082.843-5.328 2.335-6.801zm5.624 3.638a2.268 2.268 0 100 4.536 2.268 2.268 0 000-4.536zM9.123 12a3.868 3.868 0 117.736 0 3.868 3.868 0 01-7.736 0z" fill="#828282"/></svg>