<svg width="69" height="53" fill="none" xmlns="http://www.w3.org/2000/svg"><path d="M59.84 48.92h-20.5V.677h-2.546v48.265H8.085V.677H5.89v49.186H.184v2.217h68.698v-2.217h-6.826l-2.216-.943z" fill="#272525"/><path d="M36.794 8.38H8.085v2.613h28.709V8.38zm0 10.207H8.085v2.612h28.709v-2.612z" fill="#272525"/><path d="M8.085 18.587l3.336-3.249h22.212l3.16 3.249m-25.811-7.594v4.345m22.783-4.345v4.345M8.085 8.38l3.336-3.248h22.212l3.16 3.249M10.982.809v4.323M33.765.809v4.323" stroke="#272525" stroke-width=".5" stroke-miterlimit="10"/><path d="M36.794 28.968H8.085v2.612h28.709v-2.612zm0 10.009H8.085v2.612h28.709v-2.612zm0 10.206H8.085v2.612h28.709v-2.612z" fill="#272525"/><path d="M8.085 28.969l3.336-3.249h22.212l3.16 3.249m-25.811-7.573v4.324m22.783-4.324v4.324M8.085 49.183l3.336-3.27h22.212l3.16 3.27m-25.811-7.594v4.324m22.783-4.324v4.324m-25.68-6.936l3.336-3.27h22.212l3.16 3.27m-25.811-7.594v4.324m22.783-4.324v4.324" stroke="#272525" stroke-width=".5" stroke-miterlimit="10"/><path d="M62.035 27.344H38.396v22.52h23.639v-22.52z" stroke="#272525" stroke-miterlimit="10"/><path d="M39.34 22.406h19.688l3.577 3.84v.747" stroke="#272525" stroke-width=".5" stroke-miterlimit="10"/></svg>