<svg width="57" height="55" fill="none" xmlns="http://www.w3.org/2000/svg"><path d="M35.52 16.326h-4.807a2.848 2.848 0 00-2.853 2.854v1.492a5.226 5.226 0 00-4.74 5.202v5.092a5.236 5.236 0 005.223 5.224h9.81c.923 0 1.779-.242 2.525-.659.022 0 .022-.022.044-.022a5.223 5.223 0 002.656-4.543v-5.092c0-2.788-2.217-5.092-4.983-5.202V19.18c-.022-1.559-1.317-2.854-2.875-2.854zm6.672 14.64a4.062 4.062 0 01-1.25 2.919V22.933a4.062 4.062 0 011.25 2.919v5.114zm-17.931-5.092c0-1.185.504-2.239 1.316-2.985V33.95a4.027 4.027 0 01-1.317-2.985v-5.092zm11.26-8.385c.943 0 1.69.769 1.69 1.69v1.471h-1.252v-.812a1.69 1.69 0 00-1.69-1.69h-2.326a1.69 1.69 0 00-1.69 1.69v.812H29v-1.47c0-.922.768-1.69 1.69-1.69h4.83zm4.279 4.675v12.511c-.46.198-.944.33-1.47.351V21.813c.504.022 1.01.154 1.47.352zM29.375 35.026V21.813h7.77v13.213h-7.77zm-2.634-.307V22.252c0-.044 0-.066-.022-.11a4.22 4.22 0 011.47-.329v13.213a4.613 4.613 0 01-1.448-.307zm8.055-14.069h-3.38v-.812c0-.285.241-.527.526-.527h2.327c.285 0 .527.242.527.527v.812z" fill="#272525"/><path d="M51.85 42.225a3.323 3.323 0 00-3.314-4.038l-27.787-.198-6.343-30.793a4.29 4.29 0 00-2.085-2.722l-5.948-3.27C4.046-.07 1.017 1.05.183 3.728-.43 5.703.578 7.81 2.378 8.798l4.148 2.283 6.365 25.416-2.985 2.37a2.977 2.977 0 00-1.119 2.327v4.455c0 1.603 1.317 2.942 2.92 2.963l2.962.044a4.648 4.648 0 00-.175 2.13c.285 2.084 2.019 3.775 4.104 4.016a4.742 4.742 0 005.334-4.697c0-.46-.066-.9-.198-1.317l19.644.264c-.176.746-.154 1.558.044 2.348.439 1.668 1.844 2.985 3.512 3.336 3.072.68 5.794-1.668 5.794-4.631 0-.307-.022-.615-.088-.922l1.295.022c1.602 0 2.941-1.317 2.963-2.919a2.914 2.914 0 00-.834-2.107 2.98 2.98 0 00-2.085-.9l-2.304-.132.175-.922zm-2.392.944H12.343v.747c0 .636.526 1.163 1.163 1.185l40.43.57a.6.6 0 01.416.176c.066.066.176.22.176.439 0 .33-.286.593-.615.593l-3.073-.044c-.46 0-.856.241-1.075.636-.198.395-.154.878.11 1.23.307.416.483.921.483 1.426a2.388 2.388 0 01-3.073 2.283 2.36 2.36 0 01-1.624-1.646c-.264-.988.131-1.713.438-2.108.286-.35.33-.834.132-1.229a1.173 1.173 0 00-1.053-.658l-23.485-.351h-.022c-.483 0-.9.285-1.076.724-.197.439-.087.966.264 1.295.614.614.856 1.47.614 2.348-.22.79-.878 1.449-1.668 1.647-1.58.417-3.007-.79-3.007-2.305 0-.659.264-1.273.768-1.734a1.23 1.23 0 00.308-1.295 1.167 1.167 0 00-1.076-.746l-5.026-.066c-.33 0-.593-.285-.593-.615v-4.455c0-.176.088-.351.242-.483l3.6-2.831c.372-.286.526-.769.416-1.208L8.7 10.027c-.088-.307-.285-.593-.57-.746L3.475 6.735c-.856-.461-1.316-1.47-.987-2.393a1.955 1.955 0 012.765-1.075l5.948 3.27c.483.264.813.703.944 1.23l6.54 31.671c.133.527.593.878 1.142.9l28.314.175c1.12-.087 1.953 1.032 1.558 2.086l-.241.57z" fill="#272525"/></svg>