<svg width="59" height="58" fill="none" xmlns="http://www.w3.org/2000/svg"><path d="M33.998 57.633h19.578a4.6 4.6 0 004.587-4.587V40.513c0-2.326-1.734-4.236-3.994-4.543v-4.96c0-5.729-4.653-10.382-10.382-10.382S33.405 25.28 33.405 31.01v4.96a4.595 4.595 0 00-3.994 4.543v12.533a4.6 4.6 0 004.587 4.587zm-2.875-17.12a2.885 2.885 0 012.875-2.875h19.578a2.885 2.885 0 012.875 2.875v12.533a2.885 2.885 0 01-2.875 2.875H33.998a2.885 2.885 0 01-2.875-2.875V40.513zM43.787 22.34c4.785 0 8.67 3.885 8.67 8.67v4.916h-1.361V31.01a7.306 7.306 0 00-7.31-7.31 7.306 7.306 0 00-7.308 7.31v4.916h-1.36V31.01c0-4.785 3.884-8.67 8.669-8.67zm5.597 13.586H38.19V31.01a5.592 5.592 0 015.597-5.597 5.592 5.592 0 015.597 5.597v4.916z" fill="#272525"/><path d="M42.075 51.422h3.424c.373 0 .68-.307.68-.68v-7.924a.684.684 0 00-.68-.68h-3.424a.684.684 0 00-.68.68v7.924c0 .373.307.68.68.68zm.68-7.923h2.042v6.562h-2.042v-6.563zM1.382 32.151c1.01 2.107 2.985 3.534 5.246 3.534h13.894c3.292 0 5.948-3.007 5.948-6.717V7.393c0-3.71-2.656-6.716-5.948-6.716H6.628C4.5.677 2.612 1.972 1.558 3.88c0 0-.922.79-.922 3.205v21.487c0 1.603.746 3.578.746 3.578zm23.463-3.183c0 2.81-1.953 5.092-4.323 5.092H6.628c-2.392 0-4.324-2.282-4.324-5.092V7.393c0-2.81 1.954-5.092 4.324-5.092h13.894c2.392 0 4.324 2.283 4.324 5.092v21.575z" fill="#272525"/><path d="M6.738 11.168h13.674c.944 0 1.712-.856 1.712-1.931V7.964c0-1.054-.768-1.932-1.712-1.932H6.738c-.944.022-1.712.878-1.712 1.932v1.295c0 1.053.768 1.91 1.712 1.91zm-.944-3.204c0-.637.417-1.164.944-1.164h13.674c.527 0 .944.527.944 1.164v1.295c0 .636-.417 1.163-.944 1.163H6.738c-.527 0-.944-.527-.944-1.163V7.964zm2.722 4.543H6.979a1.934 1.934 0 00-1.931 1.931v1.8c0 1.054.856 1.932 1.931 1.932h1.537a1.934 1.934 0 001.931-1.932v-1.8a1.934 1.934 0 00-1.931-1.931zm1.163 3.731a1.17 1.17 0 01-1.163 1.163H6.979a1.171 1.171 0 01-1.163-1.163v-1.8c0-.636.527-1.163 1.163-1.163h1.537c.636 0 1.163.527 1.163 1.163v1.8zm4.917-3.731h-1.537a1.934 1.934 0 00-1.931 1.931v1.8c0 1.054.856 1.932 1.931 1.932h1.537a1.934 1.934 0 001.931-1.932v-1.8a1.92 1.92 0 00-1.931-1.931zm1.163 3.731a1.17 1.17 0 01-1.163 1.163h-1.537a1.171 1.171 0 01-1.163-1.163v-1.8c0-.636.527-1.163 1.163-1.163h1.537a1.17 1.17 0 011.163 1.163v1.8zm5.201-3.731h-1.536a1.934 1.934 0 00-1.931 1.931v1.8c0 1.054.856 1.932 1.931 1.932h1.537a1.934 1.934 0 001.931-1.932v-1.8a1.92 1.92 0 00-1.931-1.931zm1.164 3.731a1.17 1.17 0 01-1.163 1.163h-1.537a1.17 1.17 0 01-1.163-1.163v-1.8a1.17 1.17 0 011.163-1.163h1.537c.636 0 1.163.527 1.163 1.163v1.8zm-13.74 2.963H6.848a1.934 1.934 0 00-1.932 1.932v1.8c0 1.053.856 1.93 1.932 1.93h1.536a1.934 1.934 0 001.932-1.93V21.11a1.944 1.944 0 00-1.932-1.91zm1.163 3.71a1.17 1.17 0 01-1.163 1.163H6.848a1.17 1.17 0 01-1.164-1.164v-1.8c0-.636.527-1.163 1.164-1.163h1.536a1.17 1.17 0 011.163 1.164v1.8zm4.917-3.71h-1.537a1.934 1.934 0 00-1.931 1.932v1.8c0 1.053.856 1.93 1.931 1.93h1.537a1.934 1.934 0 001.931-1.93V21.11c0-1.054-.878-1.91-1.931-1.91zm1.163 3.71a1.17 1.17 0 01-1.163 1.163h-1.537a1.17 1.17 0 01-1.163-1.164v-1.8c0-.636.527-1.163 1.163-1.163h1.537c.636 0 1.163.527 1.163 1.164v1.8zm5.202-3.71h-1.536a1.934 1.934 0 00-1.932 1.932v1.8c0 1.053.856 1.93 1.932 1.93h1.536a1.934 1.934 0 001.931-1.93V21.11c0-1.054-.878-1.91-1.931-1.91zm1.163 3.71a1.17 1.17 0 01-1.163 1.163h-1.536a1.17 1.17 0 01-1.164-1.164v-1.8c0-.636.527-1.163 1.164-1.163h1.536a1.17 1.17 0 011.163 1.164v1.8zM8.384 25.873H6.848a1.934 1.934 0 00-1.932 1.932v1.8c0 1.053.856 1.931 1.932 1.931h1.536a1.934 1.934 0 001.932-1.931v-1.8c-.022-1.053-.878-1.931-1.932-1.931zm1.163 3.732a1.17 1.17 0 01-1.163 1.163H6.848a1.171 1.171 0 01-1.164-1.163v-1.8c0-.636.527-1.163 1.164-1.163h1.536a1.17 1.17 0 011.163 1.163v1.8zm4.917-3.732h-1.537a1.934 1.934 0 00-1.931 1.932v1.8c0 1.053.856 1.931 1.931 1.931h1.537a1.934 1.934 0 001.931-1.931v-1.8a1.949 1.949 0 00-1.931-1.931zm1.163 3.732c0 .636-.527 1.163-1.163 1.163h-1.537a1.171 1.171 0 01-1.163-1.163v-1.8c0-.636.527-1.163 1.163-1.163h1.537c.636 0 1.163.527 1.163 1.163v1.8zm5.202-3.732h-1.536a1.934 1.934 0 00-1.932 1.932v1.8c0 1.053.856 1.931 1.932 1.931h1.536a1.934 1.934 0 001.931-1.931v-1.8a1.949 1.949 0 00-1.931-1.931zm1.163 3.732a1.17 1.17 0 01-1.163 1.163h-1.536a1.171 1.171 0 01-1.164-1.163v-1.8c0-.636.527-1.163 1.164-1.163h1.536a1.17 1.17 0 011.163 1.163v1.8z" fill="#272525"/></svg>