<svg width="63" height="44" fill="none" xmlns="http://www.w3.org/2000/svg"><path d="M61.79 15.666l-7.529-1.734V1.531c0-.593-.483-1.075-1.076-1.075H1.145C.554.456.07.938.07 1.53v27.94c0 .593.483 1.076 1.076 1.076h4.543l-.022.11a1.05 1.05 0 00.132.812 1.1 1.1 0 00.68.483l.57.131 48.507 11.15c.044 0 .11.022.154.022.483 0 .921-.329 1.031-.812l4.85-21.027 1.032-4.499a1.05 1.05 0 00-.131-.812c-.176-.22-.417-.395-.703-.44zm-7.529 7.88s.022 0 .022.021l-.022.11v-.132zm-19.863 8.406a8.127 8.127 0 004.28-1.23c.087-.043.153-.11.241-.153h13.784l-.527 2.283c-.176-.022-.33-.022-.483-.022a5.806 5.806 0 00-5.158 2.985 5.803 5.803 0 00-.395.834l-26.426-6.102h10.14c.198.132.417.263.637.395.153.088.329.176.505.264a7.663 7.663 0 001.602.548c.57.132 1.185.198 1.8.198zm-1.252-1.405h2.503a6.85 6.85 0 01-2.502 0zM2.222 28.396V2.606H52.11v25.79H2.221zm52.655 12.51L9.946 30.548h6.761a.491.491 0 00.373.417l29.236 6.738c.043 0 .066.022.11.022a.513.513 0 00.482-.373 4.848 4.848 0 014.61-3.534c.307 0 .614.022.921.066.264.044.527-.11.57-.373l.725-3.117a.86.86 0 00.22-.175c.197-.198.307-.461.307-.747v-1.338l1.097-4.807a.484.484 0 00-.35-.593 4.33 4.33 0 01-.747-.285v-6.321l5.992 1.383-5.377 23.397z" fill="#272525"/><path d="M47.984 9.41c-2.59-.131-4.631-2.26-4.763-4.938a.53.53 0 00-.527-.505H11.637a.53.53 0 00-.527.505C10.98 7.15 8.915 9.28 6.325 9.411c-.263 0-.482.241-.482.526v11.15a.53.53 0 00.504.527c2.59.132 4.631 2.26 4.763 4.938a.53.53 0 00.527.505h31.08a.53.53 0 00.526-.505c.131-2.677 2.173-4.806 4.763-4.938a.53.53 0 00.505-.527V9.937c-.023-.285-.242-.526-.527-.526zm-.549 11.194c-2.722.373-4.873 2.59-5.224 5.4H12.12c-.351-2.81-2.502-5.027-5.224-5.4V10.42c2.722-.373 4.873-2.59 5.224-5.4h30.09c.351 2.81 2.502 5.027 5.224 5.4v10.184z" fill="#272525"/><path d="M27.44 6.887c-4.61 0-8.384 3.863-8.384 8.625 0 4.763 3.753 8.626 8.384 8.626 4.61 0 8.384-3.863 8.384-8.626-.022-4.762-3.775-8.625-8.384-8.625zm0 15.912c-3.885 0-7.046-3.27-7.046-7.287 0-4.016 3.161-7.286 7.046-7.286 3.885 0 7.046 3.27 7.046 7.286-.022 4.017-3.183 7.287-7.046 7.287z" fill="#272525"/></svg>