<svg width="47" height="49" fill="none" xmlns="http://www.w3.org/2000/svg"><path d="M42.908 31.906c.898-2.537.887-5.201.752-7.854-.178-3.541-.47-7.083-.793-10.613-.199-2.252-1.816-3.795-3.819-3.795-.73 0-1.408.211-2.003.592.7-2.495-.23-4.06-3.558-5.264-.01-.01-.02-.021-.02-.032.062-1.808-.365-2.917-1.951-3.837-1.617-.94-3.182-1.047-4.622.814-.01.01-.386.497-.396.476-.22-1.015-1.044-1.66-1.722-1.956-1.127-.497-2.17-.497-3.088-.01-.292.073-.584.18-.887.327-.657.328-1.46.994-1.638 2.019 0 .021-.396-.454-.407-.465C17.255.5 15.69.68 14.114 1.674c-1.544.983-1.94 2.103-1.805 3.91 0 .022-.01.033-.02.043-3.026 1.237-3.997 2.696-3.506 4.852a3.811 3.811 0 00-1.878-.433c-1.993.084-3.547 1.68-3.662 3.943-.177 3.54-.334 7.092-.386 10.634-.031 2.653.063 5.317 1.054 7.811L.478 38.248l16.62 10.106 3.776-6.385a11.11 11.11 0 002.504-1.036c.96.54 1.94.94 2.953 1.163l4.027 6.226 16.223-10.76-3.673-5.656zM31.724 8.513c.783-1.31 1.586-1.67 2.609-1.152 1.074.539 1.366 1.395.626 2.77a157.749 157.749 0 01-1.92 3.424c-.751-1.152-1.492-2.315-2.243-3.467.302-.529.615-1.057.928-1.575zm3.255 6.163c-.03.433-.062.92-.114 1.48 0 .031-.053.052-.073.02-.23-.316-.397-.549-.553-.76.219-.296.459-.56.74-.74zM27.802 3.904c.699-1.173 1.544-1.554 2.462-1.184 1.23.508 1.544 1.692.772 3.002-.48.825-.97 1.639-1.46 2.463-.752-1.163-1.503-2.315-2.254-3.478.156-.264.313-.528.48-.803zm-6.573 35.813a10.2 10.2 0 01-1.179.339l-1.074 1.818-.261.433-2.202 3.584-13.74-8.351 2.024-3.277.324-.54.834-1.405a8.872 8.872 0 01-.386-.994c-.125-.37-.23-.75-.313-1.13a12.235 12.235 0 01-.26-2.337c-.042-4.556.083-9.122.198-13.678.031-1.248.814-2.062 1.773-2.114.846-.043 1.545.412 1.878 1.247-.25.127-.48.317-.772.634-1.398 1.596-1.544 3.954-.427 5.75a718.36 718.36 0 009.984 15.645 19.376 19.376 0 002.232 2.833c.522.54 1.065 1.026 1.607 1.47-.084.02-.167.052-.24.074zm7.282 2.643l-.271-.423-1.148-1.776a8.515 8.515 0 01-1.19-.296 10.007 10.007 0 01-1.355-.539c-1.94-.951-3.506-2.515-4.82-4.429-1.774-2.6-3.433-5.285-5.144-7.938-1.794-2.78-3.599-5.55-5.373-8.351-.302-.476-.803-1.184-.699-2.02.074-.602.387-.961.846-1.289.406-.285 1.272-.222 1.773.021.543.275.95.888 1.315 1.427.845 1.269 1.659 2.559 2.493 3.838.407.623.814 1.247 1.22 1.86.439.655 1.273 2.484 2.275 1.776.918-.655-.292-2.125-.678-2.717-.407-.623-.814-1.247-1.21-1.881-1.847-2.928-3.725-5.835-5.498-8.806-.804-1.321-.543-2.188.51-2.78 1.002-.55 1.816-.232 2.65 1.047 2.16 3.33 4.31 6.67 6.47 10.01.302.465.479.856 1.053 1.047.417.148.834.063.99-.37.272-.74.053-1.12-.333-1.713-2.535-3.921-5.07-7.843-7.605-11.775-.825-1.29-.564-2.474.646-3.034.908-.413 1.764-.064 2.504 1.078 2.588 3.985 5.165 7.97 7.73 11.966.418.655.93 1.205 1.67.666.71-.508.313-1.163-.073-1.744a1982.34 1982.34 0 01-5.957-9.228c-.26-.413-.532-.836-.668-1.3-.313-1.047.386-2.125 1.45-2.316 1.085-.19 1.618.465 2.118 1.248 3.37 5.243 6.74 10.475 10.162 15.687.313.475.98 1.046 1.46 1.025.908-.021.814-.973.866-1.65.146-1.67.209-3.35.386-5.02.136-1.29.929-2.04 1.993-2.02.96.011 1.774.804 1.847 2.041.281 4.556.594 9.101.72 13.657a11.625 11.625 0 01-.428 3.489c-.105.348-.22.676-.355 1.014l.887 1.375.344.528 2.045 3.277-13.406 8.89-2.212-3.552z" fill="#272525"/><path d="M32.225 21.409c-1.46 0-2.817.814-3.589 2.124-.772-1.31-2.128-2.124-3.589-2.124-1.784 0-3.39 1.215-3.995 3.023a5.005 5.005 0 00-.261 1.554c0 .518.083 1.025.24 1.5.02.054.042.096.062.149l.658-.317-.658.317.658-.317-.658.317c.01.021.021.031.032.063.187.476.417.899.699 1.258.135.17.292.338.448.486l6.375 6.86 6.604-7.082a4.703 4.703 0 00.99-1.68 4.83 4.83 0 00.251-1.544c-.01-2.526-1.92-4.587-4.267-4.587zm2.63 5.655a3.294 3.294 0 01-.69 1.163l-5.518 5.92-5.342-5.73-.042-.042a3.018 3.018 0 01-.793-1.205c-.02-.064-.052-.117-.073-.18a3.394 3.394 0 01.021-2.104c.407-1.205 1.46-2.019 2.619-2.019 1.085 0 2.076.709 2.535 1.797.177.423.595.709 1.054.709.459 0 .866-.275 1.053-.709.46-1.088 1.461-1.797 2.536-1.797 1.544 0 2.796 1.396 2.796 3.108.01.38-.042.74-.157 1.089z" fill="#272525"/></svg>