<svg width="52" height="59" fill="none" xmlns="http://www.w3.org/2000/svg"><path d="M5.553 18.796c-2.656 2.348-2.897 6.43-.549 9.086l25.197 28.424a6.478 6.478 0 004.829 2.172 6.31 6.31 0 004.258-1.624l2.349-2.063c2.655-2.348 2.897-6.43.548-9.087L16.988 17.281a6.49 6.49 0 00-4.433-2.15 6.385 6.385 0 00-4.61 1.558L3.03 11.114a1.309 1.309 0 00-1.822-.11c-.526.46-.57 1.295-.11 1.822l4.939 5.552-.483.418zm6.87-1.603a4.305 4.305 0 013.007 1.47l25.197 28.424c1.602 1.8 1.426 4.587-.373 6.19l-2.349 2.063c-1.8 1.602-4.587 1.426-6.19-.373L6.542 26.52a4.398 4.398 0 01-1.098-3.16c.088-1.163.593-2.239 1.47-3.007l2.35-2.085a4.363 4.363 0 012.897-1.098c.087 0 .175.022.263.022z" fill="#272525"/><path d="M30.377 50.007c.417.482 1.01.746 1.646.79h.153a2.32 2.32 0 001.58-.593l1.867-1.646c.482-.417.746-1.01.79-1.646a2.312 2.312 0 00-.593-1.712L17.186 24.173c-.417-.483-1.01-.746-1.646-.79a2.395 2.395 0 00-1.734.593l-1.844 1.646a2.273 2.273 0 00-.79 1.646 2.395 2.395 0 00.592 1.734l18.613 21.005zM12.994 26.785l1.865-1.646a.843.843 0 01.549-.198h.044c.22.022.439.11.57.286l2.064 2.326-3.117 2.766-2.063-2.327a.777.777 0 01-.198-.614c.022-.242.11-.461.285-.593zm21.597 20.61l-1.866 1.646a.777.777 0 01-.614.197c-.22-.022-.44-.11-.571-.285l-2.81-3.16 3.117-2.766 2.81 3.16c.153.176.22.374.197.615a.83.83 0 01-.263.593zM22.058 31.987l-3.116 2.765-2.59-2.919 3.116-2.765 2.59 2.919zm4.17 4.719l-3.116 2.765-2.81-3.182 3.117-2.766 2.81 3.183zm4.258 4.806l-3.116 2.766-2.897-3.27 3.116-2.766 2.898 3.27zm16.396-31.364c1.12 0 2.239-.395 3.139-1.185a4.657 4.657 0 001.58-3.249 4.78 4.78 0 00-1.185-3.424 4.724 4.724 0 00-6.673-.395 4.724 4.724 0 00-.395 6.673c.922 1.053 2.217 1.58 3.534 1.58zm1.997-6.475c.966 1.097.878 2.787-.22 3.753-1.097.966-2.787.878-3.752-.22-.966-1.097-.878-2.787.22-3.753a2.69 2.69 0 011.755-.658 2.59 2.59 0 011.997.878zM36.983 26.258a8.11 8.11 0 005.597-2.239l.373-.373-2.875-2.875-.351.351a4.063 4.063 0 01-2.744 1.076c-2.238 0-4.06-1.8-4.06-4.039s1.822-4.038 4.06-4.038c1.01 0 2.02.395 2.744 1.075l.373.351 2.875-2.897-.373-.351a8.032 8.032 0 00-5.597-2.239c-4.477 0-8.12 3.643-8.12 8.121-.023 4.434 3.62 8.077 8.098 8.077zm0-15.188c1.647 0 3.227.57 4.478 1.624l-1.427 1.426a5.063 5.063 0 00-3.05-1.031c-2.81 0-5.093 2.26-5.093 5.07 0 2.81 2.283 5.07 5.092 5.07a5.188 5.188 0 003.051-1.01l1.427 1.427a6.955 6.955 0 01-4.478 1.602c-3.906 0-7.089-3.182-7.089-7.089 0-3.907 3.183-7.09 7.09-7.09z" fill="#272525"/></svg>