<svg width="52" height="45" fill="none" xmlns="http://www.w3.org/2000/svg"><path d="M29.674 18.277c1.218-1.006 1.995-2.462 1.995-4.093 0-3.018-2.635-5.47-5.879-5.47-3.243 0-5.878 2.452-5.878 5.47 0 1.631.776 3.096 1.994 4.093v25.445c0 .479.41.86.924.86h5.92c.515 0 .924-.381.924-.86V18.277zm-5.91 24.585v-23.55c.63.215 1.323.342 2.037.342s1.396-.127 2.036-.342v23.55h-4.073zm2.026-32.42c2.226 0 4.031 1.68 4.031 3.752 0 2.07-1.805 3.75-4.03 3.75-2.226 0-4.032-1.68-4.032-3.75.01-2.071 1.816-3.751 4.031-3.751zM44.024.685a2.09 2.09 0 00-1.417.566 1.779 1.779 0 00.042 2.647c2.94 2.657 4.556 6.213 4.556 10.022 0 3.81-1.617 7.365-4.556 10.012a1.77 1.77 0 00-.609 1.348c0 .489.2.957.567 1.31a2.09 2.09 0 001.417.566h.032c.524 0 1.028-.186 1.406-.528 3.727-3.37 5.774-7.883 5.774-12.708s-2.047-9.338-5.774-12.708a2.247 2.247 0 00-1.438-.527zm.021 25.093a.57.57 0 01-.388-.156.47.47 0 01-.147-.342c0-.137.063-.264.157-.361 3.223-2.92 5.007-6.828 5.007-11.009 0-4.18-1.774-8.088-5.007-11.008a.471.471 0 01-.01-.703.518.518 0 01.378-.147h.01c.136 0 .273.049.367.137 3.433 3.106 5.333 7.267 5.333 11.721s-1.89 8.616-5.333 11.722a.494.494 0 01-.367.146zm-9.542-4.649c0 .488.2.947.556 1.299.368.361.872.566 1.407.576h.052a2.08 2.08 0 001.386-.518c2.54-2.256 3.936-5.294 3.936-8.556 0-3.263-1.396-6.3-3.936-8.557a2.117 2.117 0 00-1.438-.518c-.535.01-1.04.215-1.407.577a1.82 1.82 0 00-.556 1.338c.01.498.23.967.62 1.309 1.731 1.543 2.687 3.624 2.687 5.85 0 2.228-.956 4.308-2.688 5.852a1.8 1.8 0 00-.62 1.348zm1.648-.362c2.026-1.807 3.15-4.239 3.15-6.837 0-2.608-1.124-5.04-3.15-6.848a.496.496 0 01-.168-.351c0-.137.052-.264.147-.352a.526.526 0 01.378-.156h.01c.137 0 .273.049.368.137 2.246 1.992 3.474 4.678 3.474 7.56 0 2.882-1.238 5.568-3.485 7.56a.527.527 0 01-.378.137.544.544 0 01-.378-.156.487.487 0 01-.147-.342.507.507 0 01.179-.352zM7.577 27.155c.525 0 1.05-.195 1.449-.566.367-.352.567-.82.567-1.31 0-.507-.22-.986-.61-1.347-2.938-2.657-4.555-6.212-4.555-10.012 0-3.8 1.617-7.355 4.556-10.012.798-.723.819-1.915.042-2.647C8.249.508 6.968.499 6.17 1.21 2.444 4.582.397 9.095.397 13.92c0 4.825 2.047 9.338 5.774 12.708.388.352.902.527 1.406.527zm0-25.093a.58.58 0 01.389.146.492.492 0 01-.01.713C4.721 5.832 2.947 9.74 2.947 13.92c0 4.18 1.774 8.088 5.007 11.008a.484.484 0 01.01.704.56.56 0 01-.755.01c-3.433-3.107-5.333-7.268-5.333-11.722S3.767 5.305 7.21 2.198a.546.546 0 01.367-.136zm6.13 20.415a2.1 2.1 0 001.386.517h.053a2.053 2.053 0 001.406-.576c.357-.352.557-.81.557-1.299 0-.508-.231-1.006-.62-1.358-1.732-1.543-2.687-3.624-2.687-5.85 0-2.228.955-4.308 2.687-5.852.389-.342.61-.81.62-1.309a1.82 1.82 0 00-.557-1.338 2.058 2.058 0 00-1.417-.576 2.117 2.117 0 00-1.438.518c-2.54 2.256-3.936 5.294-3.936 8.556.01 3.273 1.406 6.31 3.947 8.567zm1.397-16.264h.01c.147 0 .273.059.378.156a.51.51 0 01.147.352.475.475 0 01-.168.352c-2.026 1.807-3.15 4.239-3.15 6.847 0 2.608 1.124 5.04 3.15 6.847a.47.47 0 01.021.703.57.57 0 01-.378.157.574.574 0 01-.378-.137c-2.246-1.992-3.474-4.679-3.474-7.56 0-2.882 1.238-5.568 3.474-7.56a.52.52 0 01.368-.157z" fill="#272525"/></svg>