<svg width="63" height="48" fill="none" xmlns="http://www.w3.org/2000/svg"><path d="M53.579 1.872H38.325a5.285 5.285 0 00-3.578 1.36V.49H3.053v27.83a4.141 4.141 0 00-2.612 3.84v3.425a4.159 4.159 0 004.149 4.148h3.6v.088c0 4.126 3.357 7.462 7.462 7.462 4.104 0 7.462-3.358 7.462-7.462v-.088h19.447v.088c0 4.126 3.358 7.462 7.462 7.462 4.127 0 7.463-3.358 7.463-7.462 0-.33-.022-.637-.066-.966 3.073-1.449 5.202-4.566 5.202-8.165V10.892c0-4.96-4.06-9.02-9.043-9.02zm-48.66.482h27.984v25.658H4.92V2.354zm10.733 43.063a5.63 5.63 0 01-5.62-5.618 5.63 5.63 0 015.62-5.62 5.63 5.63 0 015.619 5.62c-.022 3.116-2.524 5.618-5.62 5.618zm34.371 0a5.63 5.63 0 01-5.619-5.618 5.63 5.63 0 015.62-5.62 5.63 5.63 0 015.618 5.62c-.022 3.116-2.524 5.618-5.619 5.618zM60.756 30.69c0 2.744-1.558 5.136-3.82 6.343a7.459 7.459 0 00-6.913-4.675c-3.446 0-6.343 2.349-7.199 5.51H22.851a7.447 7.447 0 00-7.2-5.51c-3.445 0-6.342 2.349-7.198 5.51H4.59a2.28 2.28 0 01-2.283-2.284V32.16a2.295 2.295 0 012.283-2.282h30.157V7.315a3.578 3.578 0 013.578-3.578h15.254c3.95 0 7.177 3.227 7.177 7.177V30.69z" fill="#272525"/><path d="M15.652 36.221a3.616 3.616 0 00-3.6 3.6c0 1.975 1.624 3.6 3.6 3.6 1.975 0 3.6-1.625 3.6-3.6 0-1.998-1.625-3.6-3.6-3.6zm0 5.334c-.966 0-1.734-.79-1.734-1.734 0-.966.79-1.734 1.734-1.734.966 0 1.734.79 1.734 1.734 0 .965-.79 1.734-1.734 1.734zm34.371-5.334a3.616 3.616 0 00-3.6 3.6c0 1.975 1.625 3.6 3.6 3.6s3.6-1.625 3.6-3.6c0-1.998-1.624-3.6-3.6-3.6zm0 5.334c-.966 0-1.734-.79-1.734-1.734 0-.966.79-1.734 1.734-1.734.966 0 1.734.79 1.734 1.734 0 .965-.768 1.734-1.734 1.734zm2.59-31.935h-4.346v-.066H37.864v13.213h14.771a4.876 4.876 0 004.873-4.873V14.47a4.89 4.89 0 00-4.895-4.85zm3.007 8.274a2.997 2.997 0 01-3.007 3.007H39.73V11.42h6.717v.044h6.189a2.998 2.998 0 013.007 3.007v3.424h-.022z" fill="#272525"/></svg>