<svg width="44" height="44" fill="none" xmlns="http://www.w3.org/2000/svg"><path d="M21.993 43.484c-2.796 0-5.064-2.411-5.064-5.385 0-2.973 2.268-5.384 5.064-5.384 2.795 0 5.063 2.411 5.063 5.384 0 2.974-2.268 5.385-5.063 5.385z" stroke="#272525" stroke-miterlimit="10"/><path d="M21.992.685C13.913.685 6.34 4.068.672 10.213a2.435 2.435 0 00-.628 1.674 2.41 2.41 0 00.66 1.65c.419.434.969.668 1.541.668h.022a2.14 2.14 0 001.552-.703C8.641 8.27 15.091 5.38 21.981 5.38c6.88 0 13.33 2.88 18.162 8.123.419.457.98.703 1.574.703.584 0 1.134-.234 1.541-.667.419-.445.66-1.03.66-1.65a2.435 2.435 0 00-.627-1.675C37.645 4.068 30.072.685 21.992.685zm20.254 11.74a.723.723 0 01-1.046-.011c-5.107-5.537-11.932-8.592-19.208-8.592-7.287 0-14.111 3.055-19.207 8.592a.697.697 0 01-.518.234.755.755 0 01-.748-.773c0-.21.077-.41.209-.55 5.383-5.841 12.581-9.06 20.264-9.06s14.882 3.219 20.265 9.06a.796.796 0 01.209.55.807.807 0 01-.22.55z" fill="#272525"/><path d="M36.093 22.587c.583 0 1.123-.235 1.541-.668.87-.901.892-2.4.044-3.324-4.16-4.554-9.73-7.059-15.685-7.059s-11.536 2.505-15.697 7.059c-.847.925-.825 2.423.044 3.324.87.902 2.279.878 3.126-.047 3.314-3.628 7.76-5.63 12.516-5.63 4.755 0 9.202 2.002 12.515 5.63.44.457 1.002.715 1.596.715zM8.41 20.771a.704.704 0 01-1.046.012.828.828 0 01-.011-1.112c3.874-4.25 9.08-6.579 14.64-6.579 5.558 0 10.754 2.341 14.64 6.579.285.304.274.807-.012 1.112a.733.733 0 01-1.045-.012c-3.6-3.933-8.421-6.11-13.583-6.11-5.163.011-9.984 2.177-13.583 6.11zm22.52 11.063c.573 0 1.112-.234 1.53-.655.43-.433.672-1.019.683-1.651a2.405 2.405 0 00-.616-1.674c-2.785-3.09-6.528-4.8-10.545-4.8-4.018 0-7.76 1.71-10.545 4.8a2.446 2.446 0 00-.617 1.674 2.38 2.38 0 00.683 1.65c.418.422.957.656 1.53.656h.055a2.12 2.12 0 001.552-.726c1.937-2.154 4.546-3.348 7.342-3.348 2.796 0 5.404 1.183 7.341 3.348.43.457 1.013.726 1.607.726zM13.583 30.02a.733.733 0 01-.517.245.708.708 0 01-.529-.222.825.825 0 01-.23-.55c0-.21.065-.41.208-.562 2.499-2.786 5.867-4.32 9.478-4.32 3.61 0 6.978 1.534 9.477 4.32a.858.858 0 01.209.562c0 .21-.088.398-.231.55a.723.723 0 01-1.046-.023c-2.223-2.47-5.206-3.828-8.41-3.828-3.203 0-6.197 1.358-8.409 3.828z" fill="#272525"/></svg>