<svg width="31" height="31" fill="none" xmlns="http://www.w3.org/2000/svg"><path d="M16.1 0c.4.1.9.1 1.3.3 3.2.9 5.2 3 5.9 6.2.6 3-.4 5.6-2.7 7.6l-.3.3c.6.2 1.1.4 1.6.7.3.1.6.3.9.5.6.3.8 1 .5 1.6-.3.6-1 .8-1.6.5-1.1-.6-2.3-1.1-3.6-1.3-3-.6-5.8-.2-8.5 1.1-2.5 1.3-4.4 3.2-5.7 5.7-.5 1-.9 2.1-1.1 3.2-.1.7.3 1.3 1 1.4h9.3c.4 0 .7.1 1 .4.6.6.4 1.5-.3 1.9-.1 0-.2.1-.3.1H3.7s-.1 0-.1-.1c-1.1-.2-2-.8-2.6-1.9-.2-.4-.3-.8-.4-1.2v-.9c.2-.6.3-1.2.5-1.8C2.5 20 5.3 16.9 9.4 15c.5-.2.9-.4 1.4-.6v-.1c-.1-.1-.2-.1-.2-.2-2.3-2-3.3-4.6-2.7-7.6.6-3.2 2.7-5.3 5.9-6.2.4-.1.9-.2 1.3-.3h1zM9.9 8c0 3 2.5 5.6 5.5 5.6 3.2 0 5.7-2.5 5.7-5.6 0-3.1-2.5-5.6-5.6-5.6-3.1-.1-5.6 2.5-5.6 5.6z" fill="#fff"/><path d="M20.1 30c-.5-.2-1-.3-1.5-.5-1.9-.9-2.9-2.9-2.6-5.1.3-2 2-3.6 4-3.8.3 0 .5-.1.8-.1h6.3l-.2-.2-1.2-1.2c-.4-.5-.4-1.1 0-1.6.4-.4 1.1-.5 1.6-.1.9.9 1.8 1.7 2.6 2.7.3.3.4.9.5 1.4v.6c-.1.6-.3 1.2-.8 1.6L27.3 26c-.3.3-.6.4-1 .3-.9-.2-1.2-1.3-.6-1.9l1.3-1.3.2-.2h-6.6c-1 0-1.7.5-2.1 1.4-.4.9-.2 1.8.4 2.5.5.5 1.1.8 1.8.8.5 0 .8.3 1 .7.2.4.1.9-.2 1.2-.2.2-.4.3-.6.4-.3.1-.6.1-.8.1z" fill="#fff"/></svg>