<svg width="99" height="99" fill="none" xmlns="http://www.w3.org/2000/svg"><path fill-rule="evenodd" clip-rule="evenodd" d="M82.162 2.64c-7.81 0-14.14 6.33-14.14 14.14 0 7.81 6.33 14.14 14.14 14.14 7.81 0 14.14-6.33 14.14-14.14 0-7.81-6.33-14.14-14.14-14.14zm-72.4 4.98c4.848 0 8.85 3.623 9.444 8.31h47.099C66.746 7.555 73.677.9 82.162.9c8.77 0 15.88 7.11 15.88 15.88 0 8.522-6.713 15.476-15.14 15.863V79.83a9.52 9.52 0 11-1.74-.02V32.629c-8.01-.498-14.412-6.934-14.855-14.96h-47.04a9.519 9.519 0 01-9.505 8.99 9.52 9.52 0 010-19.04zm0 1.74a7.78 7.78 0 100 15.56 7.78 7.78 0 000-15.56zm64.38 79.94a7.78 7.78 0 1115.56 0 7.78 7.78 0 01-15.56 0z" fill="#fff"/></svg>