<svg width="129" height="30" fill="none" xmlns="http://www.w3.org/2000/svg"><path fill-rule="evenodd" clip-rule="evenodd" d="M.564.31A14.79 14.79 0 0115.3 14.25h.023a13.31 13.31 0 0026.62 0h.034a14.76 14.76 0 0129.451-.023h.035a13.31 13.31 0 0026.61 0h.06A15.093 15.093 0 01113.157.538a15.09 15.09 0 0115.085 14.69l-1.739.046a13.352 13.352 0 00-22.66-9.21 13.352 13.352 0 00-4.031 9.21h-.06a15.051 15.051 0 01-29.971-.023h-.059a13.02 13.02 0 00-26.04 0h-.033a15.05 15.05 0 01-30.034 0h-.033v-.295A13.05 13.05 0 00.561 2.05L.564.31z" fill="#fff"/></svg>