<svg width="16" height="12" fill="none" xmlns="http://www.w3.org/2000/svg"><path fill-rule="evenodd" clip-rule="evenodd" d="M.526 3.825C.5 4.433.5 5.148.5 6c0 2.667 0 4 .788 4.86.06.064.12.126.185.185.86.788 2.194.788 4.86.788h3.334c2.666 0 4 0 4.86-.788a2.99 2.99 0 00.185-.185C15.5 10 15.5 8.667 15.5 6c0-.852 0-1.567-.026-2.175L8.971 7.438a2 2 0 01-1.942 0L.526 3.825zM.89 1.746c.032.014.064.03.095.046L8 5.69l7.014-3.897c.031-.017.063-.032.095-.046a2.262 2.262 0 00-.397-.606 2.995 2.995 0 00-.185-.185c-.86-.788-2.194-.788-4.86-.788H6.333c-2.666 0-4 0-4.86.788-.064.059-.126.12-.185.185a2.262 2.262 0 00-.397.606z" fill="#BDBDBD"/></svg>