<svg width="23" height="23" fill="none" xmlns="http://www.w3.org/2000/svg"><path fill-rule="evenodd" clip-rule="evenodd" d="M7.84 5.533h7.594c.803 0 1.478 0 2.014.072.567.076 1.086.245 1.504.663.418.418.587.937.663 1.504.072.537.072 1.21.072 2.014v3.928c0 .803 0 1.477-.072 2.013-.076.568-.245 1.087-.663 1.505-.418.418-.937.586-1.504.663-.537.072-1.21.072-2.014.072H7.84c-.803 0-1.478 0-2.014-.072-.567-.077-1.086-.245-1.504-.663-.418-.418-.587-.937-.663-1.505-.072-.536-.072-1.21-.072-2.013V9.786c0-.803 0-1.477.072-2.014.076-.567.245-1.086.663-1.504.418-.418.937-.587 1.504-.663.536-.072 1.21-.072 2.014-.072zM6.017 7.026c-.408.055-.574.149-.681.256-.107.107-.201.273-.256.682-.058.429-.06 1.006-.06 1.87v3.83c0 .866.002 1.443.06 1.872.055.409.149.575.256.682.107.107.273.2.681.256.43.057 1.007.059 1.872.059h7.496c.865 0 1.442-.002 1.872-.06.408-.054.574-.148.681-.255.107-.107.201-.273.256-.682.058-.43.06-1.006.06-1.871v-3.83c0-.865-.002-1.442-.06-1.871-.055-.41-.149-.575-.256-.682-.107-.107-.273-.201-.681-.256-.43-.058-1.007-.06-1.872-.06H7.89c-.865 0-1.442.002-1.872.06z" fill="#828282"/><path fill-rule="evenodd" clip-rule="evenodd" d="M10.144 12.436L3.924 8.55l.76-1.216 6.22 3.887c.349.218.791.218 1.14 0l6.22-3.887.76 1.216-6.22 3.887a2.51 2.51 0 01-2.66 0zm-1.851 1.362c.23.322.156.77-.167 1l-2.51 1.793a.717.717 0 11-.833-1.167l2.51-1.793a.717.717 0 011 .167zm6.362 0a.717.717 0 011-.167l2.51 1.793a.717.717 0 11-.834 1.167l-2.51-1.793a.717.717 0 01-.166-1z" fill="#828282"/></svg>