<svg width="67" height="41" fill="none" xmlns="http://www.w3.org/2000/svg"><path d="M.5 26.1c.2-.7.3-1.5.5-2.2 2.1-7.9 10.8-12 18.3-8.7l.6.3c.1-.1.2-.2.3-.4l3-4.8c.1-.2.2-.6 0-.9-1-2-2.1-4.1-3.2-6.1-.1-.2-.4-.4-.7-.4-.7-.1-1.4 0-2.1 0-.7 0-1.2-.5-1.2-1.1 0-.6.5-1.1 1.2-1.1h6.5c.7 0 1.2.5 1.2 1.1 0 .6-.5 1.1-1.2 1.1h-1.3c.1.2.1.4.2.5L25 7.9c.2.3.3.5.7.5H43c-.4-.8-.8-1.6-1.2-2.3-.7-1.4-.3-2.1 1.3-2.1h7.3c1.7 0 3.2 1.4 3.3 3 .1 1.7-1.1 3.3-2.8 3.6-.9.1-1.5-.2-1.6-.9-.1-.6.3-1.1 1-1.3.9-.2 1.3-.6 1.2-1.2-.1-.7-.6-1-1.4-1h-5.7c1.5 3 2.9 5.8 4.4 8.7 1.7-.6 3.5-1 5.3-.9 6.4.1 12 5.1 12.8 11.4 0 .2.1.3.1.5v2.8c0 .1-.1.3-.1.4-.9 5.3-3.8 8.9-8.8 10.8-1 .4-2.1.5-3.2.8h-2.5c-.1 0-.3-.1-.4-.1-5.6-.7-10-4.7-11.3-10.2-1.3-5.3.9-10.9 5.5-14 .2-.1.4-.3.5-.4-.7-1.4-1.3-2.7-2-4-.1.2-.2.2-.2.3-2.4 3.9-4.9 7.8-7.3 11.7-.2.4-.1.6.1.8 1 1.5 1.2 3.1.3 4.7-.9 1.6-2.3 2.5-4.1 2.3-1.2-.2-1.7.2-2.2 1.2-.1.2-.3.4-.4.7.3.2.7.3 1 .5.6.4.8.9.6 1.5-.3.6-.9.8-1.5.5-.7-.3-1.3-.6-1.9-1-.9-.5-1.1-1.1-.5-2 .6-.9 1.3-1.9 1.8-2.8-.4-.7-.7-1.3-1-1.9h-2.3c0 .2-.1.3-.1.4-.8 5.7-4.7 10.1-10.2 11.4-.5.1-1.1.2-1.6.3h-2.8c-.1 0-.3-.1-.4-.1-5.4-.7-9.7-4.6-11.1-9.7-.2-.7-.3-1.4-.5-2.1.1-.8.1-1.7.1-2.6zM48 18c-3.9 2.1-7 8.2-4 14.2 2.8 5.6 9.6 7.8 15.1 4.9 5.5-2.9 7.6-9.7 4.6-15.2-3.1-5.7-9.7-6.8-13.6-5 1.3 2.7 2.7 5.3 4 8 .3.6.6 1.2.9 1.9.3.6 0 1.2-.5 1.5-.5.2-1.1.1-1.4-.5l-.3-.6c-1.2-2.4-2.4-4.8-3.6-7.3-.5-.5-.9-1.2-1.2-1.9zm-29.2-.5c-3.4-1.9-8.9-1.7-12.6 2-3.7 3.6-4.4 9.3-1.7 13.8 2.7 4.4 8.1 6.4 13 4.7 4.1-1.4 7.7-6 7.4-9.4H14.1c-1.1 0-1.6-.9-1-1.8.3-.5.7-1.1 1-1.6 1.5-2.7 3.1-5.2 4.7-7.7zm24.1-6.8H26.5c2.2 4.1 4.3 8.2 6.4 12.2.6 0 1.2-.1 1.7 0s.7 0 1-.5c2.3-3.7 4.7-7.5 7-11.2.1-.1.2-.2.3-.5zm-18.2 1.5c-1 1.6-1.9 3-2.8 4.5 3.1 2.4 4.9 5.6 5.3 9.5h2.2c.5-.8 1-1.5 1.4-2.3-1.9-3.7-3.9-7.5-5.9-11.3 0-.1-.1-.2-.2-.4zm.2 14c-.1-2.8-2.3-6.6-4.3-7.6-1.6 2.5-3.1 5-4.7 7.6h9zm8.9 3.4c1 0 1.6-.4 2-1.1.4-.6.4-1.3 0-2.1-.7 1.1-1.3 2.1-2 3.2zm.1-4.5c-.8 0-1.4.3-1.9 1.1 1.3.1 1.4.1 1.9-1.1z" fill="#5B5757"/></svg>