<svg width="39" height="36" fill="none" xmlns="http://www.w3.org/2000/svg"><path d="M35.8 6.6H27V1.3c0-.7-.6-1.3-1.5-1.3H13c-.9 0-1.6.6-1.6 1.3v5.4H2.6C1.2 6.6 0 7.8 0 9.3V21c0 1.4 1.1 2.5 2.5 2.6V33c0 1.4 1.1 2.6 2.3 2.6h28.8c1.3 0 2.3-1.2 2.3-2.6v-9.4c1.4-.1 2.5-1.2 2.5-2.6V9.3c0-1.5-1.2-2.7-2.6-2.7zM13 1.3h12.7v6.4s-.1.1-.3.1c-.1 0-.2 0-.3-.1V2.9c0-.4-.3-.7-.7-.7H13.9c-.4 0-.7.3-.7.7v4.9s-.1.1-.3.1c-.1 0-.2 0-.3-.1V1.3h.4zm10.9 2.2v3.1h-9.4V3.5h9.4zm10.8 29.6c0 .7-.5 1.3-1 1.3H4.8c-.6 0-1-.6-1-1.3v-9.4H14v1.2c0 1.4 1.2 2.6 2.6 2.6h4.7c1.4 0 2.6-1.2 2.6-2.6v-1.2h10.7v9.4h.1zm-19.4-8.2v-3.7c0-.7.6-1.3 1.3-1.3h4.7c.7 0 1.3.6 1.3 1.3v3.7c0 .7-.6 1.3-1.3 1.3h-4.7c-.7 0-1.3-.6-1.3-1.3zm22-3.9c0 .7-.8 1.3-1.5 1.3H23.9v-1.2c0-1.4-1.2-2.6-2.6-2.6h-4.7c-1.4 0-2.6 1.2-2.6 2.6v1.2H2.6c-.7 0-1.3-.6-1.3-1.3V9.3c0-.7.6-1.3 1.3-1.3h8.8c0 .7.7 1.2 1.6 1.2.9 0 1.5-.5 1.6-1.2H24c0 .7.7 1.2 1.6 1.2.9 0 1.5-.5 1.6-1.2H36c.7 0 1.3.6 1.3 1.3V21z" fill="#5B5757"/></svg>