<svg width="30" height="54" fill="none" xmlns="http://www.w3.org/2000/svg"><path d="M3.2 26.6c0 1.6.1 3 .6 5.1.9 3.6 3 8.5 3.8 10.2-.3.5-.5 1-.5 1.5 0 .7.3 1.4.7 1.9-.4.5-.7 1.1-.7 1.8 0 .8.3 1.5.9 2-.4.5-.6 1.1-.6 1.7 0 1.6 1.4 2.9 3.1 2.9l11.2.1c.9 0 1.7-.3 2.3-.9.5-.5.8-1.2.9-2 0-.8-.3-1.5-.9-2 .4-.5.6-1.1.6-1.7 0-.7-.3-1.4-.7-1.9.4-.5.7-1.1.7-1.8s-.3-1.3-.7-1.9c.8-1.7 2.9-6.6 3.8-10.1.5-2.1.6-3.5.6-5.1 0-6.9-5.6-12.5-12.5-12.5-7 .2-12.6 5.8-12.6 12.7zm19.4 25c-.2.2-.6.4-1 .4l-11.2-.1c-.7 0-1.2-.5-1.2-1 0-.4.3-.8.8-.9.4-.1.7-.5.7-1 0-.4-.3-.8-.8-.9-.6-.1-1-.5-1-1 0-.4.3-.8.8-.9.4-.1.7-.5.7-.9s-.3-.8-.7-.9c-.5-.2-.8-.5-.8-1 0-.2.1-.3.1-.4h13.3c.2.2.3.4.3.6 0 .4-.3.8-.8.9-.4.1-.7.5-.7.9s.3.8.7.9c.5.2.8.5.8 1 0 .4-.3.8-.8.9-.4.1-.7.5-.7 1 0 .4.3.8.8.9.6.1 1 .5 1 1 0 .2-.2.4-.3.5zm-6.9-35.7c5.8 0 10.6 4.8 10.6 10.6 0 1.5-.1 2.7-.5 4.6-.8 3.4-3 8.3-3.7 9.9H9.3c-.7-1.6-2.8-6.5-3.7-9.9-.5-1.9-.5-3.2-.5-4.6 0-5.8 4.7-10.6 10.6-10.6zM2.6 4.8c-.2-.2-.4-.4-.7-.4-.3 0-.6 0-.8.2-.2.2-.4.4-.4.7 0 .3 0 .6.2.8l5.6 7.2c.2.3.5.4.9.4.2 0 .5-.1.6-.2.2-.2.4-.4.4-.7 0-.3 0-.6-.2-.8L2.6 4.8zm4.9 7.9c-.1 0-.1.1 0 0h-.2L1.7 5.5v-.1s0-.1.1-.1h.1s.1 0 .1.1l5.6 7.2v.1c-.1-.1-.1 0-.1 0zm15.5.7c.2.1.4.2.6.2.4 0 .7-.2.9-.5l4.7-7c.2-.2.2-.5.2-.8-.1-.3-.2-.5-.5-.7-.2-.2-.5-.2-.8-.2-.3.1-.5.2-.7.5l-4.7 7c-.2.2-.2.5-.2.8.1.3.3.6.5.7zm.5-1l4.7-7 .1-.1h.1l.1.1v.1l-4.7 7c0 .1-.1.1-.1.1h-.1l-.1-.1v-.1zm-8-.6c.7 0 1.1-.5 1.1-1.1l.4-9.3c0-.3-.1-.6-.3-.8-.2-.2-.5-.3-.8-.4-.3 0-.6.1-.8.3-.2.2-.3.5-.4.8l-.4 9.3c0 .3.1.6.3.8.3.3.6.4.9.4zm-.1-1.1l.4-9.3c0-.1 0-.1.1-.1h.1c.1 0 .1 0 .1.1v.1l-.4 9.3c0 .1-.1.1-.2.2-.1 0-.1 0-.1-.1s-.1-.1 0-.2z" fill="#5B5757"/><path d="M9 24.8c.6 0 1.1-.4 1.1-1 0-.3.1-.5.1-.8.4-1.7 1.8-2.4 2.9-2.6.5-.1.9-.1.9-.1.6 0 1-.5 1-1.1 0-.6-.5-1-1.1-1-1.9 0-5.7 1.2-6 5.5.1.6.5 1 1.1 1.1z" fill="#5B5757"/></svg>