<svg width="68" height="40" fill="none" xmlns="http://www.w3.org/2000/svg"><path d="M66.3 13.9h-6.7c-.6 0-1.1.5-1.1 1.1v4.2H9.3v-4.5c0-.6-.5-1.1-1.1-1.1H1.5c-.6 0-1.1.5-1.1 1.1v23.9c0 .6.5 1.1 1.1 1.1h6.7c.6 0 1.1-.5 1.1-1.1v-6.4h49.2v6.4c0 .6.5 1.1 1.1 1.1h6.7c.6 0 1.1-.5 1.1-1.1V15c0-.7-.5-1.1-1.1-1.1zm-5.6 23.6V16.1h4.5v21.4h-4.5zm-58.2 0V15.7H7v21.7H2.5v.1zm6.8-16.2h49.2V30H9.3v-8.7z" fill="#5B5757"/><path class="diff" d="M51.9 1.9H15.8c-3.6 0-6.6 2.9-6.6 6.6v11.3h49.2V8.5c.1-3.7-2.9-6.6-6.5-6.6z" stroke="#5B5757" stroke-width="2.237" stroke-miterlimit="10"/></svg>