<svg width="42" height="41" fill="none" xmlns="http://www.w3.org/2000/svg"><path d="M25.4.8h-9.7C12.5.8 10 3.4 10 6.5v3C4.6 10 .4 14.5.4 20v10.3c0 5.8 4.7 10.5 10.5 10.5h19.7c1.8 0 3.6-.5 5.1-1.3h.1c3.2-1.8 5.4-5.2 5.4-9.2V20c0-5.6-4.5-10.3-10-10.5v-3c0-3.1-2.6-5.7-5.8-5.7zm13.5 29.5c0 2.3-1 4.4-2.5 5.9V14.1c1.5 1.5 2.5 3.6 2.5 5.9v10.3zM2.8 20c0-2.4 1-4.5 2.6-6v22.3c-1.6-1.5-2.6-3.6-2.6-6V20zM25.4 3.1c1.9 0 3.4 1.5 3.4 3.4v2.9h-2.5V7.8c0-1.9-1.5-3.4-3.4-3.4h-4.7c-1.9 0-3.4 1.5-3.4 3.4v1.6h-2.5V6.5c0-1.9 1.5-3.4 3.4-3.4h9.7zm8.6 9.4v25.2c-.9.4-1.9.6-3 .7V11.8c1.1.1 2.1.3 3 .7zM13 38.4V11.8h15.7v26.6H13zm-5.3-.6V12.5c.9-.4 1.9-.6 3-.7v26.6c-1 0-2-.2-3-.6zM24 9.5h-6.8V7.9c0-.6.5-1.1 1.1-1.1H23c.6 0 1.1.5 1.1 1.1v1.6H24z" fill="#E7555A"/></svg>