<svg width="58" height="50" fill="none" xmlns="http://www.w3.org/2000/svg"><path d="M.8 38.5c1.2-2.3 2.9-4 5.4-5 5.2-2.1 11.1.6 13 5.8.1.2.1.3.2.5h2.4c.7 0 1.1.3 1.1.8s-.4.8-1.1.8H9.7c-.6.1-1.2.6-1.2 1.2-.1.6.3 1.2.9 1.4.3.1.5.1.8.1h6.6c.3 0 .7.1 1 .1 1.8.5 3.7 1.1 5.5 1.7.3.1.6.1 1 .1h11.9c.7 0 1.2-.2 1.6-.8.8-1.1 1.7-2.2 2.5-3.3.1-.1.2-.3.4-.6H25.8c-.4-.1-.7-.4-.7-.8s.3-.7.7-.8H34c.3 0 .6-.1.8-.3 3.1-3.1 6.2-6.2 9.4-9.3.4-.4.6-.8.4-1.4-.1-.5-.2-1.1-.3-1.6-.1-.5-.1-1 .3-1.4.1-.1.1-.3 0-.5-.1-.9-.3-1.7-.5-2.6v-.3c0-.5.2-.9.7-1 .5-.1.9.2 1 .7.2.9.3 1.8.5 2.6 0 .1.1.2.1.4.4-.1.9-.1 1.4-.2-.1-.9-.3-1.7-.4-2.5-.9-5-1.8-10-2.6-14.9-.1-.5 0-.9 0-1.5-.6.2-1.1.4-1.6.6.2 1.4.5 2.8.7 4.2.4 2.4.8 4.7 1.3 7.1v.2c.1.6-.1 1.1-.6 1.1-.5.1-.9-.2-1-.9l-.6-3.3c-.5-2.6-.9-5.1-1.4-7.8-.7.3-1.4.5-2.1.7-.5.1-1 .2-1.4.1-1.1-.2-1.8-1.1-1.9-2.1-.1-1 .5-2 1.5-2.4 1.8-.7 3.6-1.3 5.4-2 .7-.3 1.4-.5 2.2-.8 1.1-.4 2 0 2.4 1.1.1.4.3.8.4 1.2.3.8-.1 1.7-.9 2-.5.2-.6.6-.7 1-.3 1 .1 2 .2 3l2.7 15.3c0 .2.1.4.2.4.4.3.6.6.7 1.1.6 3.3 1.2 6.5 1.7 9.8.1.4.2.6.6.7 2.4.9 3.8 2.7 4.4 5.2 0 .1.1.3.1.4v1.6c0 .1-.1.3-.1.4-.7 3.6-4.3 6.2-7.9 5.4-2.8-.6-4.7-2.2-5.4-5-.7-2.7.1-5.1 2.2-7 .1-.1.3-.3.3-.4-.1-.6-.2-1.1-.3-1.7-1.5 1.5-3 3-4.4 4.5 1.2 1 1.3 1.8.3 3.1-.8 1.1-1.7 2.2-2.5 3.3-.7 1-1.6 1.4-2.8 1.4H24.9c-.7 0-1.5-.1-2.2-.3-1.6-.4-3.1-1-4.7-1.4-.5-.1-1-.2-1.4-.2-.2 0-.5.2-.6.3-1.3 2.2-3.2 3.3-5.8 3.4-4 .2-7.4-3.5-7-7.5 0-.2-.1-.5-.3-.7-.6-.7-1.3-1.4-2-2.2-.1.2-.1-.1-.1-.3zm36 1.3h1.5c.5 0 .8-.1 1.1-.5 1.8-1.8 3.6-3.6 5.3-5.4.4-.4 1-.6 1.6-.4.6.2.9.6 1 1.2.2 1.2.4 2.4.6 3.7.3 1.5.5 3.1.9 4.6.2.8.9 1.2 1.6 1.1.8-.2 1.2-.8 1-1.7-.7-4.1-1.5-8.2-2.2-12.3-.2-1.2-.4-2.5-.7-3.7-.9.2-1.8.3-2.7.5.1.6.2 1.1.3 1.6.3 1.1-.1 2.1-.9 2.9-2.7 2.6-5.3 5.3-8 7.9-.1.1-.2.3-.4.5zm-22.9 0c-1-1.7-3.5-2.6-5.6-2-2.2.6-3.8 2.8-3.7 5.2.1 2.4 1.9 4.5 4.3 4.9 2 .4 4.4-.6 5-2H10c-1.8 0-3.1-1.3-3.1-3s1.3-3 3.1-3c1.2-.1 2.5-.1 3.9-.1zm38.4-1.6v.1c.2 1.3.4 2.6.7 3.8.3 1.6-.5 3.1-2 3.5-1.8.6-3.6-.6-3.9-2.6-.2-1.2-.4-2.5-.7-3.7-1.4 1.2-1.9 3.7-1.1 5.5.9 2.2 3.1 3.4 5.5 3.1 2.2-.3 4-2.1 4.4-4.4.3-2.1-.9-4.4-2.9-5.3zM3.5 39.8c.5-.6.9-1.3 1.5-1.9 3.2-3.1 8.4-2.4 10.6 1.4.1.2.3.4.4.4.5.1.9 0 1.4 0-.9-3-4.1-5.2-7.5-5.3-3.1-.1-6.5 1.9-7.5 4.3l1.1 1.1zM45.8 2.3h-.2c-2.4.9-4.9 1.8-7.3 2.7-.5.2-.7.5-.6 1 .1.5.6.6 1.1.4 1.4-.5 2.7-1 4.1-1.5 1.1-.4 2.2-.8 3.4-1.2-.2-.6-.3-1-.5-1.4z" fill="#5B5757"/></svg>