<svg width="36" height="38" fill="none" xmlns="http://www.w3.org/2000/svg"><path d="M18.4.3c-5.8 0-15.1.8-16.7 3.6h-.2v.3C-.4 5 .4 10.5.9 11.7c.2.4.4.7.6 1v20.2c0 3.5 10.7 4.4 17 4.4 6.3 0 17-.9 17-4.4v-29h-.2C33.6 1.1 24.2.3 18.4.3zm0 1.7c9.5 0 15.1 1.8 15.3 2.7-.2.8-4.4 2.3-11.9 2.6-6.4.2-12.9-.5-18.5-2.9C4.2 3.5 9.6 2 18.4 2zm0 33.6c-9.5 0-15.1-1.8-15.3-2.7V13.8c.9.4 1.9.5 2.8.4 2.3-.2 3.5-2.1 4.9-3.7 1 3.6 2.8 8.6 7.2 7.7 1.2-.3 2.2-1 3.2-1.5 2.4-1.2 2.1.6 2.2 2.4.1 2.2.4 4.4 1.5 6.3 1.8 2.9 5.9 3.1 7.4-.1.7-1.5 1-3.1 1.2-4.8v12.4c0 .9-5.5 2.7-15.1 2.7zM32 21.8c-.3 1.6-.6 3.6-2.5 4.2-1.4.5-2.8-.5-3.5-1.7-1-1.8-1.1-4.1-1.2-6.1-.1-2 0-4.1-2.6-3.6-2.6.5-4.6 3.8-7.4 1.3-1.8-1.6-2.4-4.8-3-7-.1-.5-.8-.7-1.2-.3-2.1 1.9-5.3 6.8-8.2 2.9-.4-.5-1.1-6.2-.5-6.1 9.6 4.2 21.5 3.7 31.8 2.2-.5 4.7-.7 9.6-1.7 14.2z" fill="#5B5757"/></svg>