<svg width="67" height="36" fill="none" xmlns="http://www.w3.org/2000/svg"><path d="M66.1 24.4v2.2c0 .1-.1.3-.1.4-.7 4.4-4.4 7.9-8.8 8.3-4.8.4-9.2-2.7-10.3-7.4-1.2-4.7 1.2-9.5 5.7-11.4l.6-.3c-.2-.7-.3-1.4-.5-2.2-1.7 1.1-3.4 2.2-5 3.3-.2.1-.3.4-.4.6-1.3 3.1-2.6 6.1-3.8 9.2-1.1 2.6-2.8 3.8-5.7 3.8h-14c-1-.1-1.5-.8-1-1.7l1.2-2.1c.1-.1.1-.3.2-.5h-3.8c-.1.3-.1.5-.1.7-.9 4.1-3.4 6.7-7.5 7.8-.7.2-1.3.2-2 .3h-.3c-.2 0-.4-.1-.6-.1-4.2-.3-7.8-3.3-8.8-7.4-.1-.4-.2-.9-.3-1.4v-2.2c0-.1.1-.2.1-.4.6-3.7 2.7-6.3 6.1-7.7 1.3-.5 2.7-.6 4.1-.9.1-.6.2-1.5.4-2.3l-.6-.3-9-3.6c-.4-.2-.8-.5-1.2-.8v-.8c.3-.5.8-.7 1.4-.8 1-.2 1.9-.3 2.9-.6 1.4-.3 2.7-.5 4.1-.2.7.2 1.5.2 2.2.3 2.5.3 5 .5 7.4 1.3 2.7.9 5.5 1.1 8.3.8.9-.1 1.5-.4 1.7-1.3.3-1.5 1.3-2.3 2.8-2.6 1.9-.4 3.8-.8 5.7-1.3 1.1-.3 2.3-.6 3.5-.4 1.2.3 2.4.7 3.5 1.2 1.6.7 3.1 1.5 4.7 2.3.5.2.9.2 1.3-.2.4-.3.7-.7.5-1.2-.2-.5-.3-1.1-.4-1.7-.1-.5-.3-.7-.8-.7-.9.1-1.9 0-2.8 0V.2h4.5c.5 0 .8.4.9.9.2 1 .5 2 .7 3 .1.4.2.6.6.6 1.7.3 3.5.6 5.2.9.9.2 1.3.8 1 1.6-.7 1.8-1.4 3.5-2.1 5.3-.2.5-.6.8-1.2.8h-1.4l.3 1.5c.1.6.3.8.9.8 4.3 0 7.4 1.9 9.3 5.7.2 1 .4 2.1.7 3.1zM5.6 8.4c.2.1.3.2.5.2 5.7 2.2 11.2 4.7 16.7 7.3.8.4 1.5.8 2.1 1.4 2.7 2.4 3.3 6.2 1.6 9.4-.4.7-.7 1.3-1.1 2.1h12.3c1.9 0 2.9-.6 3.6-2.4 1.2-2.9 2.4-5.7 3.6-8.6.4-1.1 1-2.1 2.1-2.6.1 0 .1-.1.2-.2-.1-.1-.2-.1-.2-.1-2.7-.8-5.1-2.1-7.5-3.5-1.9-1.2-4-1.1-6 0-.7.4-1.3.8-2 1.2-3.8 2.1-7.8 2.5-11.9 1-2.4-.8-4.4-2.3-6.1-4.2-.4-.5-.9-.6-1.4-.7-1.3-.1-2.5-.3-3.7-.5-1.1-.2-1.9-.1-2.8.2zm47.9 10c-3.5 1.1-5.7 5.4-4.5 9.3 1.2 4 5.5 6.3 9.5 5.1 4-1.2 6.3-5.5 5.1-9.5-1-3.4-5-6.2-7.9-5.3.2.7-1.7 1.8-2.1.8 0-.1-.1-.3-.1-.4zM51.2 8c-1.4.9-2.7.6-4-.1-2.1-1-4.1-2.3-6.3-2.8-.6-.1-1.2-.3-1.8-.1-2.5.5-4.9 1.1-7.4 1.6-.5.1-.8.4-1 .9-.1.4-.2.8-.4 1.2.4.3.8.6 1.2.8.2.1.5.1.7 0 3-1.7 6-1.6 8.9.3 2 1.2 4 2.2 6.2 2.9.8.2 1.5.7 2.2.6.7-.1 1.3-.8 2-1.2.1-.1.2-.1.3-.2.1-.1.2-.3.1-.4-.2-1.2-.5-2.3-.7-3.5zM17.9 24.4c-.4-2.9-2.5-5.4-5.2-6.1-.1.7-2.3.2-2.2-.3-3-.3-7.4 2.1-7.8 7.1-.3 4.3 3 8 7.3 8.2 3.9.2 7.8-3 7.8-6.5.1-.9.1-.9.1-2.4zm2.3 0h4.5c.2 0 .4-.3.5-.4.5-2.4-.8-4.8-3.2-5.9-2.4-1.1-4.9-2.3-7.4-3.4-.4-.2-.8-.3-1.2-.5-.1.7-.2 1.3-.3 2 4 1.2 6.3 4 7.1 8.2zm9.4-13.7c-.4-.1-.9-.4-1.3-.3-3.4.6-6.7.4-10.1-.5-.4-.1-.8-.2-1.4-.4 3 2.9 9.4 3.5 12.8 1.2zm23.6-3.5c.3 1.3.6 2.5.8 3.7 0 .2.2.4.3.4.4 0 1 0 1.1-.2.5-1 .9-2.2 1.4-3.3-1.1-.2-2.3-.4-3.6-.6z" fill="#5B5757"/></svg>