<svg width="68" height="27" fill="none" xmlns="http://www.w3.org/2000/svg"><path d="M0 10.3v.8l.3.6c1.4 4.5 2.8 9 4.2 13.6.3 1 .6 1.2 1.6 1.2h35.7c6.5 0 12.7-1.4 18.2-5.1 3.4-2.2 6-5.1 7.3-9 .3-.9.5-1.9.7-2.8V8c-.4-.7-1-.9-1.8-.7h-.4L51.4 8.8c-.4 0-.6 0-.9-.4-1.6-2.3-3.3-4.5-4.8-6.8C45 .6 44.3.2 43.2.4h-.4c-5.4.3-10.8.5-16.2.8-2 .1-3.9.2-5.9.3-1.4.1-1.8.9-1 2.1l1.2 1.8c.5.6.7 1.3.6 2.1-.1 1.5 0 3 0 4.5-1.9.2-3.7.4-5.7.6V10c0-.1.3-.3.4-.3l1.8-.3c.8-.1 1.2-.6 1.2-1.3-.1-.7-.7-1.1-1.5-1-5.4.7-10.9 1.5-16.3 2.2-.6.3-1 .5-1.4 1zm63.9 4v.2c-.1.1-.1.2-.2.3-1.8 2.7-4.3 4.7-7.2 6.1-4.7 2.4-9.7 3.3-14.9 3.3H6.7c-.1 0-.3-.1-.3-.2-.3-1.1-.7-2.1-1-3.3 19.6-2.1 39-4.2 58.5-6.4zm-59.8 2c20.6-2.2 41.1-4.4 61.6-6.6-.1.6-.3 1.1-.4 1.6-.1.5-.3.7-.8.7s-1 .1-1.5.2l-13.8 1.5c-4.6.5-9.1 1-13.7 1.5l-13.8 1.5c-4.2.5-8.4.9-12.6 1.4-1.4.2-2.8.3-4.3.5-.3-.8-.5-1.5-.7-2.3zm19.7-4.4v-.7c0-1.2-.1-2.5 0-3.7.1-1.2-.1-2.2-.9-3.1-.1-.2-.2-.3-.4-.6 3.6-.2 7-.3 10.5-.5.4 2.5.7 5 1.1 7.5-3.5.4-6.9.7-10.3 1.1zm11.4-8.7c.1 0 .2-.1.2-.1 2.6-.1 5.2-.3 7.8-.4.2 0 .5.2.6.3.8 1 1.5 2 2.2 3.1.7 1 1.4 2 2.2 3-4.1.4-8 .9-12 1.3-.3-2.3-.6-4.7-1-7.2zM9.1 10.8l4.5-.6V13c-1.5.2-3 .3-4.5.5v-2.7zm-2.4.3v2.6c-1.1.1-2.2.2-3.4.4-.3-.8-.5-1.6-.8-2.4 1.5-.2 2.9-.4 4.2-.6z" fill="#5B5757"/></svg>