<svg width="42" height="45" fill="none" xmlns="http://www.w3.org/2000/svg"><path d="M7.2 35.8h7v3.6H7.9c-.5 0-1 .4-1 1v3.4c0 .5.4 1 1 1h25.8c.5 0 1-.4 1-1v-3.4c0-.5-.4-1-1-1h-6.3v-3.6h7c3.8 0 6.9-3.1 6.9-6.9V7.7c0-3.8-3.1-6.9-6.9-6.9H7.2C3.4.8.3 3.9.3 7.7v21.2c0 3.8 3.1 6.9 6.9 6.9zM2.3 7.7c0-2.7 2.2-5 5-5h27.2c2.7 0 5 2.2 5 5v21.2c0 2.7-2.2 5-5 5H7.3c-2.7 0-5-2.2-5-5V7.7zm30.4 35.1H8.9v-1.5h23.8v1.5zm-16.6-3.4v-3.6h9.3v3.6h-9.3z" fill="#5B5757"/><path d="M7 19.6v3.7c0 3.8 3.1 6.9 6.9 6.9h13.9c3.8 0 6.9-3.1 6.9-6.9v-3.6c.2-.1.4-.4.4-.7 0-.3-.2-.5-.4-.7v-5.1c0-3.8-3.1-6.9-6.9-6.9H13.9C10.1 6.3 7 9.4 7 13.2v5.1c-.2.1-.3.4-.3.6 0 .4.1.6.3.7zm6.9-11.3h13.9c2.7 0 5 2.2 5 5v4.9H29l-1.3-4.5c-.1-.3-.4-.6-.7-.6-.3 0-.6.2-.8.5l-2.4 7-2.5-9.2c-.1-.3-.3-.5-.6-.6-.3 0-.6.1-.8.4l-4.2 7H8.8v-4.9c.1-2.7 2.3-5 5.1-5zm13.9 19.9H13.9c-2.7 0-5-2.2-5-5v-3.5h7.3c.3 0 .5-.1.7-.4l3.5-5.8 2.7 9.9c.1.3.4.6.7.6.3 0 .6-.2.7-.5l2.4-7.1.8 2.7c.1.3.4.6.7.6h4.3v3.5c0 2.8-2.2 5-4.9 5zm6.5-8.8h-5.8c-.2 0-.3-.1-.4-.3L27 15.2l-2.8 8.2c-.1.2-.2.3-.4.3v.2-.2c-.2 0-.3-.1-.4-.3l-2.9-10.8-3.9 6.5c-.1.1-.2.2-.3.2H7.6c-.2 0-.4-.2-.4-.4s.2-.4.4-.4h8.5l4.3-7.1c.1-.1.2-.2.4-.2s.3.1.3.3l2.8 10.4 2.8-8.2c.1-.2.2-.3.4-.3s.3.1.4.3l1.4 4.8h5.5c.2 0 .4.2.4.4s-.3.5-.5.5z" fill="#5B5757"/></svg>