<svg width="45" height="51" fill="none" xmlns="http://www.w3.org/2000/svg"><path d="M27.6 31.4l15.6 8.1c.4.2 1 .1 1.3-.2.3-.4.4-.9.1-1.4L41 32.6c.1-.1.2-.2.2-.4l.8-1.5c.3-.5.3-1.2.2-1.8-.2-.6-.6-1.1-1.1-1.3-.5-.3-1.2-.3-1.8-.2-.5.2-.9.5-1.2.9l-1.6-2.4.6-1.2c.3-.5.3-1.2.2-1.8-.2-.6-.6-1.1-1.1-1.3-.5-.3-1.2-.3-1.8-.2-.3.1-.5.2-.7.4l-.5-.7c4.2-8.7 7-18.6 3.9-20.2C34-.7 27 7.2 22.2 15.7H21c0-.3 0-.7-.1-1-.2-.6-.6-1.1-1.1-1.4-.5-.3-1.2-.3-1.8-.2-.6.2-1.1.6-1.3 1.1l-.7 1.4h-2.8c.5-1.1.1-2.4-1-3-.5-.3-1.2-.3-1.8-.2-.6.2-1.1.6-1.3 1.1L8.3 15c-.1.2-.2.4-.2.6l-6.1.1c-.5 0-.9.4-1.1.8-.1.5.1 1 .6 1.2l15.6 8.1c-1.4 3.5-2 6.8-2.4 9.5-.2.9-.3 1.8-.5 2.6L6 40.5c-.5.2-.9.7-.8 1.2.1.5.6.9 1.1.9.1 0 7.8-.3 14.1 7.4.2.3.5.4.9.4.2 0 .4 0 .5-.1.5-.3.7-.8.5-1.3l-2.6-8.2c.3-.3.6-.6.9-1 2-1.8 4.7-4.7 7-8.4zM11.1 41.5l4.2-1.3c.4-.1.6-.4.7-.8.2-1 .4-2.2.6-3.4.5-3 1.1-6.4 2.7-9.9.2-.5 0-1.2-.5-1.4L6.2 18.1h2.4c.1.1.3.2.4.3.3.2.7.3 1.1.3.2 0 .5 0 .7-.1.3-.1.6-.3.9-.5h4.1c.2.4.5.8 1 1 .3.2.7.3 1.1.3.2 0 .5 0 .7-.1.6-.2 1.1-.6 1.3-1.1v-.1h2.9c.4 0 .8-.2 1-.6C29 7.9 34.6 3.2 36 3.1c.6 1.1 0 7.6-5.1 17.9-.2.4-.1.8.1 1.1l1.4 2-.1.2c-.3.5-.3 1.2-.2 1.8.2.6.6 1.1 1.1 1.4.3.2.7.3 1.1.3.2 0 .3 0 .5-.1l2.2 3.2c-.1.4-.1.8 0 1.2.2.6.6 1.1 1.1 1.3.2.1.5.2.8.2l1.4 2.1-12.6-6.6c-.5-.3-1.2-.1-1.5.4-2.3 3.9-5 6.9-7.3 9.3-.5.5-.9 1-1.3 1.5-.3.3-.3.7-.2 1.1l1.4 4.4c-2.7-2.4-5.4-3.6-7.7-4.3zM9.7 16.1l.8-1.5c.1-.2.3-.3.5-.3.1 0 .2 0 .2.1.3.1.4.5.2.7l-.8 1.5-.3.3h-.4l-.3-.3c.1-.2.1-.3.1-.5zm8.5-.9c.1-.2.3-.3.5-.3.1 0 .2 0 .2.1l.3.3v.4l-.8 1.5-.3.3h-.4c-.3-.1-.4-.5-.2-.7l.7-1.6zm16.7 8h.2c.1 0 .2 0 .2.1l.3.3v.4l-.8 1.5c-.1.3-.5.4-.7.2-.3-.1-.4-.5-.2-.7l.8-1.5c-.1-.1 0-.2.2-.3zm3.8 7.7l.8-1.5.3-.3h.4l.3.3v.4l-.8 1.5-.3.3H39l-.3-.3c-.1-.1-.1-.2 0-.4z" fill="#5B5757"/></svg>