<svg width="54" height="52" fill="none" xmlns="http://www.w3.org/2000/svg"><path d="M9.8 15.7c0-.2-.2-.3-.4-.3-.3 0-.6.1-.8.1-.3 0-.4.1-.4.1-.2 0-.3.2-.3.4s.2.3.4.3h.1s.4-.1 1.2-.2c.1 0 .2-.2.2-.4zm33.7 17.6c-.1.1-.3.2-.4.4-.2.1-.2.4-.1.5.1.1.2.1.3.1.1 0 .1 0 .2-.1.2-.1.3-.3.5-.4.5-.4 1-.9 1.4-1.4.1-.2.1-.4 0-.5-.2-.1-.4-.1-.5 0l-.9.9-.5.5zM23.3 20.4c.1.1.2.1.3.1.1 0 .2 0 .3-.1.1-.1.1-.4 0-.5-.3-.3-.5-.5-.8-.7-.2-.1-.3-.3-.5-.4-.2-.2-.5-.4-.7-.6-.2-.1-.4-.1-.5.1-.1.2-.1.4.1.5l1.2.9c.2.1.3.3.5.5 0 0 .1.1.1.2zm2.9 4.1c.1.1.2.2.3.2h.2c.2-.1.3-.3.2-.5l-.9-1.5c-.2-.2-.3-.5-.5-.7-.1-.1-.3-.2-.5-.1s-.2.3-.1.5l.6.9c.2.3.3.6.5.9.1 0 .1.1.2.3zm5.4 8.8h.2c.1 0 .2 0 .3-.1.1-.1.1-.4 0-.5l-.4-.4c-.2-.2-.3-.4-.5-.6-.2-.3-.5-.6-.7-.9-.1-.2-.4-.2-.5-.1-.2.1-.2.4-.1.5.4.6.9 1.1 1.3 1.6l.4.4c-.1.1 0 .1 0 .1zm-2.9-4h.2c.2-.1.2-.3.1-.5-.1-.1-.1-.3-.2-.4-.2-.3-.3-.6-.5-1-.1-.3-.3-.6-.4-.9-.1-.2-.3-.3-.5-.2-.2.1-.3.3-.2.5.3.8.7 1.5 1.1 2.2 0 0 0 .1.1.1 0 .1.2.2.3.2zM14.5 16.2c.2 0 .4-.1.4-.3 0-.2-.1-.4-.3-.4-.3 0-.7-.1-1-.1H12c-.2 0-.4.2-.4.4s.2.4.4.4h1.6c.3-.1.6-.1.9 0zm32 14.2c.1 0 .1.1.2.1h.1c.1 0 .1-.1.2-.1.2-.3.4-.7.7-1.1.1-.2 0-.4-.1-.5-.2-.1-.4 0-.5.1-.1.1-.1.2-.2.3-.1.2-.3.5-.4.7-.2.2-.2.4 0 .5z" fill="#5B5757"/><path d="M16.4 1c-.2-.1-.5-.1-.7 0L1.3 8.5c-.2.1-.4.4-.4.7v41.3c0 .3.1.5.4.6.1.1.3.1.4.1.1 0 .2 0 .3-.1l14.4-7.5c.2-.1.4-.4.4-.7V16.5c0 .1.1.1.2.2.8.2 1.5.5 2.2.8v26.1c0 .3.2.5.4.7L34 51.8c.1.1.2.1.3.1.1 0 .3 0 .4-.1.2-.1.4-.4.4-.6V35.8c.3.1.7.3 1 .3h.1c.2 0 .3-.1.4-.3.1-.2-.1-.4-.3-.5-.4-.1-.8-.2-1.2-.4V9.8c0-.3-.2-.5-.4-.7L20.3 1.6c-.2-.1-.5-.1-.7 0-.2.1-.4.4-.4.6v14.4c-.7-.3-1.3-.5-2-.7-.2 0-.3 0-.4.2V1.6c-.1-.2-.2-.5-.4-.6zm-1.2 41.5l-1.7.9-.5.3-2.4 1.3-.5.3-2.3 1.2-.3.2L5 48l-.3.1-2.4 1.2V9.7l5-2.6.2-.1 7.7-4v39.5zm5.5-39l1.9 1 .5.3 2.4 1.3.5.3 2.3 1.2.5.3 4.7 2.5v24.1l-.1.1c-.1.2-.1.4.1.5V50l-1.9-1-.5-.3-2.3-1.2-.5-.3L26 46l-.5-.3-2.4-1.3-.5-.3-1.9-1V3.5zm16.6 5.6v41.3c0 .3.1.5.4.6.1.1.3.1.4.1.1 0 .2 0 .3-.1l8.2-4.3.2-.1 2.5-1.3.4-.2 3-1.6c.2-.1.4-.4.4-.7V1.5c0-.3-.1-.5-.4-.6-.2-.1-.5-.1-.7 0L37.6 8.4c-.1.2-.3.4-.3.7zm14.4 33.4l-1.9 1-.5.3-2.4 1.3-.5.3-2.3 1.2-.5.3-2.3 1.2-.5.3-1.9 1v-13c.6-.1 1.3-.2 1.9-.4.2-.1.3-.1.5-.2s.3-.3.2-.5c0-.1-.1-.2-.2-.2H41c-.1 0-.2.1-.2.1-.6.2-1.3.4-1.9.5V9.8l1.9-1 .4-.2 2.4-1.2.5-.3 2.3-1.2.5-.3 2.4-1.3.5-.3 1.9-1v39.5z" fill="#5B5757"/></svg>