<svg width="49" height="37" fill="none" xmlns="http://www.w3.org/2000/svg"><path d="M41.9 1.1H30c-1.1 0-2.1.4-2.8 1.1V0H2.4v21.8c-1.2.5-2 1.6-2 3v2.7c0 1.8 1.5 3.2 3.2 3.2h2.8v.1c0 3.2 2.6 5.8 5.8 5.8 3.2 0 5.8-2.6 5.8-5.8v-.1h15.2v.1c0 3.2 2.6 5.8 5.8 5.8 3.2 0 5.8-2.6 5.8-5.8 0-.3 0-.5-.1-.7 2.4-1.1 4.1-3.6 4.1-6.4V8.2c.2-3.9-3-7.1-6.9-7.1zm-38.1.4h21.9v20.1H3.8V1.5zm8.4 33.7c-2.4 0-4.4-2-4.4-4.4 0-2.4 2-4.4 4.4-4.4 2.4 0 4.4 2 4.4 4.4 0 2.4-2 4.4-4.4 4.4zm26.9 0c-2.4 0-4.4-2-4.4-4.4 0-2.4 2-4.4 4.4-4.4 2.4 0 4.4 2 4.4 4.4 0 2.4-2 4.4-4.4 4.4zm8.4-11.5c0 2.1-1.2 4-3 5-.9-2.1-3-3.7-5.4-3.7-2.7 0-5 1.8-5.6 4.3H17.9c-.7-2.5-2.9-4.3-5.6-4.3-2.7 0-5 1.8-5.6 4.3h-3c-1 0-1.8-.8-1.8-1.8v-2.7c0-1 .8-1.8 1.8-1.8h23.6V5.3c0-1.5 1.3-2.8 2.8-2.8H42c3.1 0 5.6 2.5 5.6 5.6v15.6h-.1z" fill="#5B5757"/><path d="M12.2 28c-1.6 0-2.8 1.3-2.8 2.8 0 1.6 1.3 2.8 2.8 2.8 1.6 0 2.8-1.3 2.8-2.8 0-1.5-1.2-2.8-2.8-2.8zm0 4.2c-.8 0-1.4-.6-1.4-1.4 0-.8.6-1.4 1.4-1.4.8 0 1.4.6 1.4 1.4 0 .8-.6 1.4-1.4 1.4zM39.1 28c-1.6 0-2.8 1.3-2.8 2.8 0 1.6 1.3 2.8 2.8 2.8 1.6 0 2.8-1.3 2.8-2.8 0-1.5-1.2-2.8-2.8-2.8zm0 4.2c-.8 0-1.4-.6-1.4-1.4 0-.8.6-1.4 1.4-1.4.8 0 1.4.6 1.4 1.4 0 .8-.6 1.4-1.4 1.4zm2-25H29.6v10.3h11.5c2.1 0 3.8-1.7 3.8-3.8V11c.1-2.1-1.7-3.8-3.8-3.8zm2.4 6.5c0 1.3-1.1 2.4-2.4 2.4H31V8.6h10c1.3 0 2.4 1.1 2.4 2.4v2.7h.1z" fill="#5B5757"/></svg>