<svg width="36" height="39" fill="none" xmlns="http://www.w3.org/2000/svg"><path d="M9.7 23.8h2.7v8.4c0 .3.2.5.5.5h2.4c.3 0 .5-.2.5-.5V19.4c0-.3-.2-.5-.5-.5h-2c-.3 0-.5.2-.5.5 0 0 0 .1-.1.4-.1.3-.2.6-.4.7-.3.3-.6.4-1 .5-.3.1-.8.1-1.6.1-.2 0-.4.2-.4.5v1.7c0 .3.2.5.4.5zm.5-1.7c.6 0 1-.1 1.3-.1.6-.1 1.1-.4 1.5-.8.3-.3.5-.7.6-1.1v-.2h1.2v12h-1.4v-8.4c0-.3-.2-.5-.5-.5h-2.7v-.9zm8.2 9.7c.9.7 2 1.1 3.3 1.1 1.7 0 2.9-.5 3.8-1.6.8-1 1.2-2.2 1.2-3.5 0-1.5-.5-2.7-1.3-3.5-.9-.8-1.9-1.2-3.1-1.2-.6 0-1.1.1-1.5.2-.1 0-.1.1-.2.1l.1-1.5h4.2c.3 0 .5-.2.5-.5v-2.1c0-.3-.2-.5-.5-.5H18c-.2 0-.4.2-.5.4l-.5 7.1c0 .1 0 .2.1.3.1.1.2.1.3.2l2.5.1c.2 0 .3-.1.4-.2.1-.3.4-.5.6-.6.2-.1.4-.1.6-.1.5 0 .8.2 1.1.5.3.4.4.8.4 1.4 0 .6-.1 1-.4 1.4-.2.3-.6.5-1.1.5-.4 0-.7-.1-.9-.3-.2-.2-.4-.6-.5-1 0-.2-.2-.4-.5-.4h-2.5c-.1 0-.3.1-.3.1-.1.1-.1.2-.1.3.4 1.5.9 2.5 1.7 3.3zm1.2-2.7c.1.5.3.8.6 1.1.4.4.9.6 1.6.6.8 0 1.4-.3 1.8-.8.4-.5.6-1.2.6-1.9s-.2-1.4-.5-1.9c-.4-.6-1-.9-1.8-.9-.4 0-.7 0-1 .1-.4.1-.7.4-1 .8l-1.8-.1.4-6.2h6V21h-4.2c-.2 0-.4.2-.5.4l-.2 2.8c0 .2.1.3.2.4.2.1.3.1.5 0 .4-.3.7-.4.8-.5.3-.1.7-.2 1.2-.2 1 0 1.8.3 2.5 1 .7.6 1 1.5 1 2.8 0 1.1-.3 2-1 2.9-.7.8-1.7 1.2-3.1 1.2-1.1 0-2-.3-2.7-.9-.6-.5-.9-1.1-1.1-2h1.7v.2z" fill="#5B5757"/><path d="M31.9 6h-1.1c-.1 0-.2 0-.3.1V2.3c0-1.3-1-2.3-2.3-2.3-1.3 0-2.3 1-2.3 2.3V6h-16V2.3C9.9 1 8.9 0 7.6 0 6.3 0 5.3 1 5.3 2.3v3.8H4C1.8 6.1.1 7.9.1 10v25c0 2.2 1.8 3.9 3.9 3.9h27.9c2.2 0 3.9-1.8 3.9-3.9V10c.1-2.2-1.7-4-3.9-4zm-4.7-3.7c0-.6.5-1 1-1 .6 0 1 .5 1 1v6.9c0 .6-.4 1-1 1s-1-.5-1-1V2.3zm-20.5 0c0-.6.5-1 1-1 .6 0 1 .5 1 1v6.9c0 .6-.5 1-1 1-.6 0-1-.5-1-1V2.3zM34.5 35c0 1.4-1.1 2.5-2.5 2.5H4.1c-1.4 0-2.5-1.1-2.5-2.5V10c0-1.4 1.1-2.5 2.5-2.5h.4v1.4c0 1.8 1.4 3.2 3.2 3.2 1.8 0 3.2-1.4 3.2-3.2V7.5h14.3v1.4c0 1.8 1.4 3.2 3.2 3.2 1.8 0 3.2-1.4 3.2-3.2V7.5h.4c1.4 0 2.5 1.1 2.5 2.5v25z" fill="#5B5757"/><path d="M32.5 16H3.7c-.4 0-.7.3-.7.7v17c0 1.3 1.1 2.4 2.4 2.4h25.4c1.3 0 2.4-1.1 2.4-2.4v-17c0-.4-.3-.7-.7-.7zm-.7 17.7c0 .6-.4 1-1 1H5.4c-.6 0-1-.4-1-1V17.4h27.4v16.3z" fill="#5B5757"/></svg>