<svg width="52" height="42" fill="none" xmlns="http://www.w3.org/2000/svg"><path d="M28.6.4H1C.6.4.2.8.2 1.3V35c0 .5.4.9.8.9h20.4V41c0 .6.7 1.2 1.2.8.6-.5 1.1-.9 1.7-1.4.4-.3.8-.7 1.3-1 .1-.1.3-.2.4-.3.1.1.2.1.2.2.4.4.8.7 1.2 1 .6.5 1.3 1 1.9 1.5.3.3.7.2.9-.1.2-.1.3-.4.3-.7v-5.1h20.1c.2 0 .4-.1.6-.2.1-.1.2-.3.2-.6V1.4c0-.5-.4-.9-.8-.9H29.7c-.3-.1-.7-.1-1.1-.1zm-7.2 33.7H1.8V2.2h19.6v31.9zm7.5 5.1c-.8-.7-1.7-1.4-2.5-2.1-.2-.2-.6-.2-.8 0-.9.7-1.7 1.4-2.6 2.1v-37h5.9v37zm1.6-37h19.3v31.9H30.5V2.2z" fill="#5B5757"/><path d="M5.5 10.5H17c.7 0 .7-1.2 0-1.2H5.5c-.7.1-.7 1.2 0 1.2zm0 5H17c.7 0 .7-1.2 0-1.2H5.5c-.7.1-.7 1.2 0 1.2zm0 5H17c.7 0 .7-1.2 0-1.2H5.5c-.7 0-.7 1.2 0 1.2zm0 5H17c.7 0 .7-1.2 0-1.2H5.5c-.7 0-.7 1.2 0 1.2zM46.2 9.4H34.7c-.7 0-.7 1.2 0 1.2h11.5c.7-.1.7-1.2 0-1.2zm0 5H34.7c-.7 0-.7 1.2 0 1.2h11.5c.7-.1.7-1.2 0-1.2zm0 4.9H34.7c-.7 0-.7 1.2 0 1.2h11.5c.7 0 .7-1.2 0-1.2zm0 5H34.7c-.7 0-.7 1.2 0 1.2h11.5c.7 0 .7-1.2 0-1.2z" fill="#5B5757"/></svg>