<svg width="40" height="45" fill="none" xmlns="http://www.w3.org/2000/svg"><path d="M12.6 19.5C5.7 19.5 0 25.1 0 32.1 0 39 5.6 44.7 12.6 44.7c5.5 0 10.2-3.5 11.9-8.4h2.3c3.9 0 12.9-.4 12.9-4.2V16.7c0-.2 0-.4-.1-.6 0-.2.1-.3.1-.5V4.7c0-.2 0-.4-.1-.6-.1-.4-.4-.7-.7-.9C36.3 1 27.9.9 26.8.9c-1.1 0-9.5.1-12.1 2.3-.3.2-.6.5-.7.9-.1.2-.1.4-.1.6v10.6c0 .2 0 .4.1.5-.1.2-.1.4-.1.6v3c-.4.2-.9.1-1.3.1zM38.1 32c0 .1 0 .1 0 0v.1c-.1 1.4-5.2 2.6-11.4 2.6h-1.8c.2-.8.3-1.7.3-2.5v-.7h1.6c2.9 0 8.7-.2 11.4-1.9V32h-.1zm0-4.8v.1c-.1 1.4-5.2 2.6-11.4 2.6h-1.8c-.2-1.3-.7-2.6-1.3-3.7 1.2.1 2.3.1 3.1.1 2.9 0 8.7-.2 11.4-1.9v2.8zm0-11.9c0 .1 0 .1 0 0v.1C38 16.8 32.9 18 26.7 18s-11.3-1.1-11.4-2.6v-3.1c2.7 1.7 8.5 1.9 11.4 1.9 2.9 0 8.7-.2 11.4-1.9v3zM26.7 2.7c6.5 0 10.5 1.2 11.2 1.9-.7.7-4.7 1.9-11.2 1.9-6.5 0-10.5-1.2-11.1-1.9.7-.7 4.7-1.9 11.1-1.9zm0 5.8c1 0 8.2-.1 11.4-1.8v3.5c-.1 1.4-5.2 2.6-11.4 2.6s-11.3-1.1-11.4-2.6V6.6c3.2 1.8 10.4 1.9 11.4 1.9zm0 11.8c1 0 8.2-.1 11.4-1.8V22c-.1 1.4-5.2 2.6-11.4 2.6-1.5 0-2.9-.1-4.2-.2-1.8-2.3-4.3-3.9-7.2-4.5v-1.3c3.2 1.7 10.4 1.7 11.4 1.7zm-3.1 11.8c0 6.1-4.9 11-11 11s-11-4.9-11-11 4.9-11 11-11 11 5 11 11z" fill="#5B5757"/><path d="M4.1 32.1c0 4.7 3.8 8.5 8.5 8.5s8.5-3.8 8.5-8.5-3.8-8.5-8.5-8.5-8.5 3.8-8.5 8.5zm15.9 0c0 4.1-3.3 7.4-7.4 7.4-4.1 0-7.4-3.3-7.4-7.4 0-4.1 3.3-7.4 7.4-7.4 4.1 0 7.4 3.3 7.4 7.4z" fill="#5B5757"/></svg>