<svg width="65" height="47" fill="none" xmlns="http://www.w3.org/2000/svg"><path d="M55 22.6H37.7V.8H12.8v44.3H.3v1.7h63.9v-1.7H55V22.6zM36 44.4H14.4v-42H36v42zm17.3 0H38V24.2h15.4v20.2h-.1z" fill="#5B5757"/><path d="M24.1 7.1h-5.3v4.6h5.3V7.1zm-.8 3.7h-3.7V7.9h3.7v2.9zm8.4-3.7h-5.3v4.6h5.3V7.1zm-.8 3.7h-3.7V7.9h3.7v2.9zm.8 2.2h-5.3v4.6h5.3V13zm-.8 3.7h-3.7v-2.9h3.7v2.9zm.8 6.8h-5.3v4.6h5.3v-4.6zm-.8 3.7h-3.7v-2.9h3.7v2.9zm.8 6.7h-5.3v4.6h5.3v-4.6zm-.8 3.8h-3.7v-2.9h3.7v2.9zm-6.8-3.8h-5.3v4.6h5.3v-4.6zm-.8 3.8h-3.7v-2.9h3.7v2.9zm22-11.7H40v4.6h5.3V26zm-.8 3.8h-3.7v-2.9h3.7v2.9zm7.5 3.6h-5.3V38H52v-4.6zm-.8 3.8h-3.7v-2.9h3.7v2.9z" fill="#5B5757"/></svg>