<svg width="36" height="46" fill="none" xmlns="http://www.w3.org/2000/svg"><path d="M5.3 45c.2.3.6.5 1 .5h20.3c.4 0 .7-.2.9-.5l5.4-7.8c.2-.3.3-.8.1-1.2-.2-.4-.6-.6-1-.6H13.5v-2.2h20.8c.3 0 .6-.1.8-.4.2-.2.3-.5.3-.9 0-.2-.5-6-3-12.6-3.3-8.7-8.4-14.7-15-17.5-.2-.1-.4-.2-.7-.2h-3.3v-.5c0-.6-.5-1.1-1.1-1.1-.6 0-1.1.5-1.1 1.1v34.3H1.6c-.4 0-.8.2-1 .6-.2.4-.2.8 0 1.1L5.3 45zm12.4-18.4v-22C24.9 8.3 28.8 16 30.8 22.3c.5 1.6.9 3.1 1.2 4.4.4 1.8.7 3.3.8 4.3H17.6v-4.4h.1zM13.4 3.9h2.1v27h-2.1v-27zm16.3 33.8l-3.8 5.6H6.8l-3.4-5.6h26.3z" fill="#5B5757"/></svg>