<svg width="41" height="38" fill="none" xmlns="http://www.w3.org/2000/svg"><path d="M1.6 32h37.8c.5 0 .9-.4.9-.9V1.6c0-.5-.4-.9-.9-.9H1.6c-.5 0-.9.4-.9.9v29.5c0 .5.4.9.9.9zm.8-29.6h36.1v27.8H2.4V2.4z" fill="#5B5757"/><path d="M34.8 4.3H6.1c-.5 0-.9.4-.9.9v19.3c0 .5.4.9.9.9h28.7c.5 0 .9-.4.9-.9V5.2c0-.6-.4-.9-.9-.9zM34 23.6H7V6h27v17.6zM20.5 26c-1 0-1.8.8-1.8 1.8s.8 1.8 1.8 1.8 1.8-.8 1.8-1.8-.8-1.8-1.8-1.8zm0 2.7c-.5 0-.8-.4-.8-.8 0-.5.4-.8.8-.8s.8.4.8.8-.4.8-.8.8zm9.9 9c.5 0 .9-.4.9-.9v-3c0-.5-.4-.9-.9-.9H10.6c-.5 0-.9.4-.9.9v3c0 .5.4.9.9.9h19.8zm-19-3h18.1V36H11.4v-1.3z" fill="#5B5757"/></svg>