<svg width="17" height="18" fill="none" xmlns="http://www.w3.org/2000/svg"><path fill-rule="evenodd" clip-rule="evenodd" d="M4.253 0h7.595c.803 0 1.477 0 2.013.072.568.076 1.087.245 1.505.663.418.418.586.937.663 1.505.072.536.072 1.21.072 2.013v5.761c0 .804 0 1.478-.072 2.014-.077.567-.245 1.086-.663 1.504-.418.418-.937.587-1.505.663-.536.072-1.21.072-2.013.072h-2.66c-.849 0-1.059.015-1.235.093-.177.079-.328.225-.896.857l-1.355 1.505c-.14.156-.26.29-.36.391a1.817 1.817 0 01-.362.302 1.613 1.613 0 01-2.307-.756 1.816 1.816 0 01-.114-.457c-.02-.141-.038-.32-.059-.529l-.096-.968a.486.486 0 00-.484-.438A1.92 1.92 0 010 12.347V4.253C0 3.45 0 2.776.072 2.24.148 1.672.317 1.153.735.735 1.153.317 1.672.148 2.24.072 2.776 0 3.45 0 4.253 0zM2.431 1.493c-.409.055-.575.149-.682.256-.107.107-.2.273-.256.682-.057.43-.059 1.006-.059 1.871v8.045c0 .269.218.486.486.486a1.92 1.92 0 011.91 1.73l.096.953c.023.228.038.377.053.486.01.065.016.096.018.106a.18.18 0 00.241.079c.008-.007.032-.028.078-.075.076-.078.177-.19.33-.36l1.345-1.495.08-.09c.446-.495.808-.898 1.298-1.117.491-.218 1.032-.218 1.7-.217h2.73c.865 0 1.442-.001 1.87-.059.41-.055.576-.149.683-.256.107-.107.2-.273.255-.681.058-.43.06-1.006.06-1.872V4.302c0-.865-.002-1.442-.06-1.871-.054-.409-.148-.575-.255-.682-.107-.107-.273-.2-.682-.256-.43-.057-1.006-.059-1.871-.059H4.302c-.865 0-1.442.002-1.871.06z" fill="#828282"/><path fill-rule="evenodd" clip-rule="evenodd" d="M6.361 5.191c.04-.256.07-.444-.122-.621a.731.731 0 00-.975 0c-.428.395-1.202 1.473-.889 2.765.048.663.646 1.186 1.376 1.186.762 0 1.38-.57 1.38-1.273 0-.492-.303-.92-.746-1.131-.107-.397-.06-.69-.024-.926zm4.342 0c.04-.257.07-.444-.122-.621a.731.731 0 00-.976 0c-.427.394-1.201 1.473-.888 2.765.048.662.646 1.186 1.376 1.186.762 0 1.38-.57 1.38-1.273 0-.492-.303-.92-.746-1.131-.107-.397-.06-.69-.024-.926z" fill="#828282"/></svg>