<svg width="45" height="44" fill="none" xmlns="http://www.w3.org/2000/svg"><path fill-rule="evenodd" clip-rule="evenodd" d="M11.887 0h21.226c2.245 0 4.129 0 5.627.18 1.587.19 3.037.61 4.206 1.653 1.168 1.043 1.64 2.337 1.853 3.753.201 1.337.201 3.019.2 5.022v14.37c.001 2.003.001 3.684-.2 5.021-.214 1.416-.685 2.71-1.853 3.753-1.169 1.043-2.62 1.464-4.206 1.654-1.498.18-3.382.18-5.627.18h-7.431c-2.375 0-2.962.036-3.455.232-.493.196-.915.56-2.504 2.136l-3.787 3.755c-.393.39-.727.721-1.005.975-.265.243-.606.536-1.012.752-2.346 1.242-5.382.354-6.45-1.886-.184-.388-.264-.804-.317-1.14-.055-.351-.105-.796-.164-1.317l-.27-2.416c-.07-.62-.654-1.091-1.352-1.091-2.964 0-5.366-2.144-5.366-4.79V10.609c0-2.004 0-3.686.2-5.023.214-1.416.685-2.71 1.853-3.753C3.222.791 4.674.37 6.26.18 7.758 0 9.642 0 11.887 0zM6.794 3.724c-1.142.138-1.606.371-1.906.638-.299.268-.56.682-.714 1.7-.162 1.071-.166 2.51-.166 4.668v20.067c0 .67.608 1.212 1.358 1.212 2.757 0 5.066 1.864 5.34 4.312l.266 2.38c.064.567.106.94.149 1.211.025.16.044.239.05.265.125.22.428.308.674.197.022-.018.09-.07.216-.187.215-.196.496-.474.924-.898l3.759-3.728.225-.224c1.246-1.238 2.256-2.242 3.628-2.787 1.371-.545 2.883-.543 4.748-.541h7.631c2.418 0 4.03-.004 5.23-.148 1.142-.137 1.606-.37 1.905-.638.3-.267.562-.681.715-1.7.162-1.071.166-2.51.166-4.668V10.73c0-2.158-.004-3.597-.166-4.667-.153-1.02-.415-1.433-.715-1.7-.299-.268-.763-.501-1.905-.639-1.2-.143-2.812-.147-5.23-.147H12.024c-2.418 0-4.03.004-5.23.147zM17.78 14.508c.113-.716.195-1.24-.342-1.736-.753-.695-1.974-.695-2.727 0-1.195 1.103-3.359 4.118-2.483 7.728.135 1.852 1.806 3.317 3.847 3.317 2.129 0 3.855-1.594 3.855-3.56 0-1.375-.846-2.569-2.083-3.161-.3-1.11-.171-1.93-.067-2.588zm11.793-1.736c.537.496.455 1.02.342 1.736-.104.658-.233 1.478.067 2.588 1.237.592 2.083 1.786 2.083 3.162 0 1.965-1.726 3.559-3.855 3.559-2.042 0-3.712-1.465-3.847-3.317-.876-3.61 1.288-6.625 2.483-7.728.753-.695 1.974-.695 2.727 0z" fill="url(#paint0_linear_190_497)"/><defs><linearGradient id="paint0_linear_190_497" x1="0" y1="22" x2="45" y2="22" gradientUnits="userSpaceOnUse"><stop stop-color="#E7555A"/><stop offset="1" stop-color="#7427EA"/></linearGradient></defs></svg>