<svg width="24" height="23" fill="none" xmlns="http://www.w3.org/2000/svg"><path fill-rule="evenodd" clip-rule="evenodd" d="M7.798 4.46a.112.112 0 00-.159 0 4.671 4.671 0 00-.433 6.106l1.181 1.575a22.198 22.198 0 004.44 4.44l1.575 1.182a4.671 4.671 0 006.106-.434.112.112 0 000-.158l-2.648-2.648a.2.2 0 00-.283 0l-1.021 1.02a1.333 1.333 0 01-1.539.25 13.064 13.064 0 01-5.842-5.842 1.333 1.333 0 01.25-1.539l1.02-1.02a.2.2 0 000-.284L7.799 4.46zm-1.29-1.13a1.712 1.712 0 012.421 0l2.648 2.648a1.8 1.8 0 010 2.545l-.884.884a11.464 11.464 0 004.869 4.87l.884-.885a1.8 1.8 0 012.545 0l2.648 2.648a1.712 1.712 0 010 2.421 6.27 6.27 0 01-8.196.583l-1.576-1.182a23.798 23.798 0 01-4.76-4.76l-1.181-1.575a6.271 6.271 0 01.582-8.197zm10.21-.88a.8.8 0 01.8.8v3.568l4.135-4.134a.8.8 0 011.131 1.131L18.65 7.95h3.569a.8.8 0 010 1.6h-5.5a.8.8 0 01-.8-.8v-5.5a.8.8 0 01.8-.8z" fill="#828282"/></svg>