<svg xmlns="http://www.w3.org/2000/svg" width="400" height="248.649"><g fill-rule="evenodd"><path d="M317.413.373c0 .29-.332.373-1.493.373-1.429 0-1.492.027-1.492.627 0 .446-.198.715-.684.928-.909.4-.992.549-1.018 1.84-.024 1.22-.199 1.665-.565 1.439-.992-.613-.967-1.819-.967 47.31v46.859l-23.072.063-23.072.064-.079.684c-.066.573-.197.684-.808.684-.645 0-.73.086-.73.746 0 .687-.069.746-.871.746-.801 0-.87-.059-.87-.746 0-.66-.085-.746-.73-.746-.611 0-.743-.111-.809-.684l-.078-.684-46.953-.063c-51.162-.069-47.067-.166-47.02 1.12.007.191-.36.325-.956.348-1.501.058-1.573.071-1.838.336-.136.137-.281.749-.32 1.36-.072 1.104-.41 1.592-.965 1.389-.555-.202-.58.768-.588 22.333-.005 13.674-.094 21.536-.241 21.283-.389-.664-4.32-.607-3.964.058.141.263.188.588.105.722-.19.307 1.018.78 1.858.727 1.413-.088 1.752.008 1.752.499 0 .266.336.982.747 1.59.41.608.746 1.258.747 1.443.003.562.524 2.258.654 2.128.067-.067.112-11.565.099-25.55l-.023-25.428.599.15c.512.129.62.045.744-.576.12-.601.286-.741.954-.806.626-.061.841-.218.953-.7l.146-.622 46.399-.063 46.398-.063.357.802c.219.495.591.857.97.944.46.105.67.374.834 1.064.291 1.23 1.736 1.402 2.027.24.227-.903.586-1.307 1.163-1.307.328 0 .52-.231.623-.75.231-1.153-1.345-1.116 46.943-1.116h45.487l.657.772c.361.425.964.847 1.341.938.518.125.684.315.684.782 0 .438.135.618.467.618 1.197 0 1.145-1.612 1.221 37.662.09 46.185.262 44.198-3.922 45.215-1.28.311-1.366.381-1.427 1.14l-.065.808h3.968l.066 9.142.065 9.142.684.079c.652.075.886 1.025.663 2.692-.046.342.697.58 1.825.583 1.119.004 1.329.154 1.197.852-.068.364.543.637 1.435.641.574.003.785.1.684.315-.079.171-.214.506-.298.745-.145.412-2.683.438-47.326.499l-47.173.063 47.326.062c45.998.059 47.326.074 47.326.525 0 .255.224.748.497 1.096.447.568.498 1.024.513 4.545.016 4.112-.016 4.251-1.01 4.384-1.235.165-1.025 1.7.233 1.7.948 0 1.011-.045 1.011-.715 0-.596.125-.74.746-.864l.746-.15v-3.737c0-3.819.005-3.837.906-3.717.263.036.579-.608.583-1.19.004-.491.151-.555 1.424-.622 1.283-.067 1.434-.134 1.565-.696.102-.442.336-.645.807-.7.664-.078 1.116-.795.811-1.288-.098-.159.443-.251 1.477-.251h1.631v-.746c0-.729.03-.747 1.226-.747 1.595 0 2.008-.413 2.008-2.008 0-1.181.026-1.226.709-1.226h.708l.029-1.803c.015-1.012-.054-1.604-.159-1.35-.103.25-.238.427-.301.393-.492-.259-1.214.63-1.282 1.58-.069.945-.149 1.064-.761 1.135-.465.053-.684.222-.684.529 0 .523-.418.918-1.108 1.046-.274.05-.551.362-.634.711l-.146.62h-12.375l-.412-.746c-.269-.488-.642-.774-1.077-.825-.462-.055-.711-.263-.816-.683-.084-.333-.448-.747-.81-.92l-.657-.315-.063-26.96c-.066-27.985-.078-27.635.949-27.635.327 0 .472-.222.529-.808.065-.679.196-.828.824-.935.42-.072.756-.29.77-.499.014-.204.042-.51.063-.681.029-.241 1.585-.311 6.844-.311h6.806l-.127-.684c-.07-.377-.244-.761-.387-.854-.427-.277-12.558-.225-12.731.054-.084.137-.257.184-.385.105-.127-.079-.231.143-.231.493 0 .434-.139.643-.435.656-.24.01-.632.057-.871.102-.412.079-.435-1.145-.435-22.895 0-22.803-.004-22.982-.503-23.249-.277-.148-.605-.205-.73-.128-.125.077-.263-.225-.306-.673-.043-.447-.218-.827-.389-.844a51.158 51.158 0 00-.684-.062c-.331-.028-.373-5.183-.373-44.776V11.754l.746-.15c.73-.146.746-.181.746-1.648V8.458h1.099c1.482 0 1.886-.192 1.886-.898v-.595h18.657v.746c0 .664.083.747.746.747s.746.083.746.746.083.746.747.746h.746v150h-.746c-.664 0-.747.083-.747.747 0 .682-.072.746-.844.746-1.094 0-1.221.311-1.317 3.234a248.736 248.736 0 01-.114 3.04c-.059 1.127.412 1.437 2.181 1.437h1.587v15.709l-1.523-.081-1.523-.081-.339 1.12c-.921 3.04-.498 3.482 3.324 3.482 3.171 0 3.295-.047 3.295-1.264 0-.337.174-.477.593-.477.875 0 .892-.203.896-10.51l.003-9.39h.747c.659 0 .746-.085.746-.73 0-.611.111-.743.684-.809.57-.065.697-.213.762-.887.068-.711.166-.808.809-.808h.731l-.063-80.162-.062-80.162-.67-.077c-.551-.063-.683-.218-.746-.87-.063-.653-.196-.808-.746-.871-.517-.06-.687-.229-.746-.746-.06-.522-.229-.687-.762-.748-.391-.045-.684-.231-.684-.435 0-.308-5.047-.357-37.064-.357-32.781 0-37.065.043-37.065.373m33.831 51.493v47.885H315.92V7.019l.593-.149c.63-.158.891-.763.897-2.081l.003-.809h33.831v47.886m9.506-47.14c-.093.632-.22.747-.828.747-.632 0-.718.089-.718.746 0 .659-.085.746-.728.746-.484 0-.766.146-.842.435-.062.24-.127-.432-.142-1.492l-.029-1.928h3.396l-.109.746m29.345-.062c.062.537.226.701.763.763l.684.079v4.856l-.735-.108c-.713-.105-.737-.154-.808-1.636-.073-1.525-.075-1.529-.882-1.606-.711-.069-.809-.167-.809-.809 0-.646-.086-.73-.746-.73-.663 0-.746-.083-.746-.747V3.98h1.6c1.561 0 1.603.017 1.679.684M109.247 58.266c-.161.16-.292.487-.292.727 0 .361-.267.449-1.555.51-1.489.071-1.558.103-1.633.758-.075.656-.154.728-.854.784-.432.034-.676.422-.68 1.082-.003.423-.149.56-.597.56-.727 0-.892.511-.896 2.778-.004 1.636-.014 1.662-.741 1.822l-.737.161-.071 2.284c-.07 2.224-.087 2.283-.669 2.283-.782 0-.812.188-.787 5.037.023 4.348.044 4.283-1.29 4.072-.102-.016-.199.11-.215.281a5.348 5.348 0 01-.086.56c-.032.137-.075 3.535-.096 7.552-.035 6.632-.075 7.288-.443 7.147-.985-.378-1.104.2-1.077 5.192.015 2.621.102 4.887.194 5.035.3.477 1.987.553 12.544.562l10.386.01v27.616c0 27.548.056 29.598.819 29.598.111 0 .365.391.565.87.337.807.444.871 1.449.871 1.568 0 1.674.239 1.629 3.7-.042 3.226-.182 3.525-1.477 3.157l-.955-.269c-.359-.101-.52.082-.753.861-.393 1.311-1.121 1.503-5.705 1.505l-3.557.001.121 1.057c.067.582.128 1.241.137 1.465.035.917 1.508.72 1.508-.202v-.827h6.219v3.219l-3.296.069-3.296.07.065 3.358c.163 8.495.318 10.417.83 10.319.26-.05.473.021.473.158s.102.186.227.108c.126-.077.285 0 .354.172.1.249.13.249.145.002.016-.245 2.808-.311 13.076-.311h13.056l.066 6.778.066 6.779.684.079c.469.054.694.23.715.559.017.265.045.621.062.792.017.171.395.346.84.389.711.069.808.166.808.809 0 .402.084.717.187.701 1.253-.198 2.798.076 2.798.496 0 .74 1.539 1.555 1.883.998.167-.269 2.097-.186 2.097.09.001.194-.355.258-1.616.291-.722.019-.749.062-.822 1.326l-.075 1.306h.759c.876 0 .813-.364.762 4.387-.035 3.193.137 5.069.459 5.027.954-.123 1.28.077 1.28.785 0 1.165 2.101 1.159 2.19-.006.058-.766-.008-.824-1.257-1.097l-.684-.15v-3.999c0-3.621.046-4.058.497-4.63.274-.348.498-.842.498-1.097 0-.451 1.439-.466 51.927-.525l51.928-.062-51.775-.063-51.775-.064-.11-.746-.109-.745 2.133-.03c1.174-.016 2.218-.016 2.32 0 .103.017.187-.362.187-.841v-.87l-3.669-.041c-7.289-.081-6.608-.011-6.773-.694-.119-.495-.381-.66-1.38-.872-.952-.202-1.304-.412-1.548-.921-.174-.363-.651-.776-1.06-.919l-.744-.259v-54.503h.746c.607 0 .747-.105.75-.56.005-.743.263-1.104.867-1.218.274-.051.531-.325.572-.608.061-.427.336-.555 1.607-.744 1.487-.222 1.533-.251 1.531-.975l-.002-.746-1.705-.075c-.938-.041-1.884.005-2.103.102-.218.097-.481.158-.584.137-.103-.022-.187.244-.187.59 0 .383-.17.682-.435.764-.946.292-1.183.56-1.216 1.37a77.632 77.632 0 01-.062 1.278c-.02.312-.24.436-.774.436h-.746l-.004 17.351c-.002 9.567-.099 17.201-.215 17.018-.115-.183-.282-.323-.369-.311-.699.094-.881-.056-.951-.787-.043-.445-.218-.822-.389-.84l-.644-.062c-.206-.019-.419-.576-.56-1.461-.206-1.3-.284-1.431-.849-1.431-.519 0-.634-.132-.699-.808l-.078-.808h-9.173v-72.637h6.214l.065 10.758.064 10.759 2.058-.026c1.132-.015 2.126-.095 2.21-.178.424-.425.205-5.955-.235-5.909-1.255.131-1.172.675-1.172-7.693v-7.711l5.535-.029c3.044-.016 5.647-.055 5.784-.086.136-.032.444-.075.684-.096.385-.034.435-.348.435-2.76 0-2.756-.11-3.102-.995-3.117-.319-.006-.391-.978-.498-6.723-.128-6.922-.204-7.465-1.016-7.208-.454.145-.477-.02-.497-3.534-.029-5.228-.136-5.801-1.091-5.801h-.629v-5.982l-.747-.149-.746-.15v-4.376l-.746-.163c-.708-.156-1.068-1.77-.767-3.447.062-.347-.245-1.147-.43-1.121-.701.1-1.042-.094-1.046-.594-.004-.66-.248-1.048-.68-1.082-.727-.058-.809-.129-.809-.695 0-.718-.401-.897-2.01-.897-1.031 0-1.223-.074-1.223-.467 0-.257-.148-.59-.328-.739-.482-.4-25.1-.382-25.5.019m25.915 5.167c.124.62.269.746.859.746.511 0 .71.122.708.435-.01 2.347.056 2.55.833 2.55h.746v4.255l.747.26.746.26.037 2.401c.055 3.601.008 3.387.771 3.475l.685.079v3.445c0 3.906.069 4.233.897 4.233h.595l.032 4.042c.053 6.599.1 6.903 1.08 6.903h.629v6.219h-43.283v-13.93h.595c.856 0 .897-.264.897-5.742 0-3.116.093-4.966.249-4.986.137-.017.361-.059.498-.093.136-.034.36-.076.497-.093.15-.019.249-1.205.249-2.992v-2.961l.746-.26.746-.26v-2.127c0-2.078.014-2.128.596-2.128.705 0 .897-.404.897-1.886 0-.981.061-1.099.572-1.099.686 0 1.169-.432 1.169-1.045 0-.425.649-.447 13.029-.447h13.028l.15.746m-84.913 43.912c0 1.323.027 1.379.734 1.521.698.139.739.217.809 1.548.07 1.323.112 1.406.758 1.481l.684.078v2.455c0 2.793.248 3.731.989 3.731.473 0 .504.161.522 2.674.028 4.042.203 4.896 1.027 4.991.632.073.676.161.746 1.492.07 1.338.112 1.42.758 1.494.649.075.684.145.684 1.381 0 1.363.295 1.899 1.045 1.899.332 0 .448.193.448.746v.746H55.99c-4.026 0-4.249.054-4.249 1.022 0 .713-.012.719-1.492.719h-1.493v.747c0 .664-.082.746-.752.746-.637 0-.776.114-.902.746-.116.581-.282.746-.746.746-.462 0-.63.166-.744.733-.112.56-.301.75-.802.808-.536.062-.67.222-.733.87-.063.652-.195.807-.746.87-.627.073-.669.156-.669 1.32v1.243l1.057.223c1.507.318 3.149-.062 3.247-.752.052-.363.31-.578.814-.679.573-.115.771-.315.888-.899.142-.708.218-.751 1.313-.751 1.233 0 1.76-.313 1.76-1.045 0-.364.207-.448 1.099-.448 1.482 0 1.886-.192 1.886-.897 0-.59.023-.596 2.612-.596 2.39 0 3.072.184 2.347.633-.147.09-.206.321-.133.512.09.233-.048.349-.418.352-.586.004-1.23.319-1.195.584.237 1.772-.002 2.646-.725 2.646h-.746v3.482c0 1.916.084 3.491.186 3.501.103.011.425.064.717.119.691.13.838-.592.838-4.132v-2.688l.678-.079c.621-.072.7-.206.933-1.571l.255-1.493 1.741-.2c5.023-.577 9.826-.114 9.826.948 0 .456.153.605.684.666.545.063.701.224.765.792.06.522.276.786.809.987l.727.274.022 3.491c.031 4.973.168 5.726 1.047 5.739l.695.011-.073-4.861-.074-4.862-.684-.079c-.654-.075-.684-.138-.684-1.451 0-1.281-.048-1.392-.707-1.64-.417-.158-.819-.565-.981-.995-.214-.566-.384-.693-.765-.572-.615.195-.843-.154-.637-.973l.158-.633 3.518-.003c4.723-.003 5.371-.122 5.55-1.013.104-.524.302-.717.795-.774.62-.072.656-.151.656-1.444v-1.368l-5.473-.07c-6.319-.082-6.521-.055-6.663.879-.057.376-.12-.009-.14-.855l-.038-1.539.809-.078c.656-.064.822-.198.882-.712.051-.439.3-.719.809-.912.692-.261.734-.356.734-1.667 0-1.378.006-1.389.746-1.389.66 0 .747-.085.747-.73 0-.611.111-.743.684-.809.529-.06.701-.227.76-.734.058-.499.249-.69.802-.801.499-.1.773-.335.878-.753.092-.368.393-.668.76-.76.419-.105.654-.38.753-.879.111-.553.302-.744.801-.802.508-.058.674-.231.735-.76.066-.573.197-.684.808-.684.645 0 .73-.086.73-.746 0-.663.083-.746.746-.746.664 0 .747-.083.747-.747 0-.569.112-.746.477-.746 1.037 0 1.264-.264 1.264-1.469 0-1.551-.275-1.765-2.268-1.765-2.134 0-2.458.133-2.458 1.01 0 .686-.042.709-1.431.781-1.354.071-1.434.111-1.509.759-.075.654-.139.684-1.452.684-1.292 0-1.389.043-1.65.735-.192.509-.472.757-.912.808-.476.056-.652.237-.71.73-.058.501-.248.69-.808.802-.571.114-.732.28-.732.755 0 .474-.166.644-.747.772-.613.135-.746.289-.746.863 0 .614-.106.712-.871.801l-.87.102v-1.675c0-1.642.013-1.676.684-1.753l.684-.079.067-5.299.067-5.298-1.435.074c-1.36.071-1.44.111-1.514.759-.066.573-.197.684-.809.684h-.729v1.601c0 1.561-.017 1.602-.684 1.679-.682.078-.685.087-.756 2.239-.071 2.145-.077 2.162-.746 2.239-.706.082-1.264 2.592-.917 4.12.106.469.023.56-.513.56-.487 0-.701.178-.899.746-.163.467-.433.747-.721.747-.254 0-.575.195-.715.435-.211.362-.254.303-.261-.353-.011-1.172-.242-1.575-.905-1.575-.566 0-.595-.077-.595-1.617v-1.617h1.214c2.231 0 2.708-2.719.527-3.01-.615-.082-.923-.166-.684-.186.867-.075.602-2.506-.311-2.85-.616-.233-.746-.421-.746-1.082 0-1.312-.403-2.076-1.097-2.076-.482 0-.628-.144-.69-.684-.074-.647-.155-.688-1.509-.759-1.401-.073-1.43-.089-1.43-.808 0-.731-.006-.734-1.493-.734h-1.492v1.375m74.129 28.725v28.607h-1.492v-57.214h1.492v28.607m-54.057-10.51c-.063.239-.114.043-.114-.436 0-.478.051-.674.114-.435.062.239.062.631 0 .871m-7.667 1.368c-.033 1.044-.035 1.046-.187.21-.095-.522-.344-.92-.651-1.039-.431-.167-.406-.196.186-.211.647-.016.683.041.652 1.04m316.712 22.412c-.542.543-.302 1.369.423 1.452.529.061.701.227.76.734.057.498.249.691.793.8.64.128.726.259.795 1.201.071.974.141 1.07.897 1.224l.821.166-.074-1.277c-.068-1.173-.128-1.283-.732-1.353-.595-.069-.673-.202-.826-1.43-.179-1.433-.146-1.404-1.924-1.676-.369-.056-.789.016-.933.159m-324.449 3.583c-.111.634-.044 5.618.101 7.463.063.804.658 1.268 1.199.934.153-.095.251.239.251.854 0 .944.046 1.01.708 1.01.389 0 1.054.173 1.478.384.638.319.858.33 1.282.065.708-.443.646-.617-.351-.977-.633-.229-.961-.559-1.234-1.242-.255-.636-.551-.955-.941-1.01-.559-.079-.572-.155-.722-4.061-.179-4.652-.054-4.104-.936-4.104-.585 0-.736.124-.835.684m21.397 3.848l-.07 3.055-.645.075c-.526.061-.71.286-1.003 1.23-.328 1.059-.46 1.19-1.571 1.574-1.115.385-1.171.442-.693.698.708.379 1.574.338 2.156-.102.265-.201.797-.366 1.181-.366.688 0 .699-.024.699-1.472 0-1.421.026-1.479.717-1.631.84-.184.995-.851.888-3.818-.072-2.009-.113-2.1-.985-2.217l-.604-.081-.07 3.055m315.228 4.158c0 1.968-.002 1.973-.684 2.052-.57.066-.697.214-.762.887l-.078.809-2.409-.048c-1.835-.037-2.039-.069-.855-.137 1.536-.087 1.554-.097 1.554-.822 0-.644.089-.735.72-.735.836 0 1.022-.341 1.022-1.881 0-.96.076-1.113.622-1.25.342-.086.622-.312.622-.503 0-.19.056-.346.124-.346s.124.888.124 1.974M5.611 163.361a2.832 2.832 0 00-.138.838c0 .365-.177.478-.747.478H3.98v3.894l.749-.11c.815-.12.94-.391 1.051-2.292l.066-1.119 1.568-.21 1.569-.211-.076-.784c-.087-.899-2.974-1.322-3.296-.484m-1.61 9.56c.044 2.192.231 2.593 1.135 2.431 1.121-.201 1.8.055 1.875.705l.079.684 4.539.068 4.54.068v.747c0 .631-.116.77-.746.896l-.746.149v13.58l-.741.163c-.407.089-.729.238-.716.33.17 1.229-.093 13.72-.287 13.6-1.156-.714-1.241-.232-1.241 6.983v6.824h-.603c-.677 0-1.217 1.167-1.118 2.418.03.381.037 3.114.017 6.075l-.038 5.384-.611.153c-1.165.293-1.264 4.028-.117 4.461.615.232.729.412.732 1.153.008 2.074-.146 1.998 4.005 1.998h3.703v-.73c0-.643.097-.74.808-.809l.809-.078.071-2.285c.071-2.281.073-2.286.746-2.363l.675-.078.069-3.794c.062-3.441.11-3.793.51-3.793.941 0 1.038-.458 1.038-4.884v-4.287l.684-.079.684-.079.069-3.771.068-3.771.72-.251c.463-.162.75-.455.802-.821.053-.365.303-.621.695-.713a.997.997 0 00.757-.756c.139-.59.231-.616 2.435-.685l2.29-.071v-1.474h2.83c2.944 0 3.638-.235 3.3-1.116-.121-.317.169-.377 1.818-.377 2.292 0 2.749-.129 2.749-.78 0-.616.219-.681 2.611-.766 1.967-.07 1.991-.079 2.069-.755.078-.675.102-.684 1.866-.687 2.503-.005 2.906-.147 2.906-1.021V200h5.748l.26-.746c.244-.7 2.359-1.084 4.259-.774.106.017.269-.333.363-.779l.17-.81.137.746.137.746 3.053.07 3.054.07-.071.676-.07.677 3.047.069c3.204.074 3.18.064 3.026 1.209-.048.362.672.521 2.577.567 2.21.053 2.521.144 2.317.677-.228.593.74.791 4.004.819 2.031.017 2.036.018 2.115.701l.078.684 2.931.07 2.931.07.147.739.148.738h2.954c2.446 0 2.959.064 2.985.373.017.205.045.513.062.684.022.215.761.349 2.395.435 2.321.123 2.363.136 2.363.747 0 .491.141.638.675.699.673.078.675.083.746 2.364l.071 2.285h1.742l-.005-3.941-.004-3.941-.68-.495c-.677-.493-.68-.507-.68-3.568 0-3.637-.169-4.244-1.226-4.399l-.764-.112-.003 3.253c-.003 1.789-.087 3.126-.187 2.971-.116-.178-1.232-.297-3.037-.325-3.244-.05-2.973.025-3.045-.844l-.055-.664h-6.11v-.746c0-.418-.137-.757-.311-.771a36.113 36.113 0 01-.809-.078 36.803 36.803 0 00-1.873-.1c-1.284-.043-1.395-.096-1.658-.793-.184-.488-.44-.733-.739-.707-1.825.161-5.499-.073-5.489-.349.026-.706-.078-1.18-.253-1.153-.103.017-1.446.017-2.985 0l-2.799-.029v-.746c0-.669-.084-.75-.808-.784-.752-.035-.761-.044-.125-.141.471-.071.73-.291.835-.709.138-.549.283-.607 1.555-.622 2.791-.034 3.053-.126 3.108-1.086.037-.636.044-.638 2.338-.638h2.301v-1.493l2.425-.029c1.334-.015 2.615-.01 2.845.013.464.046 1.059-.848.821-1.233-.094-.152.704-.244 2.125-.244h2.275l.282-.746c.275-.73.32-.747 2.093-.777a57.062 57.062 0 002.122-.062c.171-.017.346-.395.389-.84.071-.74.15-.808.932-.808h.855v1.472c0 1.432.021 1.478.74 1.636l.74.162.069 3.775.068 3.776h.746c.727 0 .751-.04.925-1.493.354-2.953-.15-7.118-.811-6.71-.462.286-.612-.689-.634-4.111-.031-4.686-.171-5.374-1.128-5.566-.746-.149-.877-2.255-.186-3.004.119-.13.218-.325.218-.435 0-.109-20.066-.2-44.59-.2-48.986-.002-48.63.005-48.743-.968-.058-.499-.233-.666-.76-.726-.585-.068-.684-.193-.687-.871-.006-1.409-.238-1.854-1.026-1.97l-.735-.108.044 2.192m120.377 4.691v2.488h-1.492v-4.694l.684-.103c.376-.057.712-.121.746-.141.034-.021.062 1.082.062 2.45m-97.264.124c0 .595-.118.881-.373.902-.205.017-.513.045-.684.062-.423.043-.719 3.4-.552 6.25.143 2.451.047 2.768-.878 2.898l-.622.087-.069 3.794c-.062 3.441-.109 3.793-.51 3.793-.941 0-1.038.458-1.038 4.884v4.287l-.684.079-.684.079-.069 3.763-.068 3.764-.74.148-.74.148v9.148l-.617-.118c-.77-.148-1.185.758-1.11 2.425.181 4.045.015 5.473-.636 5.473-.779 0-.676-.471-.847 3.856l-.148 3.731-.684.079c-.573.066-.684.197-.684.808 0 .645-.087.73-.747.73h-.746v-4.726c0-4.386.032-4.727.448-4.727.994 0 1.045-.348 1.045-7.247v-6.65l.684-.079.684-.078.124-6.83.125-6.83.621-.147.622-.146.066-7.623.066-7.622.805-.078.805-.078.067-4.54.068-4.539h7.7v.87m71.107-.124c.176.502.428.746.771.746.448 0 .515.167.548 1.368.02.753.048 1.508.062 1.679.014.172-.254.314-.595.316-.419.003-.648.164-.708.498-.14.776-.297.836-2.341.901-1.061.034-1.928.158-1.928.277 0 .118-.089.16-.197.093-.109-.067-.215.107-.236.386-.051.686.074.646-2.303.727-2.175.075-2.478.212-2.484 1.13-.004.51-.123.535-2.678.573-3.174.046-3.272.053-3.255.24.089.996-.365 1.265-2.185 1.296-2.431.041-2.453.045-2.489.404-.017.171-.045.479-.062.684-.026.304-.474.373-2.395.373h-2.363v1.493l-2.301.021c-3.517.031-4.142.223-3.799 1.161.082.222-.256.315-1.184.328-.714.009-1.634.072-2.044.14-.411.067-.864.134-1.007.148-.143.015-.283.306-.311.649-.077.928-.299.989-.299.082 0-.57-.12-.798-.436-.825-.239-.02-.603-.059-.808-.087-.205-.028-1.339-.067-2.519-.088l-2.145-.036-.152-.759c-.083-.416-.293-.739-.466-.716-.173.022-1.511.028-2.973.011l-2.657-.029-.079-.684-.079-.684-2.271-.071-2.272-.071-.142-.71-.142-.709-2.926-.04c-3.32-.046-3.049.027-3.121-.845-.061-.74-.824-.859-4.486-.698-1.613.071-1.68.051-1.683-.506-.002-.318-.086-.691-.187-.828-.195-.265-.264-.278-1.799-.336l-.995-.037v-7.711h67.861l.26.746m163.921 6.885c-.234.062-.455.408-.498.78-.06.521-.228.686-.761.747-.528.061-.684.211-.684.657 0 .62-.416.881-1.403.881-.81 0-.549.393.384.58.519.104.757.313.814.716.062.44.265.588.889.648.663.064.809.184.809.667 0 .42.159.611.556.668.649.093.896 1.078.926 3.686.012 1.14.089 1.507.259 1.244.132-.205.243-.832.245-1.393.005-1.323.435-2.534 1.009-2.841.264-.142.488-.583.534-1.052.059-.622.208-.827.641-.888.462-.066 1.302-1.318 1.302-1.941 0-.052-.45-.094-1.001-.094-.909 0-1.015-.067-1.148-.732-.112-.56-.301-.751-.802-.809-.539-.062-.67-.22-.734-.884-.078-.814-.291-.916-1.337-.64m-128.56.826c0 .664.083.747.746.747.656 0 .747.086.747.715 0 1.516.271 2.169 1.016 2.451.543.205.725.434.725.917v.643h-21.642v-6.219h18.408v.746m30.098.873c-.888 1.07.194 3.085 1.664 3.1.677.006.804.107.871.692l.079.684h2.114c2.104 0 2.115-.004 2.191-.662.066-.571-.035-.683-.746-.827-1.48-.298-1.661-.394-1.74-.922-.059-.396-.376-.597-1.313-.834-.776-.197-1.426-.553-1.751-.959-.589-.74-.926-.806-1.369-.272m-131.665 3.107h2.811v1.493h4.438l.158.718.158.719 2.89.04c3.18.044 3.389.094 3.175.768-.237.745.62.989 3.468.989 2.365 0 2.628.045 2.628.448 0 .62.486 1.044 1.196 1.044.518 0 .665.965.214 1.409-.023.023-1.252.076-2.731.119-2.925.086-2.991.103-3.118.836-.047.273-.104.517-.126.54-.022.024-.965.075-2.096.114-2.262.077-2.38.116-2.504.838-.047.274-.103.513-.125.531-.021.019-1.046.099-2.277.177-1.231.079-2.267.147-2.301.153-.034.005-.062.346-.062.756v.746h-5.673l-.26.747c-.258.739-.277.746-2.118.746-2.261 0-2.646.13-2.646.897 0 .515-.118.595-.87.595h-.871v-1.492c0-1.392.039-1.493.572-1.493 1.066 0 1.169-.379 1.169-4.278v-3.682h.593c.746 0 .892-.504.897-3.097.002-1.538.069-1.911.301-1.679.197.197 1.255.298 3.11.298m82.844 6.219c-.517 2.767.039 13.682.697 13.682.181 0 .505.176.72.391.355.355.39-.216.387-6.281-.004-7.436-.044-7.792-.878-7.792-.345 0-.612-.173-.669-.435-.055-.254-.162-.073-.257.435m48.652 8.383c-.457.089-.571.332-.715 1.521-.188 1.559-.447 2.037-1.104 2.037-.279 0-.486.252-.575.698-.112.558-.33.746-1.08.933-.789.197-.966.364-1.103 1.043l-.165.808h1.039c1.101 0 1.635-.331 1.635-1.013 0-.264.273-.472.746-.566.632-.127.746-.265.746-.902 0-.67.082-.753.747-.753h.746v-1.99c0-1.094-.084-1.974-.187-1.956l-.73.14m99.589 4.589a26.274 26.274 0 00-.163 2.513c-.001 1.081-.053 1.182-.597 1.182-.515 0-.609.137-.692 1.006-.127 1.33.041 1.565.889 1.243 1.049-.399 2.123-.308 2.818.239.806.634 1.483.635 1.684.002.211-.664.01-.929-.848-1.117-.588-.129-.749-.324-.887-1.076-.093-.505-.439-1.204-.769-1.552-.391-.412-.656-1.063-.76-1.866-.242-1.858-.495-2.074-.675-.574m-146.723 4.441c-.301 6.669.069 12.26.782 11.819.121-.074.29-.021.376.118.502.812.598-.369.551-6.775-.039-5.409-.123-7.034-.362-7.058a45.787 45.787 0 00-.666-.063c-.195-.017-.399-.227-.454-.466-.054-.239-.156.852-.227 2.425m255.43-.605c.235.613-.238.909-.995.621-.759-.289-.863-.673-.227-.839.823-.215 1.073-.171 1.222.218m-265.828 2.579c-.275.514-.354 6.721-.098 7.678.101.375.4.622.868.715l.714.143v8.831l.746.149.746.15v7.269l.735.277c.509.193.757.473.808.912.055.47.238.653.708.708.439.051.719.299.911.808.276.729.292.735 2.269.735h1.992l.164-.747c.137-.621.286-.746.891-.746.637 0 .726-.089.726-.73 0-.611.111-.742.684-.808l.684-.079v-13.681l-.685-.079c-.92-.106-.903-.208-1.034 6.049l-.13 6.165c-.014.576-.201.772-1.108 1.161-.601.258-1.175.601-1.275.764-.136.22-.228.223-.359.012-.096-.157-.726-.42-1.399-.586-1.06-.262-1.234-.394-1.302-.986-.056-.487-.22-.685-.566-.685-.643 0-1.022-1.031-.96-2.611.135-3.415-.07-4.332-1.043-4.656-.199-.066-.314-1.112-.36-3.27-.085-3.931-.214-4.582-.926-4.684-.52-.074-.546-.206-.607-3.062-.102-4.823-.232-5.597-.941-5.597-.334 0-.709.211-.853.481m51.414 11.253l-.691.252.023 9.803c.027 11.267-.219 10.3 2.617 10.3 1.29 0 1.612-.07 1.432-.311-.128-.171-.226-.534-.217-.808.012-.383-.185-.526-.856-.622l-.87-.124-.132-9.329c-.073-5.13-.157-9.356-.187-9.39-.087-.1-.381-.04-1.119.229m8.503 8.477c-.028 9.917-.036 9.98-1.167 10.091-.654.064-.799.185-.799.671 0 .327-.196.708-.435.848-.323.188.056.255 1.475.261 2.91.011 2.692.857 2.692-10.434v-9.659l-.784-.273c-.431-.15-.822-.273-.87-.273-.048 0-.099 3.946-.112 8.768m187.773-8.468l-.684.239v9.903c0 8.8.044 9.919.394 10.053.563.217 3.27.18 2.928-.039-.157-.1-.325-.463-.373-.805-.052-.363-.295-.678-.586-.757-.484-.132-.499-.375-.563-9.319-.069-9.732-.058-9.643-1.116-9.275m8.437.114c-.091.091-.166 4.244-.166 9.228 0 8.72-.018 9.066-.476 9.186-.352.092-.448.286-.365.743.062.344.009.554-.119.475-.127-.079-.3.036-.384.254-.132.344 1.562.406 3.023.11.339-.068.011-19.88-.331-20.011-.514-.197-.975-.191-1.182.015m-11.998 12.478c-.128.092-.357.391-.509.665-.299.537-3.061.72-4.699.311-1.086-.271-1.468.073-1.267 1.14l.165.884h7.446v-1.55c0-1.553-.358-2.01-1.136-1.45m-180.911 1.583l.084 1.321 3.479.069c3.765.076 4.106-.036 4.106-1.34 0-.676-.387-.834-1.367-.557-1.027.291-4.254.265-4.856-.038-.271-.137-.727-.367-1.012-.513-.497-.253-.515-.21-.434 1.058" fill="#cb5a9b"/><path d="M268.886 101.726c-2.27.191-4.73 1.986-5.221 3.808-.388 1.441-1.828 1.402-2.222-.06-.239-.888-1.321-2.24-1.793-2.24-.099 0-.524-.336-.944-.746l-.763-.747h-90.061l-.67.725c-.368.399-.95.763-1.292.809-.421.056-.736.344-.977.892-.202.459-.54.808-.782.808-.728 0-.726-.154-.72 39.982l.005 39.202 1.48 1.453c.814.799 1.622 1.453 1.797 1.454.868.004 2.138.548 2.247.963.349 1.337-1.786 1.274 43.353 1.274 36.418 0 41.689-.046 42.313-.371 1.142-.596 2.589-.472 3.841.328.605.386 1.414.897 1.798 1.134.383.237.77.62.858.852.089.231.391.607.671.834.822.667.791 17.599-.034 18.756-.298.419-.614 1.045-.701 1.392-.278 1.106-2.277 2.567-3.038 2.221-.78-.356-.974-.213-.438.322.69.691 2.606.362 2.606-.447 0-.185.207-.39.46-.456.263-.069.522-.43.604-.845.08-.398.422-1.022.759-1.386.806-.87 1.009-3.889.874-12.996l-.098-6.601-.802-.732c-.441-.403-.802-.843-.802-.979 0-.135-.252-.322-.56-.415-.308-.093-.839-.423-1.181-.734a7.713 7.713 0 00-1.431-.974c-1.044-.527-1.025-.582.319-.921.62-.156 1.284-.507 1.476-.78.191-.273.607-.625.924-.783.367-.182.668-.646.826-1.275.317-1.262 1.734-1.377 2.024-.165.205.86.552 1.289 1.262 1.559.321.122.57.425.57.693 0 .55.458.778 1.575.783 1.689.007 2.502.54 1.289.844-.341.085-.805.439-1.032.786-.228.347-.733.796-1.123.997-.459.238-.709.563-.709.924 0 .307-.241 1.003-.534 1.549-1.56 2.893-1.683 16.735-.159 17.896.187.142.533.771.769 1.397.324.86.674 1.276 1.431 1.701.551.31 1.272.833 1.602 1.163.655.656 2.449.838 3.375.343.847-.454.519-.658-.872-.542-1.111.092-1.474.017-2.024-.415-.369-.29-.778-.527-.909-.527-.6 0-1.792-1.178-2.244-2.216-.273-.628-.676-1.347-.895-1.598-1.024-1.167-.851-14.14.218-16.335a8.362 8.362 0 00.59-1.79c.108-.597.335-.972.649-1.072.265-.084.695-.424.956-.755.823-1.047 2.668-1.462 3.271-.737.273.329 5.236.373 41.913.373h41.604l-.087-.746c-.08-.684-.025-.746.67-.746.416 0 1.337-.177 2.047-.393 1.202-.366 1.758-.595 2.978-1.224.266-.137.778-.864 1.139-1.617l.656-1.368.157-17.289c.204-22.541.206-57.178.003-59.079-.132-1.236-.258-1.535-.73-1.741-.313-.137-.629-.484-.701-.771-.073-.287-.519-.707-.993-.933-.473-.225-.933-.606-1.021-.846-.274-.741-1.814-1.217-1.814-.56 0 .137.272.249.605.249.392 0 .662.18.767.511.09.282.544.694 1.01.916.465.222.91.605.988.85.078.245.443.683.811.973l.669.528-.068 38.452-.069 38.453-.725 1.267c-.399.697-1.039 1.5-1.424 1.784-1.728 1.276.593 1.216-47.477 1.216h-44.788l-1.268-1.269c-2.244-2.243-2.099.744-2.015-41.641.082-41.121-.054-38.076 1.771-39.834 2.76-2.658.567-2.45 26.286-2.49 12.382-.019 21.898-.12 21.146-.224-1.643-.227-41.109-.231-43.801-.005m46.164.015c-.411.105 7.929.19 18.532.19s18.943-.085 18.532-.19c-.41-.104-8.75-.19-18.532-.19s-18.122.086-18.532.19m38.495.178c.376.057.992.057 1.368 0 .376-.057.068-.103-.684-.103-.753 0-1.06.046-.684.103m-95.954.821c.289.272.654.494.811.494.696 0 2.467 2.14 2.882 3.482.5 1.617.499 74.361-.001 76.661-.428 1.967-2.13 3.394-4.399 3.689-2.657.345-86.861.322-88.476-.025-.698-.149-1.559-.541-1.914-.87-.356-.329-.745-.599-.865-.599s-.327-.252-.459-.56c-.132-.307-.493-.875-.802-1.262l-.562-.702v-76.207l.655-.871c.361-.479.729-1.113.819-1.409.109-.359.575-.686 1.401-.983.681-.245 1.453-.675 1.716-.955l.478-.509 44.096.067c43.585.065 44.101.072 44.62.559m54.958 37.083c-.092.148-.043.395.109.547.204.203.277.131.277-.27 0-.601-.129-.694-.386-.277m-103.547 1.289c-.356.43.041 1.043.55.847.488-.187.509-.512.058-.887-.256-.212-.406-.203-.608.04m99.953.43c.487.315.995.315.995 0 0-.137-.308-.247-.684-.245-.533.003-.602.057-.311.245m-97.536 1.315c-.466.449-1.109.999-1.429 1.221-.566.392-.57.417-.125.867.252.255.635.733.85 1.062.386.591 2.797 1.132 3.651.82.78-.286.376-3.05-.578-3.949-1.101-1.039-1.313-1.04-2.369-.021m100.148-.405c-.41.22-.763.413-.783.429-.021.016-.118.897-.216 1.957l-.179 1.928h1.522c1.176 0 1.621-.107 1.957-.472 1.321-1.434 1.613-1.79 1.526-1.865-.787-.681-1.712-.549-1.712.243 0 .428-.905.598-1.371.258-.511-.374-.234-1.149.41-1.149.585 0 .882-.67.538-1.215-.347-.552-.814-.583-1.692-.114m-98.677 1.889c-.122.859-1.198.93-1.198.079 0-.52.118-.639.639-.639.52 0 .624.104.559.56m94.799-.039c-.302.194-.302.257 0 .451.374.241 1.017.099 1.017-.226 0-.324-.643-.466-1.017-.225m-90.975.244c.049.147.196.267.326.267s.276-.12.325-.267c.049-.147-.097-.267-.325-.267s-.375.12-.326.267m-2.535.962c0 .877-.162 1.004-1.058.833l-.683-.13.684-.686c.894-.895 1.057-.898 1.057-.017m97.929.19l.649.425-.714.191c-.801.214-1.238-.066-1.014-.651.188-.49.283-.487 1.079.035m-2.904 1.56c-.328.208-.324.286.038.648.482.482.957.279.957-.408 0-.521-.398-.617-.995-.24m-94.155.256c-.189.306.495.604.864.376.145-.09.2-.267.121-.395-.19-.307-.791-.295-.985.019m100.18.04c.129.385.911.45 1.002.083.035-.137-.202-.286-.525-.332-.403-.057-.553.021-.477.249m-165.331.2c1.217.492.368 1.738-1.188 1.745-1.2.005-2.193.395-2.193.862 0 .205-.322.539-.717.743-.394.204-.789.659-.877 1.011-.09.355-.428.74-.762.868-.412.156-.649.487-.75 1.048-.369 2.046-.014 52.267.37 52.392.205.067.833.612 1.395 1.212.73.78 1.285 1.134 1.945 1.241.59.096 1.065.365 1.314.746.309.472.605.595 1.413.589.563-.003 2.422.06 4.132.141l3.11.148.541-.738c.39-.531.829-.783 1.566-.901.817-.131 1.125-.335 1.523-1.01.275-.465.757-1.014 1.072-1.22.868-.569.888-1.165.889-26.469.001-24.151-.088-26.577-1.009-27.566-.263-.283-.478-.622-.478-.754 0-1.113-2.988-2.52-5.473-2.576-.884-.02-2.039-.494-1.243-.51.291-.006.302-.052.05-.212-.386-.245.005-.651.82-.852.274-.067-.957-.128-2.736-.135-1.992-.008-3.034.068-2.714.197m162.58 1.078c-.23.278-.218.42.059.65.448.371.766-.059.455-.615-.188-.337-.259-.342-.514-.035m-100.382.123c-.219.353.212.781.567.562.185-.114.259-.332.165-.484-.2-.323-.557-.362-.732-.078m154.2.792c-.086.139-.09.253-.008.253.492 0-.52 1.02-1.182 1.191-.579.149-.826.371-.888.799-.047.326-.383.982-.746 1.458l-.661.866-.043 25.717-.043 25.717.676.795c.372.438.864 1.095 1.093 1.461.23.365.673.742.984.837.312.095.808.467 1.103.827l.536.655 4.315.039c5.381.049 6.616-.074 6.807-.676.079-.248.529-.579 1.002-.735.472-.156.859-.45.859-.655 0-.482.529-1.004 1.136-1.121.391-.075.515-.392.665-1.706.34-2.963.411-3.201.943-3.161.284.021.489.217.489.467 0 .236.112.499.249.583.164.101.249-2.267.249-6.919v-7.073l-.73-.146c-1.394-.279-1.402-3.874-.009-4.359l.739-.258v-15.449h-.607c-.867 0-.974-.319-.904-2.715.113-3.928.262-4.633 1.026-4.876.437-.138.485-.393.485-2.562l-.001-2.409-.637-.037c-.86-.05-.899-.109-1.221-1.891-.222-1.227-.403-1.614-.867-1.845-.322-.16-.727-.628-.9-1.038-.195-.464-.529-.777-.883-.828-.368-.053-.622-.303-.716-.704l-.146-.622-6.003-.067c-3.876-.043-6.06.023-6.161.187m-208.446.283c.608.153 1.105.38 1.105.505 0 .126.392.459.871.742.479.282.871.636.871.786 0 .15.307.594.684.987l.684.714.068 25.631.067 25.632-.814.953a61.699 61.699 0 00-1.311 1.585c-.938 1.192-2.879 1.639-7.111 1.639-4.937 0-5.847-.356-8.412-3.289l-.81-.926.025-25.436.025-25.436.705-.753c.388-.413.774-.949.858-1.19.084-.24.434-.565.778-.721.343-.157.689-.491.769-.744.229-.722 1.279-.879 6.159-.924 2.026-.019 4.181.091 4.789.245m219.684.502c.385.361.955.733 1.266.827.312.094.749.471.973.836.223.366.664.891.981 1.167.984.858 1.061 2.718 1.063 25.867.003 22.421-.126 27.247-.729 27.448-.182.061-.755.542-1.272 1.07s-1.104.959-1.304.959c-.201 0-.696.28-1.102.621-1.184.997-8.435 1.069-9.893.099-.536-.357-1.319-.782-1.741-.946-.524-.202-.908-.617-1.214-1.311-.246-.558-.657-1.224-.913-1.48-.448-.448-.465-1.37-.465-25.295v-24.83l.746-1.46c.411-.802.747-1.593.747-1.758 0-.285 1.429-1.102 1.927-1.102.129 0 .448-.237.708-.527 1.129-1.255 8.93-1.397 10.222-.185M9.95 163.184c0 .164 7.919.249 23.259.249s23.259-.085 23.259-.249c0-.164-7.919-.249-23.259-.249s-23.259.085-23.259.249m64.926 0c0 .164 7.374.249 21.627.249 14.149 0 21.68-.086 21.781-.249.102-.165-7.17-.249-21.628-.249-14.354 0-21.78.085-21.78.249m-12.645.54c.124.872 7.716 1.049 8.175.191.354-.661.18-.849-.468-.502-.657.352-6.63.352-7.288 0-.441-.236-.491-.199-.419.311m-40.633.144c6.475.037 16.998.037 23.384 0 6.385-.037 1.088-.067-11.773-.067s-18.085.03-11.611.067m64.036 0c5.986.037 15.781.037 21.766 0 5.986-.037 1.089-.067-10.883-.067-11.971 0-16.868.03-10.883.067M8.49 165.033c-.598.161-1.226.482-1.396.714-.169.232-.424.422-.565.422-1.205 0-1.006 6.472.218 7.106.406.209.835.639.955.954.328.863 1.594.885 50.592.89 44.295.004 44.706.01 44.175.649-.249.3.351.351 4.123.351 3.772 0 4.372-.051 4.123-.351-.522-.628.209-.748 4.632-.758 2.508-.006 4.383-.113 4.529-.259.165-.166-18.31-.249-55.427-.249H8.773l-.767-.746a37.885 37.885 0 00-1.3-1.205c-.487-.418-.526-.658-.448-2.747.102-2.739.968-4.009 3.003-4.403 2.425-.469 110.431-.266 110.969.208.489.431.489.429.054-.248l-.441-.684-55.133.032c-41.306.024-55.406.106-56.22.324m113.871 2.795c-.505 1.279-.553 2.685-.119 3.524.787 1.522 1.641.74 1.635-1.497-.006-2.147-.963-3.426-1.516-2.027m1.022 2.213c0 .908-.246 1.184-.848.953-.47-.18-.541-1.595-.103-2.033.452-.452.951.115.951 1.08m29.611 46.361c-.484.903-.331 7.472.178 7.629.239.074.629.238.867.365.237.127.604.231.815.231.412 0 .962 1.139.73 1.513-.279.452 1.144.217 1.63-.269 1.563-1.564 1.741-.599 1.741 9.438 0 7.555.05 8.701.39 8.983.517.429 4.751.451 5.518.029l.56-.309v-8.838c0-9.941.196-11.03 1.675-9.303.507.593 1.698.653 2.694.137 1.088-.565 1.104-.477 1.104 6.361 0 7.663-.066 7.432 2.114 7.432 2.283 0 2.23.174 2.282-7.463.023-3.488.051-6.43.062-6.536.01-.106.349-.022.753.187.654.338 9.858.379 84.08.379h83.345l.034 6.406c.019 3.523.086 6.125.15 5.783.225-1.212 1.431-1.391 1.682-.249.315 1.434 2.405 2.018 3.642 1.018.585-.474.587-.497.668-6.816l.08-6.34 1.456.132c1.231.112 1.558.05 2.129-.399 1.61-1.266 1.602-1.313 1.602 9.162 0 10.519-.327 9.587 3.358 9.587 3.687 0 3.359.949 3.359-9.702 0-9.991-.006-9.954 1.454-9.066.947.576 2.266.574 2.225-.003-.068-.955.097-1.163 1.14-1.442 1.344-.359 1.392-.511 1.396-4.421.003-2.309-.085-3.118-.384-3.545l-.387-.553H260.194c-105.476 0-106.946.007-107.2.482m214.321.451c.932 1.228.303 6.464-.847 7.055-.886.456-209.011.654-211.204.202-2.128-.439-2.279-.715-2.279-4.16 0-1.951.1-3.035.299-3.234.556-.556 213.609-.42 214.031.137m-202.398 9.001c.163.305.257 3.615.257 9.038v8.556l-.661.353c-.844.451-4.377.444-4.924-.01-.47-.39-.588-17.075-.128-17.937.229-.426.541-.481 2.728-.481 2.188 0 2.5.055 2.728.481m9.39.265c.584 1.161.441 12.853-.161 13.176-.705.377-2.148.314-2.499-.109-.465-.561-.262-12.831.222-13.414.543-.654 2.041-.441 2.438.347m174.705-.235c.425.793.223 12.47-.224 13.009-.656.789-2.153.54-2.615-.436-.479-1.009-.602-11.748-.144-12.603.382-.714 2.597-.692 2.983.03m11.147-.239c1.215.424 1.314 1.221 1.232 9.921-.087 9.211.142 8.589-3.154 8.588-3.305-.001-3.044.821-2.96-9.328.057-6.869.141-8.715.413-9.042.406-.489 3.214-.576 4.469-.139m-183.436 6.942c0 3.078.036 4.338.08 2.799.043-1.54.043-4.058 0-5.597-.044-1.54-.08-.28-.08 2.798" fill="#fca3cc"/><path d="M99.595 78.607c0 1.437.041 2.024.091 1.306.05-.718.05-1.894 0-2.612-.05-.718-.091-.131-.091 1.306m168.937 22.806c-2.778.112-3.02.194-3.196 1.071-.103.519-.295.75-.623.75-.577 0-.936.404-1.163 1.307-.291 1.162-1.736.99-2.027-.24-.164-.69-.374-.959-.834-1.064-.379-.087-.751-.449-.97-.944l-.357-.802-46.398.063-46.399.063-.146.622c-.112.482-.327.639-.953.7-.668.065-.834.205-.954.806-.124.621-.232.705-.744.576l-.599-.15.023 25.428c.013 13.985-.032 25.483-.099 25.55-.13.13-.651-1.566-.654-2.128-.001-.185-.337-.835-.747-1.443-.411-.608-.747-1.324-.747-1.59 0-.491-.339-.587-1.752-.499-1.206.076-1.906-.367-1.858-1.178.044-.728.033-.734-1.169-.664-1.34.079-2.192.545-1.638.897.252.16.241.206-.05.212-.796.016.359.49 1.243.51 2.485.056 5.473 1.463 5.473 2.576 0 .132.215.471.478.754.921.989 1.01 3.415 1.009 27.566-.001 25.304-.021 25.9-.889 26.469-.315.206-.797.755-1.072 1.22-.398.675-.706.879-1.523 1.01-.737.118-1.176.37-1.566.901l-.541.738-3.11-.148c-1.71-.081-3.569-.144-4.132-.141-.808.006-1.104-.117-1.413-.589-.249-.381-.724-.65-1.314-.746-.66-.107-1.215-.461-1.945-1.241-.562-.6-1.19-1.145-1.395-1.212-.384-.125-.739-50.346-.37-52.392.101-.561.338-.892.75-1.048.334-.128.672-.513.762-.868.088-.352.483-.807.877-1.011.395-.204.717-.539.717-.745 0-.206.252-.476.56-.6.512-.206.492-.226-.231-.241-.636-.012-.807.094-.871.542-.046.322-.289.596-.577.65-.604.114-.862.475-.867 1.218-.003.455-.143.56-.75.56h-.746v54.503l.744.259c.409.143.886.556 1.06.919.244.509.596.719 1.548.921 1 .212 1.26.377 1.379.872.135.567.259.611 1.75.629.882.01 3.338.054 5.459.099l3.856.08.126-.721c.103-.59.298-.763 1.073-.955.758-.188.975-.373 1.087-.933.089-.446.296-.698.575-.698.656 0 .916-.477 1.103-2.024.157-1.301.222-1.413.901-1.549l.732-.146v-7.332c0-6.609-.041-7.356-.418-7.566-.604-.339-.615-2.484-.015-2.869.363-.232.536-.158 1.004.429.376.47.981.814 1.801 1.021.948.24 1.253.436 1.314.845.051.344.317.586.747.681.366.081.862.201 1.102.266.677.184.512-.147-.211-.422-.355-.135-.704-.467-.774-.736-.117-.447-1.35-.991-2.255-.995-.175-.001-.983-.655-1.797-1.454l-1.48-1.453-.005-39.202c-.006-40.136-.008-39.982.72-39.982.242 0 .58-.349.782-.808.241-.548.556-.836.977-.892.342-.046.924-.41 1.292-.809l.67-.725h90.061l.763.747c.42.41.845.746.944.746.472 0 1.554 1.352 1.793 2.24.394 1.462 1.834 1.501 2.222.06.18-.667.687-1.317 1.78-2.279l1.528-1.345 2.635-.22c1.449-.122 11.986-.168 23.416-.103 11.43.065 21.174.098 21.653.074 1.577-.08 36.877-.031 39.801.055 3.403.1 3.64.148 3.803.772.069.264.521.669 1.004.9.484.23.938.654 1.011.941.072.287.388.634.701.771.472.206.598.505.73 1.741.203 1.901.201 36.538-.003 59.079l-.157 17.289-.656 1.368c-.361.753-.873 1.48-1.139 1.617-1.22.629-1.776.858-2.978 1.224-.71.216-1.627.393-2.037.393-.662 0-.741.078-.696.684.066.873 2.629 1.242 2.684.386.016-.246.044-.616.062-.821.022-.237.535-.495 1.402-.705 4.19-1.014 4.017.977 3.927-45.215-.076-39.274-.024-37.662-1.221-37.662-.332 0-.467-.18-.467-.618 0-.467-.166-.657-.684-.782-.377-.091-.98-.513-1.341-.938l-.657-.772-43.622-.018c-23.992-.009-44.517.019-45.612.063m-130.405 23.96c0 .616.049.868.108.56.06-.308.06-.812 0-1.12-.059-.307-.108-.056-.108.56m-74.57 14.387c-.069.069-.881.191-1.804.27l-1.678.144-.255 1.493c-.233 1.365-.312 1.499-.933 1.571l-.678.079v2.688c0 3.752-.126 4.272-.998 4.119l-.688-.121.111 4.911c.125 5.529.126 5.534.823 5.534.355 0 .621.283.887.948.28.701.603 1.029 1.241 1.26.99.357 1.058.535.373.963-.361.225-.67.236-1.181.041-.473-.18-8.327-.255-24.76-.236-13.237.015-24.067-.061-24.067-.169 0-.107-.256-.21-.568-.228-.501-.029-.557.065-.473.784l.095.816-1.579.211-1.579.212-.066 1.119c-.11 1.887-.246 2.199-.992 2.285-1.031.118-1.053 2.274-.025 2.393.708.082.949.577.955 1.96.003.678.102.803.687.871.527.06.702.227.76.726.113.973-.243.966 48.743.968 24.524 0 44.59.091 44.59.2 0 .11-.099.305-.218.435-.691.749-.56 2.855.186 3.004.957.192 1.097.88 1.128 5.566.022 3.422.172 4.397.634 4.111.683-.422 1.183 5.328.714 8.203-.063.384.077.515.616.577.984.113 1.168.806 1.168 4.393 0 3.048.006 3.077.669 3.559.694.507 1.238 6.929.692 8.188-.336.776-.421 1.776-.106 1.255.144-.239.529-.435.854-.435.705 0 .836.781.938 5.597.061 2.856.087 2.988.607 3.062.712.102.841.753.926 4.684.046 2.158.161 3.204.36 3.27.973.324 1.178 1.241 1.043 4.656-.062 1.58.317 2.611.96 2.611.346 0 .51.198.566.685.068.592.242.724 1.302.986.673.166 1.303.429 1.399.586.131.211.223.208.359-.012.1-.163.674-.506 1.275-.764.965-.414 1.094-.563 1.109-1.285l.113-5.419c.052-2.532.161-5.344.243-6.25.146-1.623-.107-2.17-.926-2.001-.692.143-1.044-5.724-.72-12.006.157-3.035.021-3.624-.833-3.624-.683 0-1.24-11.322-.673-13.682.23-.957.127-1.574-.228-1.355-.125.078-.227.029-.227-.108s-.224-.206-.498-.154c-.396.077-.499-.039-.505-.574-.004-.368-.111-3.406-.238-6.752-.156-4.129-.147-6.181.026-6.39.512-.617.155-1.7-.589-1.785-.436-.05-.689-.231-.699-.498-.009-.23-.07-.894-.137-1.476l-.121-1.057 3.557-.001c4.584-.002 5.312-.194 5.705-1.505.233-.779.394-.962.753-.861l.955.269c1.295.368 1.435.069 1.477-3.157.045-3.461-.061-3.7-1.629-3.7-1.005 0-1.112-.064-1.449-.871-.2-.479-.468-.87-.594-.87-.127 0-.295-.323-.374-.717-.144-.719-1.485-1.26-1.812-.731-.072.117-9.989.206-22.038.2-12.049-.007-21.966.047-22.039.12-.229.229-1.304.144-1.847-.146-.478-.256-.422-.313.693-.698 1.111-.384 1.243-.515 1.571-1.574.293-.944.477-1.169 1.003-1.23l.645-.075v-6.965h-.622c-.794 0-.943-.875-.973-5.729l-.022-3.491-.727-.274c-.533-.201-.749-.465-.809-.987-.064-.568-.22-.729-.765-.792-.531-.061-.684-.21-.684-.666 0-.842-7.349-1.898-8.085-1.162m6.323.696c.507.102.911.395 1.132.822.189.366.629.795.977.954.381.173.691.565.777.981.078.381.379 1.252.669 1.936.532 1.258.653 2.377 1.082 9.983.275 4.885-.39 6.704-2.678 7.32-.737.198-1.025.445-1.307 1.121l-.363.868-3.928-.069-3.928-.069-.076-.662c-.06-.518-.305-.754-1.12-1.077-1.016-.403-2.411-1.51-2.411-1.913 0-.111-.335-.913-.746-1.781-.883-1.87-.966-3.367-.26-4.685.509-.95 1.006-4.662 1.006-7.514 0-1.222.101-1.622.493-1.957.27-.232.619-.925.773-1.54.181-.717.451-1.172.752-1.267.259-.082.59-.372.735-.644.47-.879 5.604-1.37 8.421-.807m143.242 5.069l-.684.686.683.13c.896.171 1.058.044 1.058-.833 0-.881-.163-.878-1.057.017m97.907.138c-.224.585.213.865 1.014.651l.714-.191-.649-.425c-.796-.522-.891-.525-1.079-.035m-161.933 2.656c.021.702-.073.828-.718.966-.684.146-.664.161.254.184 1.197.031 1.693-.242 1.746-.963.033-.446-.646-.994-1.231-.994-.041 0-.064.364-.051.807m216.538 1.246c-.021.171-.049.477-.063.681-.014.209-.35.427-.77.499-.628.107-.759.256-.824.935-.057.586-.202.808-.529.808-1.027 0-1.015-.35-.949 27.635l.063 26.96.657.315c.362.173.726.587.81.92.105.42.354.628.816.683.435.051.808.337 1.077.825l.412.746h12.375l.146-.62c.083-.349.36-.661.634-.711.69-.128 1.108-.523 1.108-1.046 0-.307.219-.476.684-.529.612-.071.692-.19.761-1.135.072-.996.721-1.795 1.127-1.388.312.312.71-1.271.432-1.719-.147-.238-.268-.578-.268-.756 0-.178-.22-.34-.489-.36-.532-.04-.603.198-.943 3.161-.15 1.314-.274 1.631-.665 1.706-.607.117-1.136.639-1.136 1.121 0 .205-.387.499-.859.655-.473.156-.923.487-1.002.735-.191.602-1.426.725-6.807.676l-4.315-.039-.536-.655c-.295-.36-.791-.732-1.103-.827-.311-.095-.754-.472-.984-.837a15.508 15.508 0 00-1.093-1.461l-.676-.795.043-25.717.043-25.717.661-.866c.363-.476.699-1.132.746-1.458.062-.428.309-.65.888-.799.684-.177 1.491-1.034 1.354-1.44-.023-.068 2.667-.124 5.979-.124h6.021l.146.622c.094.401.348.651.716.704.354.051.688.364.883.828.173.41.578.878.9 1.038.464.231.645.618.867 1.845.155.854.328 1.595.386 1.647.309.279 1.204.39 1.342.167.088-.143.014-.261-.165-.263-.261-.003-.259-.046.009-.216.576-.365.221-1.133-.587-1.272-.674-.115-.75-.227-.82-1.193-.069-.95-.154-1.08-.795-1.208-.544-.109-.736-.302-.793-.8-.06-.513-.23-.673-.786-.737-.629-.072-.697-.163-.603-.808l.107-.727h-6.798c-5.252 0-6.806.07-6.835.311m-310.821 7.4c0 1.163.043 1.639.096 1.057.052-.581.052-1.533 0-2.114-.053-.582-.096-.106-.096 1.057m23.115-.746c0 .616.049.867.108.56.06-.308.06-.812 0-1.12-.059-.308-.108-.056-.108.56m305.062 5.603c-.222.221-.417.535-.435.696-.494 4.516-.326 6.636.525 6.636.431 0 .438-.052.097-.735-.296-.594-.313-.934-.085-1.78.165-.613.213-1.635.115-2.474-.107-.923-.063-1.623.125-1.973.37-.691.182-.894-.342-.37m-338.008 2.046c-6.386.037-16.909.037-23.384 0-6.474-.037-1.25-.067 11.611-.067s18.158.03 11.773.067m62.418 0c-5.985.037-15.78.037-21.766 0-5.985-.037-1.088-.067 10.883-.067 11.972 0 16.869.03 10.883.067m12.845 1.422c.328.5.401 1.337.396 4.54-.007 5.476.306 5.167-5.267 5.18-4.937.011-5.09.052-4.436 1.179.315.543.52 1.562.636 3.164.095 1.3.317 2.755.495 3.234.503 1.351.831 4.298.866 7.77.048 4.811.311 7.137.911 8.052.259.396.414 2.198.597 6.97.23 5.991.442 7.731 1.029 8.473.129.162.335 3.055.459 6.429.24 6.552.345 7.541.922 8.681.264.519.407 1.927.501 4.911l.132 4.184-.954.899c-1.09 1.028-2.879 1.122-3.54.185-1.607-2.275-1.634-2.352-1.83-5.31-.202-3.049-.344-3.79-.894-4.642-.208-.324-.449-1.861-.605-3.856-.195-2.503-.397-3.629-.824-4.583-.414-.926-.614-1.992-.747-3.98-.101-1.493-.347-3.163-.548-3.71-.623-1.701-.83-2.801-1.056-5.614-.162-2.011-.363-2.995-.771-3.777-.416-.797-.582-1.636-.674-3.41-.068-1.295-.268-2.862-.445-3.483l-.716-2.497c-.216-.753-.395-2.048-.396-2.878-.004-1.886-.443-4.341-.864-4.834-.288-.338-.73-4.014-.97-8.084-.075-1.273 0-1.609.511-2.279.332-.436.492-.852.36-.933-.131-.081-20.034-.15-44.229-.152-48.998-.005-50.264-.027-50.592-.89-.12-.315-.549-.745-.955-.954-1.224-.634-1.423-7.106-.218-7.106.141 0 .396-.19.565-.422.74-1.011.384-1.004 57.616-1.038l55.133-.032.402.613m3.321 2.64c.375.735.411 3.068.057 3.728-.658 1.231-1.882-.321-1.664-2.11.273-2.241.944-2.916 1.607-1.618m137.975 16.511c-.147.66-.419 1.096-.8 1.283-.317.157-.733.508-.924.781-.192.273-.856.624-1.476.78-1.344.339-1.363.394-.319.921a7.713 7.713 0 011.431.974c.342.311.873.641 1.181.734.308.093.56.28.56.415 0 .136.361.576.802.979l.802.732.098 6.601c.135 9.107-.068 12.126-.874 12.996-.337.364-.679.988-.759 1.386-.082.415-.341.776-.604.845-.253.066-.46.271-.46.456 0 .87-2 1.134-2.67.353-.648-.757-104.046-.791-104.046-.034 0 .255-.224.749-.498 1.097-.451.572-.497 1.009-.497 4.63v3.999l.684.15c1.267.277 1.343.34 1.261 1.035-.084.714.594 1.111 1.075.629.331-.33-.185-1.556-.654-1.556-.211 0-.578-.104-.815-.231a5.999 5.999 0 00-.867-.365c-.509-.157-.662-6.726-.178-7.629.254-.475 1.724-.482 107.2-.482h106.942l.387.553c.299.427.387 1.236.384 3.545-.004 3.902-.054 4.062-1.379 4.417-1.071.286-1.476.827-1.186 1.584.272.708 1.04.393 1.122-.459.063-.648.202-.825.7-.892.994-.133 1.026-.272 1.01-4.384-.015-3.521-.066-3.977-.513-4.545-.273-.348-.497-.841-.497-1.096 0-.757-94.268-.723-95.025.034-.755.754-2.808.696-3.607-.103-.33-.33-1.051-.853-1.602-1.163-.757-.425-1.107-.841-1.431-1.701-.236-.626-.582-1.255-.769-1.397-1.524-1.161-1.401-15.003.159-17.896.293-.546.534-1.242.534-1.549 0-.361.25-.686.709-.924.39-.201.895-.65 1.123-.997.227-.347.691-.701 1.032-.786 1.213-.304.4-.837-1.289-.844-1.117-.005-1.575-.233-1.575-.783 0-.268-.249-.571-.57-.693-.707-.269-1.057-.699-1.259-1.547-.292-1.223-1.771-1.117-2.053.147m1.938.696c.064.664.195.822.734.884.501.058.69.249.802.809.133.665.239.732 1.148.732.551 0 1.001.042 1.001.094 0 .623-.84 1.875-1.302 1.941-.433.061-.582.266-.641.888-.046.469-.27.91-.534 1.052-.574.307-1.004 1.518-1.009 2.841-.002.561-.113 1.188-.245 1.393-.17.263-.247-.104-.259-1.244-.03-2.608-.277-3.593-.926-3.686-.397-.057-.556-.248-.556-.668 0-.483-.146-.603-.809-.667-.624-.06-.827-.208-.889-.648-.057-.403-.295-.612-.814-.716-.933-.187-1.194-.58-.384-.58.987 0 1.403-.261 1.403-.881 0-.446.156-.596.684-.657.533-.061.701-.226.761-.747.137-1.187 1.723-1.308 1.835-.14m119.551-.273c-1.164.425-1.297 3.965-.162 4.325.623.198.905-.043.511-.437s-.367-1.554.07-2.993c.197-.65.335-1.173.308-1.162l-.727.267m2.483-.111c.309.06.757.057.995-.005s-.015-.111-.563-.108c-.547.003-.742.054-.432.113m-360.069 1.441c.002.684.05.934.108.556.057-.378.055-.938-.004-1.243-.059-.306-.106.003-.104.687m8.076.051a3.56 3.56 0 001.119 0c.308-.059.056-.108-.559-.108-.616 0-.868.049-.56.108m53.731 0c.308.059.812.059 1.12 0 .307-.059.056-.108-.56-.108-.616 0-.868.049-.56.108m176.524 22.823c.104.803.369 1.454.76 1.866.33.348.676 1.047.769 1.552.138.752.299.947.887 1.076.858.188 1.059.453.848 1.117-.201.633-.878.632-1.684-.002-.695-.547-1.769-.638-2.818-.239-.848.322-1.016.087-.889-1.243.083-.869.177-1.006.692-1.006.544 0 .596-.101.597-1.182.007-3.368.502-4.516.838-1.939m106.81 3.044c-.636.166-.532.55.227.839.757.288 1.23-.008.995-.621-.149-.389-.399-.433-1.222-.218m-221.287.397c-.215.259-.106.319.526.291 1.403-.062 1.669-.109 1.668-.3 0-.339-1.912-.331-2.194.009m8.102 13.133c-.686.4-.521.746.222.464.98-.372.951-.619 1.084 9.3l.125 9.246.87.124c.671.096.868.239.856.622-.025.8.382 1.119 1.43 1.119 1.29 0 1.943-.373 1.943-1.112 0-.49.143-.611.799-.675 1.131-.111 1.139-.174 1.167-10.091.013-4.822.073-8.768.133-8.768.059 0 .39.107.734.238.502.19.599.168.491-.115-.075-.194-.369-.427-.654-.518-1.119-.355-1.177.12-1.177 9.637v8.899l-.56.309c-.767.422-5.001.4-5.518-.029-.34-.282-.39-1.428-.39-8.983 0-9.895-.099-10.515-1.555-9.667m196.048.242l-.587.51.622-.166c.342-.091.733-.181.87-.199.16-.022.293 3.287.373 9.283.121 9.053.139 9.321.622 9.453.291.079.534.394.586.757.126.894.429 1.006 2.607.963 1.38-.027 1.987-.137 2.079-.375.071-.185.233-.272.36-.193.128.079.181-.131.119-.475-.083-.456.013-.651.361-.743.454-.118.477-.516.539-9.289l.066-9.166.808.036c.992.045 1.009-.044.099-.515-1.268-.656-1.28-.57-1.28 9.205 0 10.628.328 9.682-3.359 9.682-3.685 0-3.358.932-3.358-9.587 0-10.396-.016-10.495-1.527-9.181m-183.561.071l-.608.303v6.434c0 5.47.055 6.461.373 6.618 1.527.756 1.781.797 4.022.645 1.277-.086 2.489-.166 2.694-.176.324-.016.366-.917.319-6.765l-.054-6.748-.63-.33c-.346-.181-.639-.242-.649-.135-.011.106-.039 3.049-.062 6.537-.052 7.637.001 7.463-2.282 7.463-2.18 0-2.114.231-2.114-7.432 0-6.755-.024-6.905-1.009-6.414m179.821 6.53c-.081 6.345-.083 6.367-.668 6.841-1.237 1-3.327.416-3.642-1.018-.284-1.294-1.617-.912-1.616.462.001 1.036.166 1.086 3.702 1.132 1.593.02 1.874-.043 2.115-.474.152-.274.305-.544.339-.601.034-.057.314-.123.622-.145l.559-.041.067-6.106.066-6.107-.564-.151c-.31-.083-.639-.152-.731-.154-.093-.002-.205 2.861-.249 6.362" fill="#e294c4"/><path d="M268.699 102.488c-.455.106-.984.417-1.175.69-.192.273-.631.567-.976.654-.345.087-.628.274-.628.416 0 .142-.363.59-.808.996l-.809.738-.076 38.116c-.081 40.034-.069 40.53.981 40.863.249.079.638.457.865.84.605 1.025.283 1.018 45.968.99 50.507-.031 45.894.247 48.115-2.891l.665-.94.155-16.915c.085-9.304.169-26.33.186-37.837l.032-20.92-.62-.846a12.071 12.071 0 01-.998-1.653c-.226-.482-.564-.809-.836-.809-.251 0-.79-.318-1.197-.707-.734-.701-.773-.708-4.826-.871-5.723-.23-83.007-.151-84.018.086m-100.023.601c-.316.336-.997.68-1.525.769-1.084.183-1.301.391-1.697 1.623-.156.483-.506 1.07-.779 1.303-.491.421-.496.77-.496 38.219v37.795l.622.739c.342.406.622.824.622.928 0 .104.476.647 1.057 1.208l1.057 1.019h45.025c44.66 0 46.393-.029 46.393-.763 0-.209.339-.571.753-.804 1.151-.647 1.113.724 1.113-40.414v-38.747l-.809-.756c-.444-.416-.808-.86-.808-.987s-.308-.306-.684-.397c-.376-.091-1.02-.401-1.43-.689l-.747-.523-43.548-.065-43.549-.065-.57.607m44.322 36.312c.474.36.559 1.062.199 1.632-.163.257-.079.466.289.724.522.365.966.087 1.258-.79.113-.34 1.888-.261 2.328.104.461.383.047.884-.903 1.093-1.02.224-1.146.53-1.044 2.55.083 1.657.138 1.816.681 1.953.864.216 1.2.709.885 1.298-.539 1.006-1.744.961-2.22-.084-.547-1.201-2.851-.904-4.196.54-1.193 1.281-1.272 1.278-1.573-.059-.189-.835-.138-.998.491-1.585.845-.79.544-1.501-.638-1.507-1.345-.007-1.831-1.026-.663-1.388.243-.076.833-.312 1.312-.526l.871-.389-.649-.224c-.943-.325-1.314-1.274-.764-1.954.535-.66 1.709-.262 1.94.659.233.929 1.09.213 1.09-.911 0-1.294.511-1.739 1.306-1.136m100.385-.048c.164.164.299.67.299 1.124 0 2.312.911 3.304 3.034 3.304 1.083 0 1.662.556 1.182 1.135-.199.239-.63.362-1.122.319-.848-.073-1.602.37-1.602.94 0 .188.156.342.346.342.858 0 1.528.905 1.168 1.577-.506.947-.827.949-2.006.017-1.47-1.163-3.519-1.246-4.036-.163-.618 1.295-2.44.848-2.098-.514.081-.32.429-.711.774-.869.585-.266.628-.406.628-2.029v-1.743l-.914-.382c-1.823-.762-1.901-1.438-.202-1.756 1.07-.201 1.777.035 1.937.647.138.528.576.621 1.167.247.296-.187.308-.298.062-.544-.657-.657-.202-1.95.687-1.95.218 0 .532.134.696.298m3.08 1.608c.532.481.023 1.328-.799 1.328-.783 0-1.118-.687-.61-1.249.544-.601.816-.616 1.409-.079m-254.523.8c-.342.383-.76.743-.929.799-.169.056-.38.661-.468 1.345-.098.754-.416 1.586-.808 2.112-.614.824-.652 1.05-.727 4.354-.044 1.916-.161 4.156-.261 4.977-.411 3.378.932 6.592 2.754 6.592.333 0 .679.075.77.165.939.939 5.173 1.385 6.51.686.411-.215 1.321-.54 2.023-.724a4.7 4.7 0 002.206-1.262l.929-.93-.182-6.088c-.176-5.854-.206-6.123-.776-6.963-.351-.517-.594-1.24-.596-1.772-.006-1.421-.256-2.01-1.024-2.407-.393-.203-.714-.53-.714-.727 0-.688-.97-.873-4.524-.864l-3.561.01-.622.697m156.324 2.405c.454.336.456.377.046.83-.621.686-1.302.789-1.883.285-1.354-1.174.356-2.211 1.837-1.115m90.708-.376c.589.315.609.681.069 1.277-.534.59-1.131.577-1.862-.042l-.587-.498.587-.497c.66-.559 1.09-.616 1.793-.24m-95.65 4.732c.516.571.352 1.05-.569 1.662-.481.319-.566.293-.947-.288-.922-1.408.4-2.607 1.516-1.374m100.316.318c.108.944-.588 1.736-1.226 1.395-.869-.465-1.035-1.15-.417-1.725.772-.719 1.541-.565 1.643.33m-166.468 2.265c-.487.487-1 .885-1.142.885-.141 0-.257.157-.257.35 0 .192-.392.818-.871 1.391l-.87 1.042v49.856l.87.951c.479.522.871 1.048.871 1.168 0 .119.155.217.345.217.189 0 .516.263.727.584 1.482 2.262 13.605 1.169 13.605-1.227 0-.171.308-.535.684-.809l.684-.499-.09-25.579c-.099-28.431.082-25.521-1.696-27.261-2.029-1.985-1.319-1.793-6.919-1.877l-5.056-.076-.885.884m220.916-.278c-.212.325-.897.744-1.559.955-1.07.342-1.224.491-1.653 1.598-.26.672-.662 1.367-.895 1.544-.692.527-.779 49.909-.088 50.279.257.137.703.797.99 1.466.456 1.06.677 1.274 1.714 1.666.655.247 1.458.655 1.784.908.774.598 7.822.701 8.163.119.24-.408 1.641-1.153 2.171-1.153.208 0 .552-.334.763-.743.211-.408.652-.81.979-.892.831-.208.81.501.786-27.357l-.022-24.39-.933-1.09c-.513-.6-.933-1.22-.933-1.379 0-.158-.444-.435-.986-.614-.543-.179-1.234-.589-1.536-.91-.85-.905-8.152-.911-8.745-.007M8.905 165.848c-.373.057-.737.308-.818.563-.081.253-.408.631-.728.841-1.241.813-1.135 4.872.142 5.401.399.165.955.593 1.236.95l.512.651H64.43c30.349 0 55.274-.093 55.388-.207.114-.114.207-2.017.207-4.229v-4.022l-55.224-.025c-30.373-.014-55.526.021-55.896.077m93.548 11.08c-.266 2.368.146 6.877.732 7.997.549 1.05.665 1.668.798 4.234.125 2.42.256 3.175.675 3.876.412.688.583 1.624.818 4.477.176 2.139.426 3.759.613 3.981.562.664.833 2.057.949 4.893.093 2.263.207 2.909.614 3.483.594.835 1.054 3.53 1.054 6.171 0 1.505.103 2.029.501 2.568.613.828.989 2.983.991 5.674.001 1.645.094 2.137.501 2.655.654.831.993 2.697.993 5.468 0 1.865.09 2.384.541 3.115.299.482.67 1.447.826 2.143.275 1.226.315 1.27 1.219 1.346 2.444.205 3.262-2.378 1.996-6.301-.583-1.807-.66-2.537-.849-8.081-.179-5.26-.28-6.299-.74-7.587-.46-1.291-.561-2.335-.747-7.712-.185-5.366-.286-6.417-.741-7.665-.562-1.545-.706-3.225-.857-9.996-.073-3.278-.175-4.178-.578-5.1-.507-1.16-1.065-5.57-1.065-8.41v-1.54h-4.105c-3.099 0-4.113.076-4.139.311m166.22 12.317c-.419.203-.763.469-.763.591s-.383.405-.852.628c-.752.359-.872.551-1.021 1.632-.093.674-.437 1.91-.764 2.746-.908 2.315-.913 12.429-.008 14.011.32.56.662 1.344.76 1.742.202.819 1.555 2.34 2.082 2.34.192 0 .646.155 1.009.343 1.605.833 2.001.947 2.745.783l.776-.17v-8.546c0-8.828-.1-9.823-.982-9.823-.466 0-.5-.191-.565-3.161l-.07-3.162-.792-.162a2.516 2.516 0 00-1.555.208m-14.527-.024c-.206.206-.214 7.961-.009 8.727.111.415.334.559.863.559h.714l.066 6.903.066 6.903.684.079c.598.069.684.186.684.933 0 .952 1.57 1.341 1.904.472.08-.211.469-.549.862-.753.478-.247.717-.563.717-.948 0-.318.333-1.071.741-1.673l.742-1.095.005-8.013.004-8.014-.717-.817c-.394-.45-.757-1.025-.808-1.279-.058-.288-.508-.601-1.207-.837-.614-.207-1.298-.587-1.522-.845-.409-.471-3.383-.709-3.789-.302M153.629 216.88c-.071.115-.145 1.454-.164 2.975-.039 3.119.099 3.426 1.708 3.8 2.252.523 210.063.262 210.927-.265 1.001-.61 1.103-1.023 1.013-4.111l-.073-2.488-106.641-.06c-58.653-.033-106.699.034-106.77.149m6.508 9.259c-.401.234-.436.924-.436 8.808v8.555l1.136.17c1.481.222 3.347.004 3.618-.424.118-.185.216-4.102.218-8.704l.004-8.367-.56-.15c-.892-.239-3.504-.165-3.98.112m186.309-.114c-.097.097-.177 2.728-.177 5.846 0 6.429.101 6.935 1.396 6.935 1.092 0 1.13-.259 1.039-7.214l-.072-5.597-1.004-.074c-.552-.041-1.084.006-1.182.104m-174.438.395c-.069.182-.096 3.125-.06 6.541.073 6.819.024 6.626 1.583 6.234l.607-.152-.067-6.4-.066-6.399-.935-.078c-.607-.05-.979.039-1.062.254m183.827.012c-.066.172-.091 4.118-.055 8.769l.066 8.456 2.283-.003c1.256-.002 2.375-.095 2.488-.207.321-.321.415-14.811.102-15.856-.392-1.312-4.456-2.276-4.884-1.159" fill="#fcfcfc"/><path d="M168.397 102.623c-.263.28-1.035.71-1.716.955-.826.297-1.292.624-1.401.983-.09.296-.458.93-.819 1.409l-.655.871v76.207l.562.702c.309.387.67.955.802 1.262.132.308.339.56.459.56s.509.27.865.599c.355.329 1.216.721 1.914.87 1.615.347 85.819.37 88.476.025 2.269-.295 3.971-1.722 4.399-3.689.5-2.3.501-75.044.001-76.661-.415-1.342-2.186-3.482-2.882-3.482-.157 0-.522-.222-.811-.494-.519-.487-1.035-.494-44.62-.559l-44.096-.067-.478.509m99.762-.4c-.643.196-1.406.78-2.904 2.222-1.825 1.758-1.689-1.287-1.771 39.834-.084 42.385-.229 39.398 2.015 41.641l1.268 1.269h44.788c48.07 0 45.749.06 47.477-1.216.385-.284 1.025-1.087 1.424-1.784l.725-1.267.069-38.453.068-38.452-.669-.528c-.368-.29-.733-.728-.811-.973-.078-.245-.523-.628-.988-.85-.466-.222-.916-.62-1-.884-.1-.317-.467-.532-1.078-.633-1.35-.224-87.876-.151-88.613.074m84.558.179c4.053.163 4.092.17 4.826.871.407.389.946.707 1.197.707.272 0 .61.327.836.809.208.444.657 1.188.998 1.653l.62.846-.032 20.92a6042.424 6042.424 0 01-.186 37.837l-.155 16.915-.665.94c-2.221 3.138 2.392 2.86-48.115 2.891-45.685.028-45.363.035-45.968-.99-.227-.383-.616-.761-.865-.84-1.05-.333-1.062-.829-.981-40.863l.076-38.116.809-.738c.445-.406.808-.854.808-.996 0-.142.283-.329.628-.416.345-.087.784-.381.976-.654.191-.273.72-.584 1.175-.69 1.011-.237 78.295-.316 84.018-.086m-95.627.733c.41.288 1.054.598 1.43.689.376.091.684.27.684.397s.364.571.808.987l.809.756v38.747c0 41.138.038 39.767-1.113 40.414-.414.233-.753.595-.753.804 0 .734-1.733.763-46.393.763h-45.025l-1.057-1.019c-.581-.561-1.057-1.104-1.057-1.208 0-.104-.28-.522-.622-.928l-.622-.739v-37.795c0-37.449.005-37.798.496-38.219.273-.233.623-.82.779-1.303.396-1.232.613-1.44 1.697-1.623.528-.089 1.209-.433 1.525-.769l.57-.607 43.549.065 43.548.065.747.523m-45.1 36.218c-.164.164-.298.697-.298 1.184 0 1.124-.857 1.84-1.09.911-.231-.921-1.405-1.319-1.94-.659-.55.68-.179 1.629.764 1.954l.649.224-.871.389c-.479.214-1.069.45-1.312.526-1.168.362-.682 1.381.663 1.388 1.182.006 1.483.717.638 1.507-.629.587-.68.75-.491 1.585.301 1.337.38 1.34 1.573.059 1.345-1.444 3.649-1.741 4.196-.54.476 1.045 1.681 1.09 2.22.084.315-.589-.021-1.082-.885-1.298-.543-.137-.598-.296-.681-1.953-.102-2.02.024-2.326 1.044-2.55.95-.209 1.364-.71.903-1.093-.44-.365-2.215-.444-2.328-.104-.292.877-.736 1.155-1.258.79-.368-.258-.452-.467-.289-.724.653-1.032-.395-2.491-1.207-1.68m100 0c-.388.388-.382 1.26.01 1.652.246.246.234.357-.062.544-.591.374-1.029.281-1.167-.247-.16-.612-.867-.848-1.937-.647-1.699.318-1.621.994.202 1.756l.914.382v1.743c0 1.623-.043 1.763-.628 2.029-.345.158-.693.549-.774.869-.342 1.362 1.48 1.809 2.098.514.517-1.083 2.566-1 4.036.163 1.179.932 1.5.93 2.006-.017.36-.672-.31-1.577-1.168-1.577a.345.345 0 01-.346-.342c0-.57.754-1.013 1.602-.94.492.043.923-.08 1.122-.319.48-.579-.099-1.135-1.182-1.135-2.123 0-3.034-.992-3.034-3.304 0-.896-.369-1.422-.995-1.422-.219 0-.533.134-.697.298m.945.747c0 .401-.073.473-.277.27-.152-.152-.201-.399-.109-.547.257-.417.386-.324.386.277m-250.667.449c-.299.12-.663.442-.809.714-.145.272-.476.562-.735.644-.301.095-.571.55-.752 1.267-.154.615-.503 1.308-.773 1.54-.392.335-.493.735-.493 1.957 0 2.852-.497 6.564-1.006 7.514-.706 1.318-.623 2.815.26 4.685.411.868.746 1.671.746 1.784 0 2.281 9.034 4.126 11.816 2.412.548-.337 1.187-.616 1.422-.62 1.929-.036 2.837-2.625 2.572-7.332-.428-7.59-.549-8.708-1.081-9.965-.29-.684-.591-1.555-.669-1.936a1.438 1.438 0 00-.777-.981c-.348-.159-.788-.588-.977-.954-.485-.937-6.899-1.472-8.744-.729m252.786.491c-.508.562-.173 1.249.61 1.249.822 0 1.331-.847.799-1.328-.593-.537-.865-.522-1.409.079m-105.104.541c0 .394-.788.545-1.006.192-.31-.501.226-1.066.666-.701.187.155.34.384.34.509m-139.784-.279c.264.142.481.419.481.616s.321.524.714.727c.768.397 1.018.986 1.024 2.407.002.532.245 1.255.596 1.772.57.84.6 1.109.776 6.963l.182 6.088-.929.93a4.7 4.7 0 01-2.206 1.262c-.702.184-1.612.509-2.023.724-1.337.699-5.571.253-6.51-.686-.091-.09-.437-.165-.77-.165-1.822 0-3.165-3.214-2.754-6.592.1-.821.217-3.061.261-4.977.075-3.304.113-3.53.727-4.354.392-.526.71-1.358.808-2.112.088-.684.299-1.289.468-1.345.169-.056.587-.416.929-.799l.622-.697 3.561-.01c2-.005 3.772.104 4.043.248m239.784.24c0 .315-.508.315-.995 0-.291-.188-.222-.242.311-.245.376-.002.684.108.684.245m-96.162 1.336c.954.899 1.358 3.663.578 3.949-.854.312-3.265-.229-3.651-.82a8.22 8.22 0 00-.85-1.062c-.445-.45-.441-.475.125-.867.32-.222.963-.772 1.429-1.221 1.056-1.019 1.268-1.018 2.369.021m99.471-.312c.344.545.047 1.215-.538 1.215-.644 0-.921.775-.41 1.149.466.34 1.371.17 1.371-.258 0-.792.925-.924 1.712-.243.087.075-.205.431-1.526 1.865-.336.365-.781.472-1.957.472h-1.522l.179-1.928c.098-1.06.195-1.941.216-1.957 1.006-.793 2.088-.931 2.475-.315m-96.788 1.244c-.688.255-.707.896-.044 1.471.581.504 1.262.401 1.883-.285.677-.748-.672-1.618-1.839-1.186m90.708.22l-.587.497.587.498c.731.619 1.328.632 1.862.042 1.064-1.175-.603-2.104-1.862-1.037m-95.487.39c0 .851 1.076.78 1.198-.079.065-.456-.039-.56-.559-.56-.521 0-.639.119-.639.639m97.014.107c0 .325-.643.467-1.017.226-.302-.194-.302-.257 0-.451.374-.241 1.017-.099 1.017.225m-91.341.019c-.049.147-.195.267-.325.267s-.277-.12-.326-.267c-.049-.147.098-.267.326-.267s.374.12.325.267m92.834 2.952c0 .687-.475.89-.957.408-.362-.362-.366-.44-.038-.648.597-.377.995-.281.995.24m-94.165-.003c.079.128.024.305-.121.395-.369.228-1.053-.07-.864-.376.194-.314.795-.326.985-.019m100.197.142c-.091.367-.873.302-1.002-.083-.076-.228.074-.306.477-.249.323.046.56.195.525.332m-104.687.997c-.252 1.007.525 2.004 1.209 1.55.921-.612 1.085-1.091.569-1.662-.661-.73-1.581-.673-1.778.112m100.451-.124c-.618.575-.452 1.26.417 1.725.638.341 1.334-.451 1.226-1.395-.102-.895-.871-1.049-1.643-.33m1.056 1.007c-.108.175-.274.163-.514-.035-.277-.23-.289-.372-.059-.65.345-.416.867.208.573.685m-100.223-.484c.094.152.02.37-.165.484-.355.219-.786-.209-.567-.562.175-.284.532-.245.732.078m-64.072.884c-1.403.221-1.715.354-1.854.792-.08.253-.426.587-.769.744-.344.156-.694.481-.778.721-.084.241-.47.777-.858 1.19l-.705.753-.025 25.436-.025 25.436.81.926c2.565 2.933 3.475 3.289 8.412 3.289 4.232 0 6.173-.447 7.111-1.639.273-.348.863-1.061 1.311-1.585l.814-.953-.067-25.632-.068-25.631-.684-.714c-.377-.393-.684-.837-.684-.987 0-.15-.392-.504-.871-.786-.479-.283-.871-.616-.871-.742 0-.624-7.339-1.069-10.199-.618m219.528.061c-.274.117-.711.449-.972.739-.26.29-.579.527-.708.527-.498 0-1.927.817-1.927 1.102 0 .165-.336.956-.747 1.758l-.746 1.46v24.83c0 23.925.017 24.847.465 25.295.256.256.667.922.913 1.48.306.694.69 1.109 1.214 1.311.422.164 1.205.589 1.741.946 1.458.97 8.709.898 9.893-.099.406-.341.901-.621 1.102-.621.2 0 .787-.431 1.304-.959s1.09-1.009 1.272-1.07c.603-.201.732-5.027.729-27.448-.002-23.149-.079-25.009-1.063-25.867a5.99 5.99 0 01-.981-1.167c-.224-.365-.661-.742-.973-.836-.311-.094-.881-.466-1.266-.827-.737-.692-7.919-1.122-9.25-.554m-209.536.952c1.24 1.191 2.002 1.951 2.436 2.428.431.473.457 1.761.542 26.077l.09 25.579-.684.499c-.376.274-.684.638-.684.809 0 2.396-12.123 3.489-13.605 1.227-.211-.321-.538-.584-.727-.584-.19 0-.345-.098-.345-.217 0-.12-.392-.646-.871-1.168l-.87-.951v-49.856l.87-1.042c.479-.573.871-1.199.871-1.391 0-.193.116-.35.257-.35.142 0 .655-.398 1.142-.885l.885-.884 5.056.076c4.847.073 5.081.099 5.637.633m218.083-.096c.302.321.993.731 1.536.91.542.179.986.456.986.614 0 .159.42.779.933 1.379l.933 1.09.022 24.39c.024 27.858.045 27.149-.786 27.357-.327.082-.768.484-.979.892-.211.409-.555.743-.763.743-.53 0-1.931.745-2.171 1.153-.341.582-7.389.479-8.163-.119-.326-.253-1.129-.661-1.784-.908-1.037-.392-1.258-.606-1.714-1.666-.287-.669-.733-1.329-.99-1.466-.691-.37-.604-49.752.088-50.279.233-.177.635-.872.895-1.544.429-1.107.583-1.256 1.653-1.598.662-.211 1.347-.63 1.559-.955.593-.904 7.895-.898 8.745.007M9.143 165.412c-2.441.474-4.199 5.624-2.437 7.139.293.253.878.795 1.3 1.205l.767.746 55.129.069c30.32.038 55.356.014 55.634-.053 1.156-.28 1.721-7.969.656-8.932-.483-.438-108.817-.607-111.049-.174m110.882 4.406c0 2.212-.093 4.115-.207 4.229-.114.114-25.039.207-55.388.207H9.249l-.512-.651c-.281-.357-.837-.785-1.236-.95-1.277-.529-1.383-4.588-.142-5.401.32-.21.647-.588.728-.841.22-.694-2.147-.667 56.714-.64l55.224.025v4.022m2.407-.857c-.438.438-.367 1.853.103 2.033.602.231.848-.045.848-.953 0-.965-.499-1.532-.951-1.08m-20.483 7.554c-.305.306-.373.773-.297 2.053.238 4.018.68 7.655.973 7.999.419.494.857 2.953.861 4.834.001.83.18 2.125.396 2.878l.716 2.497c.177.621.377 2.188.445 3.483.092 1.774.258 2.613.674 3.41.408.782.609 1.766.771 3.777.226 2.813.433 3.913 1.056 5.614.201.547.447 2.217.548 3.71.133 1.988.333 3.054.747 3.98.427.954.629 2.08.824 4.583.156 1.995.397 3.532.605 3.856.55.852.692 1.593.894 4.642.196 2.958.223 3.035 1.83 5.31.661.937 2.45.843 3.54-.185l.954-.899-.132-4.184c-.094-2.984-.237-4.392-.501-4.911-.577-1.14-.682-2.129-.922-8.681-.124-3.374-.33-6.267-.459-6.429-.587-.742-.799-2.482-1.029-8.473-.183-4.772-.338-6.574-.597-6.97-.6-.915-.863-3.241-.911-8.052-.035-3.472-.363-6.419-.866-7.77-.178-.479-.403-1.934-.5-3.234-.259-3.474.108-3.234-4.932-3.234-3.593 0-4.356.065-4.688.396m8.748 1.642c0 2.84.558 7.25 1.065 8.41.403.922.505 1.822.578 5.1.151 6.771.295 8.451.857 9.996.455 1.248.556 2.299.741 7.665.186 5.377.287 6.421.747 7.712.46 1.288.561 2.327.74 7.587.189 5.544.266 6.274.849 8.081 1.266 3.923.448 6.506-1.996 6.301-.904-.076-.944-.12-1.219-1.346-.156-.696-.527-1.661-.826-2.143-.451-.731-.541-1.25-.541-3.115 0-2.771-.339-4.637-.993-5.468-.407-.518-.5-1.01-.501-2.655-.002-2.691-.378-4.846-.991-5.674-.398-.539-.501-1.063-.501-2.568 0-2.641-.46-5.336-1.054-6.171-.407-.574-.521-1.22-.614-3.483-.116-2.836-.387-4.229-.949-4.893-.187-.222-.437-1.842-.613-3.981-.235-2.853-.406-3.789-.818-4.477-.419-.701-.55-1.456-.675-3.876-.133-2.566-.249-3.184-.798-4.234-.586-1.12-.998-5.629-.732-7.997.026-.235 1.04-.311 4.139-.311h4.105v1.54m144.154 10.649c-.35.15-.028.219 1.09.231 1.231.014 1.679.123 1.994.486.224.258.908.638 1.522.845.699.236 1.149.549 1.207.837.051.254.414.829.808 1.279l.717.817-.004 8.014-.005 8.013-.742 1.095c-.408.602-.741 1.355-.741 1.673 0 .385-.239.701-.717.948-.393.204-.782.542-.862.753-.081.21-.458.39-.839.399-.662.016-.669.028-.152.278.665.322 2.684-1.22 2.942-2.246.087-.347.403-.973.701-1.392.825-1.157.856-18.089.034-18.756-.28-.227-.582-.603-.671-.834-.088-.232-.475-.615-.858-.852-.384-.237-1.193-.748-1.798-1.134-1.132-.723-2.578-.904-3.626-.454m13.591.018c-.324.13-.802.508-1.064.84-.262.333-.693.674-.958.758-.314.1-.541.475-.649 1.072a8.362 8.362 0 01-.59 1.79c-1.069 2.195-1.242 15.168-.218 16.335.219.251.622.97.895 1.598.489 1.124 1.41 1.99 2.465 2.317.296.092.673.33.839.53.34.41 2.297.471 3.102.098.37-.172.283-.192-.341-.08-.794.142-1.221.02-2.807-.804-.363-.188-.817-.343-1.009-.343-.527 0-1.88-1.521-2.082-2.34-.098-.398-.44-1.182-.76-1.742-.905-1.582-.9-11.696.008-14.011.327-.836.673-2.084.768-2.773.127-.928.297-1.293.652-1.406.264-.084.839-.48 1.277-.88.803-.733 1.068-.824 2.145-.734.368.03.525-.052.421-.222-.202-.325-1.285-.327-2.094-.003m-115.158 27.892c-.199.199-.299 1.283-.299 3.234 0 3.445.151 3.721 2.279 4.16 2.193.452 210.318.254 211.204-.202 1.15-.591 1.779-5.827.847-7.055-.422-.557-213.475-.693-214.031-.137m213.829 2.563c.09 3.088-.012 3.501-1.013 4.111-.864.527-208.675.788-210.927.265-1.609-.374-1.747-.681-1.708-3.8.019-1.521.093-2.86.164-2.975.071-.115 48.117-.182 106.77-.149l106.641.06.073 2.488m-207.652 6.575c-.46.862-.342 17.547.128 17.937.547.454 4.08.461 4.924.01l.661-.353v-8.556c0-10.304.246-9.519-2.985-9.519-2.187 0-2.499.055-2.728.481m12.408-.082c-.484.583-.687 12.853-.222 13.414.351.423 1.794.486 2.499.109.602-.323.745-12.015.161-13.176-.397-.788-1.895-1.001-2.438-.347m174.16.082c-.458.855-.335 11.594.144 12.603.462.976 1.959 1.225 2.615.436.447-.539.649-12.216.224-13.009-.386-.722-2.601-.744-2.983-.03m9.661-.07c-.575.691-.635 17.548-.064 18.021.667.554 4.67.482 5.248-.095.535-.534.816-15.001.327-16.819-.393-1.458-4.53-2.289-5.511-1.107m-191.573.243l.56.15-.004 8.367c-.002 4.602-.1 8.519-.218 8.704-.271.428-2.137.646-3.618.424l-1.136-.17v-8.555c0-7.884.035-8.574.436-8.808.476-.277 3.088-.351 3.98-.112m184.587 5.565c.091 6.955.053 7.214-1.039 7.214-1.295 0-1.396-.506-1.396-6.935 0-6.263-.048-6.053 1.359-5.95l1.004.074.072 5.597m-174.633 1.051l.067 6.4-.607.152c-1.559.392-1.51.585-1.583-6.234-.077-7.158-.12-6.897 1.122-6.795l.935.078.066 6.399m185.745-6.234c.4.182.736.622.903 1.182.313 1.045.219 15.535-.102 15.856-.113.112-1.232.205-2.488.207l-2.283.003-.066-8.456c-.036-4.651-.011-8.597.055-8.769.155-.405 3.106-.422 3.981-.023" fill="#e4cce0"/></g></svg>