<svg width="28" height="24" fill="none" xmlns="http://www.w3.org/2000/svg"><path d="M27.83.893a.424.424 0 00-.428-.101L.816 9.402a.426.426 0 00-.109.754l6.256 4.292 1.315 8.478c0 .01.003.02.007.027 0 .004 0 .007.003.01l.01.031c0 .003.004.01.007.014l.01.02c.004.004.004.01.007.014l.01.02c.004.004.007.01.007.014.003.007.01.014.014.02.003.004.003.007.006.01l.024.031.007.007.02.02.004.004c.003 0 .003.003.007.003.006.007.013.01.02.017.004.004.007.007.01.007.007.003.014.01.02.014.004.003.007.003.01.006.011.007.018.01.028.014.007.004.01.007.017.007l.02.01c.007.004.01.004.017.007.007.003.014.003.017.007.007 0 .01.003.017.003.007 0 .014.003.02.003.007 0 .01.004.018.004.003 0 .006 0 .01.003h.105a.128.128 0 00.038-.006c.003 0 .006-.004.01-.004l.027-.006c.007 0 .01-.004.017-.004.007-.003.014-.003.02-.007l.017-.006a.056.056 0 00.024-.014.063.063 0 00.017-.01c.007-.004.014-.01.024-.014.003-.004.01-.007.014-.01.006-.007.013-.01.02-.017.004-.004.007-.007.01-.007l.03-.03 4.102-4.48 7.452 5.115a.44.44 0 00.241.075.418.418 0 00.404-.303L27.946 1.31a.43.43 0 00-.116-.418zm-3.119 1.662L7.361 13.69 1.9 9.942l22.81-7.387zM11.054 16.64c-.003.003-.003.007-.007.007l-.013.013c-.007.007-.01.014-.017.02-.004.004-.007.011-.01.015-.007.006-.01.016-.017.023-.004.004-.007.007-.007.014a.129.129 0 00-.014.03c0 .004-.003.004-.003.008l-.004.006L8.9 21.374l-1.084-6.967L24.058 3.985 11.054 16.64zm-.893 3.993l1.369-3.052.877.602-2.246 2.45zm10.404 2.117l-8.55-5.866L26.648 2.647 20.565 22.75z" fill="#fff"/></svg>