<svg width="15" height="15" fill="none" xmlns="http://www.w3.org/2000/svg"><path d="M0 15l1.29-3.87a7.37 7.37 0 112.91 2.765L0 15z" fill="#2CB742"/><path d="M12.332 9.824c-.34-.643-1.596-1.379-1.596-1.379-.284-.162-.626-.18-.788.109 0 0-.408.489-.512.559-.473.321-.912.309-1.355-.134l-1.03-1.03-1.03-1.03c-.443-.443-.455-.881-.134-1.355.07-.104.56-.512.56-.512.288-.162.27-.504.108-.788 0 0-.735-1.255-1.379-1.596a.705.705 0 00-.828.125l-.455.455c-1.442 1.442-.732 3.07.71 4.512l1.319 1.32 1.318 1.318c1.442 1.442 3.07 2.152 4.513.71l.454-.455a.706.706 0 00.125-.828z" fill="#fff"/></svg>