<svg width="103" height="22" viewBox="0 0 103 22" fill="none" xmlns="http://www.w3.org/2000/svg">
<path fill-rule="evenodd" clip-rule="evenodd" d="M52.8547 4C51.7477 3.99995 50.6654 4.3281 49.7448 4.94298C48.8242 5.55786 48.1066 6.43187 47.6826 7.45452C47.2586 8.47718 47.1473 9.60257 47.3628 10.6885C47.5783 11.7744 48.1108 12.772 48.8932 13.5553C49.9038 14.5659 52.2938 16.0363 52.4303 17.5977C52.4303 17.7089 52.4745 17.8156 52.5531 17.8943C52.6318 17.9729 52.7385 18.0171 52.8497 18.0171C52.9609 18.0171 53.0676 17.9729 53.1462 17.8943C53.2249 17.8156 53.2691 17.7089 53.2691 17.5977C53.4106 16.0565 55.7956 14.5659 56.8062 13.5553C57.5879 12.7726 58.1203 11.7759 58.3361 10.6909C58.5519 9.60599 58.4414 8.48143 58.0187 7.45919C57.596 6.43694 56.8799 5.56284 55.9608 4.94719C55.0418 4.33154 53.9609 4.00194 52.8547 4Z" fill="#FF4433"/>
<path fill-rule="evenodd" clip-rule="evenodd" d="M52.8547 11.5442C53.2425 11.5442 53.6215 11.4292 53.9439 11.2138C54.2664 10.9983 54.5177 10.6921 54.6661 10.3339C54.8144 9.97562 54.8533 9.58142 54.7776 9.2011C54.702 8.82079 54.5153 8.47145 54.2411 8.19726C53.9669 7.92307 53.6175 7.73634 53.2372 7.66069C52.8569 7.58504 52.4627 7.62387 52.1044 7.77226C51.7462 7.92065 51.44 8.17194 51.2246 8.49436C51.0091 8.81677 50.8941 9.19583 50.8941 9.5836C50.8941 10.1036 51.1007 10.6023 51.4684 10.9699C51.8361 11.3376 52.3347 11.5442 52.8547 11.5442Z" fill="white"/>
<path fill-rule="evenodd" clip-rule="evenodd" d="M95.4164 14.6114H94.5827V12.1859H95.4568C95.6233 12.1601 95.7936 12.1739 95.9537 12.2262C96.1139 12.2785 96.2594 12.3679 96.3786 12.487C96.4977 12.6062 96.5871 12.7517 96.6394 12.9119C96.6917 13.072 96.7055 13.2423 96.6797 13.4088C96.6797 14.2829 96.1744 14.6164 95.4164 14.6164V14.6114ZM99.2062 8.44162V16.0212H101.005V8.44162H99.2062ZM92.7888 8.44162V16.0212H95.5225C97.2911 16.0212 98.5543 15.1167 98.5543 13.333C98.5543 11.6402 97.4326 10.7509 95.563 10.7509H94.5978V8.42646L92.7888 8.44162ZM91.7327 9.86153V8.44162H85.7045V9.86153H87.8217V16.0363H89.6054V9.86153H91.7327ZM82.0006 14.768C81.0506 14.768 80.5655 14 80.5655 12.2415C80.5655 10.483 81.0708 9.71499 82.0815 9.71499C83.0921 9.71499 83.5468 10.483 83.5468 12.2415C83.5468 14 83.0415 14.768 81.9905 14.768H82.0006ZM80.4291 8.44162H78.7717V18.2243H80.5655V15.147C80.7662 15.4664 81.0451 15.7292 81.3759 15.9105C81.7066 16.0918 82.0782 16.1855 82.4554 16.1829C84.2037 16.1829 85.4114 14.7832 85.4114 12.2314C85.4114 9.67961 84.2341 8.29508 82.5463 8.29508C82.1405 8.29053 81.7404 8.39212 81.3859 8.58977C81.0314 8.78742 80.7347 9.07427 80.5251 9.42191L80.4342 8.44162H80.4291ZM75.5277 14.2223C75.3813 14.4224 75.1872 14.5828 74.963 14.6887C74.7389 14.7946 74.4917 14.8427 74.2442 14.8287C74.096 14.8477 73.9455 14.8336 73.8034 14.7875C73.6613 14.7413 73.5312 14.6643 73.4225 14.5618C73.3138 14.4594 73.2291 14.3341 73.1746 14.195C73.1201 14.0559 73.0971 13.9065 73.1073 13.7574C73.1073 12.8933 73.7288 12.5801 75.27 12.5801H75.5277V14.2223ZM77.3215 10.857C77.3215 9.01767 76.3867 8.33046 74.4867 8.33046C73.5506 8.32387 72.629 8.56254 71.8137 9.02272V10.5386C72.5467 10.0603 73.3994 9.79768 74.2745 9.78068C75.1335 9.78068 75.5277 10.0839 75.5277 10.9025V11.3219H75.2346C72.4908 11.3219 71.273 12.2314 71.273 13.7675C71.273 15.3036 72.2028 16.1677 73.5924 16.1677C73.9357 16.1988 74.2816 16.1513 74.6038 16.0287C74.926 15.9061 75.216 15.7117 75.4519 15.4603H75.5277C75.5478 15.6652 75.5919 15.867 75.6591 16.0616H77.4125C77.3518 15.4451 77.3215 14.8236 77.3215 14.2071V10.8822V10.857ZM69.0649 16.0363H71.1972L67.4681 10.5285L70.8486 5.54623H68.9891L65.745 10.3769V5.54623H63.9209V16.0363H65.745V11.1147L69.0649 16.0363Z" fill="black"/>
<path fill-rule="evenodd" clip-rule="evenodd" d="M19.9797 14.6114H17.4532C17.9585 13.4643 18.0899 11.3976 18.0899 10.0636V9.83626H19.9898V14.6114H19.9797ZM26.2151 9.70994C27.1045 9.70994 27.3773 10.4477 27.3773 11.3976V11.5492H24.8508C24.8963 10.3416 25.3561 9.70994 26.1949 9.70994H26.2151ZM12.6781 8.43657V11.4684H10.2728V8.43657H8.47394V16.0161H10.2728V12.8479H12.673V16.0161H14.4668V8.43657H12.6781ZM22.577 14.6114H21.7786V8.44162H16.5386V9.09346C16.5386 10.9479 16.4224 13.3481 15.7857 14.6164H15.2248V17.7695H16.8872V16.0363H20.9297V17.7695H22.5921V14.6114H22.577ZM34.8659 16.0313H36.8871L34.0069 11.9889L36.5334 8.42646H34.7194L32.1929 11.9889V8.42646H30.394V16.006H32.1929V12.3375L34.8508 16.006L34.8659 16.0313ZM29.1257 15.526V14.0606C28.4178 14.5148 27.5968 14.7616 26.7558 14.7731C25.442 14.7731 24.9468 14.1566 24.871 12.8832H29.2015V11.9333C29.2015 9.29053 28.0443 8.29508 26.2404 8.29508C24.0575 8.29508 23.0166 9.96764 23.0166 12.2617C23.0166 14.9045 24.3152 16.1829 26.6093 16.1829C27.4987 16.2204 28.379 15.9898 29.1358 15.5209L29.1257 15.526ZM40.3535 16.1879C37.9533 16.1879 36.8164 14.7882 36.8164 12.2516C36.8164 9.94237 38.014 8.30014 40.308 8.30014C40.9714 8.26354 41.6338 8.38838 42.2383 8.66395V10.1799C41.7101 9.8785 41.1132 9.71839 40.5051 9.71499C39.3277 9.71499 38.6759 10.5588 38.6759 12.2061C38.6759 13.7726 39.1812 14.768 40.4899 14.768C41.1116 14.7894 41.7239 14.6124 42.2383 14.2627V15.723C41.6842 16.073 41.0324 16.2359 40.3788 16.1879H40.3535ZM5.14399 16.0414H6.96814V5.54623H4.31529C1.64224 5.54623 0.242543 6.92066 0.242543 8.94187C0.242543 10.5588 1.01061 11.5088 2.38503 12.479L0 16.0161H1.97574L4.63363 12.0444L3.70387 11.4482C2.5821 10.6953 2.04143 10.1041 2.04143 8.84081C2.04143 7.71904 2.82465 6.96613 4.32034 6.96613H5.13388L5.14399 16.0414Z" fill="black"/>
</svg>
